SplineFontDB: 3.2
FontName: Nunito-SemiBoldItalic
FullName: Nunito SemiBold Italic
FamilyName: Nunito SemiBold
Weight: Demi
Copyright: Copyright 2014 The Nunito Project Authors (https://github.com/googlefonts/nunito)
Version: 3.602-ef
ItalicAngle: -9
UnderlinePosition: -94
UnderlineWidth: 28
Ascent: 800
Descent: 200
InvalidEm: 0
sfntRevision: 0x00039a1d
LayerCount: 2
Layer: 0 1 "Back" 1
Layer: 1 1 "Fore" 0
XUID: [1021 965 1680887925 10328344]
StyleMap: 0x0001
FSType: 0
OS2Version: 4
OS2_WeightWidthSlopeOnly: 0
OS2_UseTypoMetrics: 1
CreationTime: 1592915285
ModificationTime: 1719073555
PfmFamily: 81
TTFWeight: 600
TTFWidth: 5
LineGap: 0
VLineGap: 0
Panose: 0 0 0 0 0 0 0 0 0 0
OS2TypoAscent: 1011
OS2TypoAOffset: 0
OS2TypoDescent: -353
OS2TypoDOffset: 0
OS2TypoLinegap: 0
OS2WinAscent: 1077
OS2WinAOffset: 0
OS2WinDescent: 300
OS2WinDOffset: 0
HheadAscent: 1011
HheadAOffset: 0
HheadDescent: -353
HheadDOffset: 0
OS2SubXSize: 650
OS2SubYSize: 600
OS2SubXOff: 0
OS2SubYOff: 75
OS2SupXSize: 650
OS2SupYSize: 600
OS2SupXOff: 0
OS2SupYOff: 350
OS2StrikeYSize: 28
OS2StrikeYPos: 290
OS2CapHeight: 705
OS2XHeight: 484
OS2Vendor: 'NONE'
OS2CodePages: 20000197.00000000
OS2UnicodeRanges: a00002ff.5000204b.00000000.00000000
Lookup: 1 0 0 "'aalt' Access All Alternates lookup 0" { "'aalt' Access All Alternates lookup 0 subtable"  } ['aalt' ('DFLT' <'dflt' > 'cyrl' <'BSH ' 'CHU ' 'dflt' > 'latn' <'AZE ' 'CAT ' 'CRT ' 'KAZ ' 'MOL ' 'NLD ' 'ROM ' 'TAT ' 'TRK ' 'dflt' > ) ]
Lookup: 3 0 0 "'aalt' Access All Alternates lookup 1" { "'aalt' Access All Alternates lookup 1 subtable"  } ['aalt' ('DFLT' <'dflt' > 'cyrl' <'BSH ' 'CHU ' 'dflt' > 'latn' <'AZE ' 'CAT ' 'CRT ' 'KAZ ' 'MOL ' 'NLD ' 'ROM ' 'TAT ' 'TRK ' 'dflt' > ) ]

StartChar: .notdef
Encoding: 65536 -1 0
Width: 500
GlyphClass: 1
Flags: W
LayerCount: 2
Fore
SplineSet
50 -180 m 1,0,-1
 50 705 l 1,1,-1
 450 705 l 1,2,-1
 450 -180 l 1,3,-1
 50 -180 l 1,0,-1
100 -130 m 1,4,-1
 400 -130 l 1,5,-1
 400 655 l 1,6,-1
 100 655 l 1,7,-1
 100 -130 l 1,4,-1
EndSplineSet
EndChar

StartChar: A
Encoding: 65 65 1
Width: 736
GlyphClass: 2
Flags: W
AnchorPoint: "Anchor-3" 659 0 basechar 0
AnchorPoint: "Anchor-2" 348 0 basechar 0
AnchorPoint: "Anchor-0" 442 705 basechar 0
LayerCount: 2
Fore
SplineSet
45 -7 m 256,0,1
 27 -7 27 -7 14.5 1.5 c 128,-1,2
 2 10 2 10 -0.5 24.5 c 128,-1,3
 -3 39 -3 39 7 57 c 2,4,-1
 382 677 l 2,5,6
 394 695 394 695 407.5 703.5 c 128,-1,7
 421 712 421 712 442 712 c 256,8,9
 463 712 463 712 476.5 702 c 128,-1,10
 490 692 490 692 496 671 c 2,11,-1
 670 60 l 2,12,13
 677 37 677 37 673 22 c 128,-1,14
 669 7 669 7 657.5 0 c 128,-1,15
 646 -7 646 -7 630 -7 c 0,16,17
 608 -7 608 -7 595.5 4.5 c 128,-1,18
 583 16 583 16 577 39 c 2,19,-1
 536 194 l 1,20,-1
 571 172 l 1,21,-1
 151 172 l 1,22,-1
 196 192 l 1,23,-1
 97 24 l 2,24,25
 89 8 89 8 76 0.5 c 128,-1,26
 63 -7 63 -7 45 -7 c 256,0,1
429 590 m 1,27,-1
 223 238 l 1,28,-1
 200 256 l 1,29,-1
 549 256 l 1,30,-1
 524 237 l 1,31,-1
 431 590 l 1,32,-1
 429 590 l 1,27,-1
EndSplineSet
Substitution2: "Single Substitution lookup 29 subtable" ordfeminine
Substitution2: "'aalt' Access All Alternates lookup 0 subtable" ordfeminine
EndChar

StartChar: Aogonek
Encoding: 260 260 24
Width: 736
GlyphClass: 1
Flags: W
LayerCount: 2
Fore
SplineSet
622 -194 m 0,0,1
 571 -194 571 -194 545.5 -168 c 128,-1,2
 520 -142 520 -142 520 -103 c 256,3,4
 520 -64 520 -64 539.5 -33 c 128,-1,5
 559 -2 559 -2 595 21 c 1,6,-1
 591 9 l 1,7,8
 586 14 586 14 582.5 21.5 c 128,-1,9
 579 29 579 29 577 39 c 2,10,-1
 536 194 l 1,11,-1
 571 172 l 1,12,-1
 151 172 l 1,13,-1
 196 192 l 1,14,-1
 97 24 l 2,15,16
 89 8 89 8 76 0.5 c 128,-1,17
 63 -7 63 -7 45 -7 c 256,18,19
 27 -7 27 -7 14.5 1.5 c 128,-1,20
 2 10 2 10 -0.5 24.5 c 128,-1,21
 -3 39 -3 39 7 57 c 2,22,-1
 382 677 l 2,23,24
 394 695 394 695 407.5 703.5 c 128,-1,25
 421 712 421 712 442 712 c 256,26,27
 463 712 463 712 476.5 702 c 128,-1,28
 490 692 490 692 496 671 c 2,29,-1
 670 60 l 2,30,31
 677 34 677 34 671 18.5 c 128,-1,32
 665 3 665 3 651 -4 c 0,33,34
 630 -14 630 -14 616 -26.5 c 128,-1,35
 602 -39 602 -39 595 -53.5 c 128,-1,36
 588 -68 588 -68 588 -86 c 0,37,38
 588 -108 588 -108 601.5 -122 c 128,-1,39
 615 -136 615 -136 640 -136 c 0,40,41
 648 -136 648 -136 656.5 -134.5 c 128,-1,42
 665 -133 665 -133 675 -130 c 0,43,44
 689 -126 689 -126 696.5 -131.5 c 128,-1,45
 704 -137 704 -137 705.5 -148 c 128,-1,46
 707 -159 707 -159 702.5 -169 c 128,-1,47
 698 -179 698 -179 688 -183 c 0,48,49
 674 -188 674 -188 656 -191 c 128,-1,50
 638 -194 638 -194 622 -194 c 0,0,1
429 590 m 1,51,-1
 223 238 l 1,52,-1
 200 256 l 1,53,-1
 549 256 l 1,54,-1
 524 237 l 1,55,-1
 431 590 l 1,56,-1
 429 590 l 1,51,-1
EndSplineSet
EndChar

StartChar: AE
Encoding: 198 198 28
Width: 987
GlyphClass: 2
Flags: W
AnchorPoint: "Anchor-2" 449 0 basechar 0
AnchorPoint: "Anchor-0" 547 705 basechar 0
LayerCount: 2
Fore
SplineSet
13 -7 m 0,0,1
 -8 -7 -8 -7 -19 3 c 128,-1,2
 -30 13 -30 13 -30 28.5 c 128,-1,3
 -30 44 -30 44 -19 58 c 2,4,-1
 459 678 l 2,5,6
 471 693 471 693 484.5 699 c 128,-1,7
 498 705 498 705 516 705 c 2,8,-1
 966 705 l 2,9,10
 988 705 988 705 999.5 696.5 c 128,-1,11
 1011 688 1011 688 1011 672 c 0,12,13
 1011 647 1011 647 997 634 c 128,-1,14
 983 621 983 621 961 621 c 2,15,-1
 549 621 l 1,16,-1
 580 652 l 1,17,-1
 596 372 l 1,18,-1
 562 400 l 1,19,-1
 896 400 l 2,20,21
 918 400 918 400 929.5 391.5 c 128,-1,22
 941 383 941 383 941 366 c 0,23,24
 941 342 941 342 927 329 c 128,-1,25
 913 316 913 316 892 316 c 2,26,-1
 568 316 l 1,27,-1
 597 344 l 1,28,-1
 613 52 l 1,29,-1
 579 84 l 1,30,-1
 868 84 l 2,31,32
 890 84 890 84 901.5 75.5 c 128,-1,33
 913 67 913 67 913 50 c 0,34,35
 913 27 913 27 899.5 13.5 c 128,-1,36
 886 0 886 0 863 0 c 2,37,-1
 571 0 l 2,38,39
 526 0 526 0 523 45 c 2,40,-1
 515 203 l 1,41,-1
 546 172 l 1,42,-1
 157 172 l 1,43,-1
 201 200 l 1,44,-1
 66 22 l 2,45,46
 55 6 55 6 42.5 -0.5 c 128,-1,47
 30 -7 30 -7 13 -7 c 0,0,1
491 587 m 1,48,-1
 224 231 l 1,49,-1
 218 256 l 1,50,-1
 536 256 l 1,51,-1
 513 229 l 1,52,-1
 493 587 l 1,53,-1
 491 587 l 1,48,-1
EndSplineSet
EndChar

StartChar: B
Encoding: 66 66 30
Width: 682
GlyphClass: 2
Flags: W
AnchorPoint: "Anchor-2" 306 0 basechar 0
AnchorPoint: "Anchor-0" 417 705 basechar 0
LayerCount: 2
Fore
SplineSet
104 0 m 2,0,1
 76 0 76 0 62.5 16 c 128,-1,2
 49 32 49 32 53 60 c 2,3,-1
 148 654 l 2,4,5
 152 680 152 680 167 692.5 c 128,-1,6
 182 705 182 705 207 705 c 2,7,-1
 433 705 l 2,8,9
 509 705 509 705 557 684 c 128,-1,10
 605 663 605 663 628 625.5 c 128,-1,11
 651 588 651 588 651 539 c 0,12,13
 651 462 651 462 602.5 412.5 c 128,-1,14
 554 363 554 363 475 351 c 1,15,-1
 475 367 l 1,16,17
 541 355 541 355 578.5 313 c 128,-1,18
 616 271 616 271 616 209 c 0,19,20
 616 106 616 106 550 53 c 128,-1,21
 484 0 484 0 364 0 c 2,22,-1
 104 0 l 2,0,1
156 80 m 1,23,-1
 361 80 l 2,24,25
 438 80 438 80 477 114.5 c 128,-1,26
 516 149 516 149 516 214 c 0,27,28
 516 265 516 265 482 291 c 128,-1,29
 448 317 448 317 383 317 c 2,30,-1
 194 317 l 1,31,-1
 156 80 l 1,23,-1
207 397 m 1,32,-1
 394 397 l 2,33,34
 467 397 467 397 508.5 431 c 128,-1,35
 550 465 550 465 550 528 c 0,36,37
 550 575 550 575 518 600 c 128,-1,38
 486 625 486 625 418 625 c 2,39,-1
 243 625 l 1,40,-1
 207 397 l 1,32,-1
EndSplineSet
EndChar

StartChar: uni0181
Encoding: 385 385 31
Width: 817
GlyphClass: 1
Flags: W
LayerCount: 2
Fore
SplineSet
241 0 m 2,0,1
 212 0 212 0 198.5 16 c 128,-1,2
 185 32 185 32 190 60 c 2,3,-1
 280 629 l 1,4,-1
 249 629 l 2,5,6
 197 629 197 629 169.5 605.5 c 128,-1,7
 142 582 142 582 131 526 c 2,8,-1
 127 504 l 2,9,10
 126 495 126 495 120.5 487.5 c 128,-1,11
 115 480 115 480 105.5 476 c 128,-1,12
 96 472 96 472 83 472 c 0,13,14
 68 472 68 472 58.5 478 c 128,-1,15
 49 484 49 484 46 494.5 c 128,-1,16
 43 505 43 505 44 519 c 2,17,-1
 48 541 l 2,18,19
 60 624 60 624 109.5 664.5 c 128,-1,20
 159 705 159 705 259 705 c 2,21,-1
 569 705 l 2,22,23
 645 705 645 705 693 684 c 128,-1,24
 741 663 741 663 764 625.5 c 128,-1,25
 787 588 787 588 787 539 c 0,26,27
 787 462 787 462 738.5 412.5 c 128,-1,28
 690 363 690 363 611 351 c 1,29,-1
 611 367 l 1,30,31
 677 355 677 355 714.5 313 c 128,-1,32
 752 271 752 271 752 209 c 0,33,34
 752 106 752 106 686 53 c 128,-1,35
 620 0 620 0 500 0 c 2,36,-1
 241 0 l 2,0,1
292 80 m 1,37,-1
 497 80 l 2,38,39
 574 80 574 80 612.5 114.5 c 128,-1,40
 651 149 651 149 651 214 c 0,41,42
 651 265 651 265 617 291 c 128,-1,43
 583 317 583 317 519 317 c 2,44,-1
 330 317 l 1,45,-1
 292 80 l 1,37,-1
343 397 m 1,46,-1
 530 397 l 2,47,48
 603 397 603 397 644.5 431 c 128,-1,49
 686 465 686 465 686 528 c 0,50,51
 686 575 686 575 654 600 c 128,-1,52
 622 625 622 625 554 625 c 2,53,-1
 379 625 l 1,54,-1
 343 397 l 1,46,-1
EndSplineSet
EndChar

StartChar: C
Encoding: 67 67 32
Width: 676
GlyphClass: 2
Flags: W
AnchorPoint: "Anchor-2" 369 0 basechar 0
AnchorPoint: "Anchor-0" 439 705 basechar 0
LayerCount: 2
Fore
SplineSet
387 -9 m 0,0,1
 295 -9 295 -9 224.5 25.5 c 128,-1,2
 154 60 154 60 114 130.5 c 128,-1,3
 74 201 74 201 74 309 c 0,4,5
 74 395 74 395 99.5 468.5 c 128,-1,6
 125 542 125 542 172.5 597 c 128,-1,7
 220 652 220 652 289.5 683 c 128,-1,8
 359 714 359 714 446 714 c 0,9,10
 506 714 506 714 560 697 c 128,-1,11
 614 680 614 680 654 648 c 0,12,13
 669 637 669 637 672.5 622.5 c 128,-1,14
 676 608 676 608 671.5 594 c 128,-1,15
 667 580 667 580 657.5 570.5 c 128,-1,16
 648 561 648 561 634.5 559.5 c 128,-1,17
 621 558 621 558 607 567 c 0,18,19
 568 597 568 597 528 609.5 c 128,-1,20
 488 622 488 622 442 622 c 0,21,22
 361 622 361 622 303 581.5 c 128,-1,23
 245 541 245 541 214.5 470.5 c 128,-1,24
 184 400 184 400 184 311 c 0,25,26
 184 230 184 230 209 180 c 128,-1,27
 234 130 234 130 281.5 106.5 c 128,-1,28
 329 83 329 83 397 83 c 0,29,30
 439 83 439 83 476 94.5 c 128,-1,31
 513 106 513 106 551 133 c 0,32,33
 567 143 567 143 581 141.5 c 128,-1,34
 595 140 595 140 604.5 130.5 c 128,-1,35
 614 121 614 121 617 107.5 c 128,-1,36
 620 94 620 94 615 80 c 128,-1,37
 610 66 610 66 595 56 c 0,38,39
 550 23 550 23 496 7 c 128,-1,40
 442 -9 442 -9 387 -9 c 0,0,1
EndSplineSet
EndChar

StartChar: D
Encoding: 68 68 39
Width: 751
GlyphClass: 2
Flags: W
AnchorPoint: "Anchor-5" 206 358 basechar 0
AnchorPoint: "Anchor-2" 339 0 basechar 0
AnchorPoint: "Anchor-0" 438 705 basechar 0
LayerCount: 2
Fore
SplineSet
104 0 m 2,0,1
 76 0 76 0 62.5 16 c 128,-1,2
 49 32 49 32 53 60 c 2,3,-1
 148 654 l 2,4,5
 152 680 152 680 167 692.5 c 128,-1,6
 182 705 182 705 207 705 c 2,7,-1
 371 705 l 2,8,9
 535 705 535 705 624 627 c 128,-1,10
 713 549 713 549 713 407 c 0,11,12
 713 322 713 322 689 248.5 c 128,-1,13
 665 175 665 175 615 119 c 128,-1,14
 565 63 565 63 490 31.5 c 128,-1,15
 415 0 415 0 312 0 c 2,16,-1
 104 0 l 2,0,1
161 87 m 1,17,-1
 314 87 l 2,18,19
 391 87 391 87 446.5 111.5 c 128,-1,20
 502 136 502 136 537 179.5 c 128,-1,21
 572 223 572 223 588.5 281.5 c 128,-1,22
 605 340 605 340 605 406 c 0,23,24
 605 510 605 510 546 564 c 128,-1,25
 487 618 487 618 371 618 c 2,26,-1
 245 618 l 1,27,-1
 161 87 l 1,17,-1
EndSplineSet
EndChar

StartChar: uni018A
Encoding: 394 394 45
Width: 888
GlyphClass: 1
Flags: W
LayerCount: 2
Fore
SplineSet
241 0 m 2,0,1
 212 0 212 0 198.5 16 c 128,-1,2
 185 32 185 32 189 60 c 2,3,-1
 280 629 l 1,4,-1
 250 629 l 2,5,6
 199 629 199 629 169.5 605.5 c 128,-1,7
 140 582 140 582 131 526 c 2,8,-1
 127 504 l 2,9,10
 126 495 126 495 120.5 487.5 c 128,-1,11
 115 480 115 480 105.5 476 c 128,-1,12
 96 472 96 472 83 472 c 0,13,14
 68 472 68 472 58.5 478 c 128,-1,15
 49 484 49 484 45.5 494.5 c 128,-1,16
 42 505 42 505 44 519 c 2,17,-1
 48 541 l 2,18,19
 61 624 61 624 110 664.5 c 128,-1,20
 159 705 159 705 259 705 c 2,21,-1
 507 705 l 2,22,23
 671 705 671 705 760 627 c 128,-1,24
 849 549 849 549 849 407 c 0,25,26
 849 322 849 322 824.5 248.5 c 128,-1,27
 800 175 800 175 750.5 119 c 128,-1,28
 701 63 701 63 625.5 31.5 c 128,-1,29
 550 0 550 0 448 0 c 2,30,-1
 241 0 l 2,0,1
297 87 m 1,31,-1
 450 87 l 2,32,33
 527 87 527 87 582.5 111.5 c 128,-1,34
 638 136 638 136 673 179.5 c 128,-1,35
 708 223 708 223 724.5 281.5 c 128,-1,36
 741 340 741 340 741 406 c 0,37,38
 741 510 741 510 682 564 c 128,-1,39
 623 618 623 618 507 618 c 2,40,-1
 381 618 l 1,41,-1
 297 87 l 1,31,-1
EndSplineSet
EndChar

StartChar: E
Encoding: 69 69 48
Width: 589
GlyphClass: 2
Flags: W
AnchorPoint: "Anchor-3" 454 0 basechar 0
AnchorPoint: "Anchor-2" 293 0 basechar 0
AnchorPoint: "Anchor-0" 400 705 basechar 0
LayerCount: 2
Fore
SplineSet
105 0 m 2,0,1
 76 0 76 0 62.5 15.5 c 128,-1,2
 49 31 49 31 53 60 c 2,3,-1
 148 654 l 2,4,5
 152 680 152 680 167 692.5 c 128,-1,6
 182 705 182 705 207 705 c 2,7,-1
 569 705 l 2,8,9
 590 705 590 705 601.5 696.5 c 128,-1,10
 613 688 613 688 613 672 c 0,11,12
 613 647 613 647 599.5 634 c 128,-1,13
 586 621 586 621 564 621 c 2,14,-1
 242 621 l 1,15,-1
 207 400 l 1,16,-1
 500 400 l 2,17,18
 521 400 521 400 532 391.5 c 128,-1,19
 543 383 543 383 543 366 c 0,20,21
 543 342 543 342 529.5 329 c 128,-1,22
 516 316 516 316 494 316 c 2,23,-1
 194 316 l 1,24,-1
 156 84 l 1,25,-1
 470 84 l 2,26,27
 491 84 491 84 502.5 75.5 c 128,-1,28
 514 67 514 67 514 50 c 0,29,30
 514 26 514 26 500.5 13 c 128,-1,31
 487 0 487 0 465 0 c 2,32,-1
 105 0 l 2,0,1
EndSplineSet
EndChar

StartChar: uni018F
Encoding: 399 399 72
Width: 775
GlyphClass: 2
Flags: W
AnchorPoint: "Anchor-2" 348 0 basechar 0
AnchorPoint: "Anchor-0" 460 705 basechar 0
LayerCount: 2
Fore
SplineSet
369 -9 m 0,0,1
 286 -9 286 -9 225 20.5 c 128,-1,2
 164 50 164 50 127 102 c 128,-1,3
 90 154 90 154 77 222 c 128,-1,4
 64 290 64 290 77 365 c 0,5,6
 79 382 79 382 89 389.5 c 128,-1,7
 99 397 99 397 119 397 c 2,8,-1
 661 397 l 1,9,-1
 648 312 l 1,10,-1
 147 312 l 1,11,-1
 180 353 l 1,12,13
 169 273 169 273 185 210.5 c 128,-1,14
 201 148 201 148 248 113 c 128,-1,15
 295 78 295 78 375 78 c 0,16,17
 460 78 460 78 516 122 c 128,-1,18
 572 166 572 166 600 241.5 c 128,-1,19
 628 317 628 317 628 408 c 0,20,21
 628 475 628 475 601 523.5 c 128,-1,22
 574 572 574 572 523.5 598 c 128,-1,23
 473 624 473 624 402 624 c 0,24,25
 341 624 341 624 290 611 c 128,-1,26
 239 598 239 598 194 570 c 0,27,28
 177 560 177 560 163 562.5 c 128,-1,29
 149 565 149 565 139.5 574.5 c 128,-1,30
 130 584 130 584 127.5 598 c 128,-1,31
 125 612 125 612 131.5 625 c 128,-1,32
 138 638 138 638 153 647 c 0,33,34
 210 683 210 683 276 698.5 c 128,-1,35
 342 714 342 714 418 714 c 0,36,37
 513 714 513 714 584.5 675.5 c 128,-1,38
 656 637 656 637 696 567 c 128,-1,39
 736 497 736 497 736 405 c 0,40,41
 736 318 736 318 712.5 243 c 128,-1,42
 689 168 689 168 643 111 c 128,-1,43
 597 54 597 54 528.5 22.5 c 128,-1,44
 460 -9 460 -9 369 -9 c 0,0,1
EndSplineSet
EndChar

StartChar: F
Encoding: 70 70 73
Width: 554
GlyphClass: 2
Flags: W
AnchorPoint: "Anchor-2" 259 0 basechar 0
AnchorPoint: "Anchor-0" 373 705 basechar 0
LayerCount: 2
Fore
SplineSet
100 -7 m 0,0,1
 73 -7 73 -7 60.5 8.5 c 128,-1,2
 48 24 48 24 52 52 c 2,3,-1
 148 654 l 2,4,5
 152 680 152 680 167 692.5 c 128,-1,6
 182 705 182 705 207 705 c 2,7,-1
 556 705 l 2,8,9
 578 705 578 705 589.5 696.5 c 128,-1,10
 601 688 601 688 601 671 c 0,11,12
 601 648 601 648 588 634.5 c 128,-1,13
 575 621 575 621 551 621 c 2,14,-1
 247 621 l 1,15,-1
 210 396 l 1,16,-1
 486 396 l 2,17,18
 508 396 508 396 519.5 387.5 c 128,-1,19
 531 379 531 379 531 362 c 0,20,21
 531 339 531 339 518 325.5 c 128,-1,22
 505 312 505 312 481 312 c 2,23,-1
 197 312 l 1,24,-1
 155 44 l 2,25,26
 147 -7 147 -7 100 -7 c 0,0,1
EndSplineSet
EndChar

StartChar: G
Encoding: 71 71 74
Width: 731
GlyphClass: 2
Flags: W
AnchorPoint: "Anchor-2" 385 0 basechar 0
AnchorPoint: "Anchor-0" 443 705 basechar 0
LayerCount: 2
Fore
SplineSet
394 -9 m 0,0,1
 296 -9 296 -9 224 26 c 128,-1,2
 152 61 152 61 112.5 130 c 128,-1,3
 73 199 73 199 73 299 c 0,4,5
 73 391 73 391 99 466.5 c 128,-1,6
 125 542 125 542 174 598 c 128,-1,7
 223 654 223 654 293 684 c 128,-1,8
 363 714 363 714 452 714 c 0,9,10
 515 714 515 714 569.5 698 c 128,-1,11
 624 682 624 682 663 652 c 0,12,13
 679 641 679 641 683.5 626 c 128,-1,14
 688 611 688 611 684 596.5 c 128,-1,15
 680 582 680 582 670 572 c 128,-1,16
 660 562 660 562 646 560.5 c 128,-1,17
 632 559 632 559 616 570 c 0,18,19
 581 598 581 598 538.5 610.5 c 128,-1,20
 496 623 496 623 446 623 c 0,21,22
 363 623 363 623 304 582 c 128,-1,23
 245 541 245 541 213.5 469 c 128,-1,24
 182 397 182 397 182 303 c 0,25,26
 182 190 182 190 240 135.5 c 128,-1,27
 298 81 298 81 407 81 c 0,28,29
 452 81 452 81 491.5 89 c 128,-1,30
 531 97 531 97 567 110 c 1,31,-1
 539 62 l 1,32,-1
 577 295 l 1,33,-1
 448 295 l 2,34,35
 428 295 428 295 416 304 c 128,-1,36
 404 313 404 313 404 329 c 0,37,38
 404 350 404 350 417.5 361.5 c 128,-1,39
 431 373 431 373 453 373 c 2,40,-1
 625 373 l 2,41,42
 649 373 649 373 660.5 360 c 128,-1,43
 672 347 672 347 668 323 c 2,44,-1
 629 71 l 2,45,46
 625 52 625 52 616.5 40.5 c 128,-1,47
 608 29 608 29 590 22 c 0,48,49
 551 7 551 7 498 -1 c 128,-1,50
 445 -9 445 -9 394 -9 c 0,0,1
EndSplineSet
EndChar

StartChar: H
Encoding: 72 72 81
Width: 767
GlyphClass: 2
Flags: W
AnchorPoint: "Anchor-5" 433 557 basechar 0
AnchorPoint: "Anchor-2" 351 0 basechar 0
AnchorPoint: "Anchor-0" 455 705 basechar 0
LayerCount: 2
Fore
SplineSet
96 -7 m 256,0,1
 70 -7 70 -7 59 9 c 128,-1,2
 48 25 48 25 52 54 c 2,3,-1
 149 661 l 2,4,5
 153 686 153 686 167 699 c 128,-1,6
 181 712 181 712 207 712 c 256,7,8
 233 712 233 712 244 696 c 128,-1,9
 255 680 255 680 250 651 c 2,10,-1
 210 401 l 1,11,-1
 606 401 l 1,12,-1
 647 661 l 2,13,14
 651 686 651 686 665 699 c 128,-1,15
 679 712 679 712 705 712 c 256,16,17
 731 712 731 712 742 696.5 c 128,-1,18
 753 681 753 681 748 651 c 2,19,-1
 652 45 l 2,20,21
 649 20 649 20 635 6.5 c 128,-1,22
 621 -7 621 -7 595 -7 c 0,23,24
 568 -7 568 -7 557 9 c 128,-1,25
 546 25 546 25 551 54 c 2,26,-1
 592 314 l 1,27,-1
 197 314 l 1,28,-1
 154 45 l 2,29,30
 150 20 150 20 136 6.5 c 128,-1,31
 122 -7 122 -7 96 -7 c 256,0,1
EndSplineSet
EndChar

StartChar: Hbar
Encoding: 294 294 82
Width: 807
GlyphClass: 1
Flags: W
LayerCount: 2
Fore
SplineSet
117 -7 m 0,0,1
 92 -7 92 -7 80 9 c 128,-1,2
 68 25 68 25 72 54 c 2,3,-1
 148 535 l 1,4,-1
 164 516 l 1,5,-1
 98 516 l 2,6,7
 55 516 55 516 55 547 c 0,8,9
 55 569 55 569 68 581 c 128,-1,10
 81 593 81 593 103 593 c 2,11,-1
 178 593 l 1,12,-1
 154 570 l 1,13,-1
 168 661 l 2,14,15
 173 686 173 686 187 699 c 128,-1,16
 201 712 201 712 227 712 c 0,17,18
 251 712 251 712 263 696.5 c 128,-1,19
 275 681 275 681 271 653 c 2,20,-1
 256 563 l 1,21,-1
 238 593 l 1,22,-1
 676 593 l 1,23,-1
 650 565 l 1,24,-1
 666 661 l 2,25,26
 670 687 670 687 685 699.5 c 128,-1,27
 700 712 700 712 725 712 c 0,28,29
 749 712 749 712 760.5 696.5 c 128,-1,30
 772 681 772 681 768 653 c 2,31,-1
 754 560 l 1,32,-1
 739 593 l 1,33,-1
 806 593 l 2,34,35
 848 593 848 593 848 562 c 0,36,37
 848 540 848 540 835 528 c 128,-1,38
 822 516 822 516 801 516 c 2,39,-1
 726 516 l 1,40,-1
 749 539 l 1,41,-1
 671 45 l 2,42,43
 668 20 668 20 654 6.5 c 128,-1,44
 640 -7 640 -7 614 -7 c 0,45,46
 589 -7 589 -7 577 9 c 128,-1,47
 565 25 565 25 570 54 c 2,48,-1
 610 307 l 1,49,-1
 216 307 l 1,50,-1
 174 45 l 2,51,52
 170 20 170 20 156.5 6.5 c 128,-1,53
 143 -7 143 -7 117 -7 c 0,0,1
229 394 m 1,54,-1
 624 394 l 1,55,-1
 644 516 l 1,56,-1
 248 516 l 1,57,-1
 229 394 l 1,54,-1
EndSplineSet
EndChar

StartChar: I
Encoding: 73 73 86
Width: 268
GlyphClass: 2
Flags: W
AnchorPoint: "Anchor-3" 127 0 basechar 0
AnchorPoint: "Anchor-2" 95 0 basechar 0
AnchorPoint: "Anchor-0" 207 705 basechar 0
LayerCount: 2
Fore
SplineSet
97 -7 m 0,0,1
 70 -7 70 -7 59 9 c 128,-1,2
 48 25 48 25 52 54 c 2,3,-1
 149 661 l 2,4,5
 153 686 153 686 167 699 c 128,-1,6
 181 712 181 712 207 712 c 256,7,8
 233 712 233 712 244 696.5 c 128,-1,9
 255 681 255 681 250 651 c 2,10,-1
 154 45 l 2,11,12
 150 20 150 20 136.5 6.5 c 128,-1,13
 123 -7 123 -7 97 -7 c 0,0,1
EndSplineSet
EndChar

StartChar: Iogonek
Encoding: 302 302 100
Width: 268
GlyphClass: 1
Flags: W
LayerCount: 2
Fore
SplineSet
91 -194 m 0,0,1
 40 -194 40 -194 14.5 -168 c 128,-1,2
 -11 -142 -11 -142 -11 -103 c 256,3,4
 -11 -64 -11 -64 8 -33.5 c 128,-1,5
 27 -3 27 -3 62 19 c 1,6,-1
 64 3 l 1,7,8
 56 11 56 11 52.5 24 c 128,-1,9
 49 37 49 37 52 54 c 2,10,-1
 149 661 l 2,11,12
 153 686 153 686 167 699 c 128,-1,13
 181 712 181 712 207 712 c 256,14,15
 233 712 233 712 244 696.5 c 128,-1,16
 255 681 255 681 250 651 c 2,17,-1
 154 45 l 2,18,19
 151 26 151 26 143 14 c 128,-1,20
 135 2 135 2 121 -4 c 0,21,22
 90 -17 90 -17 73 -38.5 c 128,-1,23
 56 -60 56 -60 56 -86 c 0,24,25
 56 -108 56 -108 70 -122 c 128,-1,26
 84 -136 84 -136 108 -136 c 0,27,28
 117 -136 117 -136 125.5 -134.5 c 128,-1,29
 134 -133 134 -133 144 -130 c 0,30,31
 158 -126 158 -126 165.5 -131.5 c 128,-1,32
 173 -137 173 -137 174.5 -148 c 128,-1,33
 176 -159 176 -159 171.5 -169 c 128,-1,34
 167 -179 167 -179 157 -183 c 0,35,36
 142 -188 142 -188 124.5 -191 c 128,-1,37
 107 -194 107 -194 91 -194 c 0,0,1
EndSplineSet
EndChar

StartChar: J
Encoding: 74 74 102
Width: 338
GlyphClass: 2
Flags: W
AnchorPoint: "Anchor-2" 166 0 basechar 0
AnchorPoint: "Anchor-0" 276 705 basechar 0
LayerCount: 2
Fore
SplineSet
3 -7 m 2,0,1
 -20 -8 -20 -8 -33.5 3 c 128,-1,2
 -47 14 -47 14 -46 35 c 256,3,4
 -45 56 -45 56 -35 67 c 128,-1,5
 -25 78 -25 78 -4 79 c 2,6,-1
 27 81 l 2,7,8
 78 85 78 85 107 114.5 c 128,-1,9
 136 144 136 144 145 201 c 2,10,-1
 219 664 l 2,11,12
 223 689 223 689 236.5 700.5 c 128,-1,13
 250 712 250 712 275 712 c 256,14,15
 300 712 300 712 312 697 c 128,-1,16
 324 682 324 682 320 655 c 2,17,-1
 246 191 l 2,18,19
 237 131 237 131 212.5 89 c 128,-1,20
 188 47 188 47 144.5 24 c 128,-1,21
 101 1 101 1 34 -4 c 2,22,-1
 3 -7 l 2,0,1
EndSplineSet
EndChar

StartChar: K
Encoding: 75 75 104
Width: 643
GlyphClass: 2
Flags: W
AnchorPoint: "Anchor-2" 292 0 basechar 0
AnchorPoint: "Anchor-0" 396 705 basechar 0
LayerCount: 2
Fore
SplineSet
96 -7 m 0,0,1
 71 -7 71 -7 59 8.5 c 128,-1,2
 47 24 47 24 52 53 c 2,3,-1
 149 662 l 2,4,5
 153 687 153 687 167.5 699.5 c 128,-1,6
 182 712 182 712 207 712 c 256,7,8
 232 712 232 712 243 696.5 c 128,-1,9
 254 681 254 681 250 653 c 2,10,-1
 208 388 l 1,11,-1
 210 388 l 1,12,-1
 565 688 l 2,13,14
 580 701 580 701 590.5 706.5 c 128,-1,15
 601 712 601 712 617 712 c 0,16,17
 637 712 637 712 649 700 c 128,-1,18
 661 688 661 688 660.5 671 c 128,-1,19
 660 654 660 654 644 640 c 2,20,-1
 283 335 l 1,21,-1
 282 386 l 1,22,-1
 571 63 l 2,23,24
 585 48 585 48 583.5 32 c 128,-1,25
 582 16 582 16 570 4.5 c 128,-1,26
 558 -7 558 -7 537 -7 c 0,27,28
 519 -7 519 -7 507.5 1 c 128,-1,29
 496 9 496 9 480 26 c 2,30,-1
 201 332 l 1,31,-1
 199 332 l 1,32,-1
 154 43 l 2,33,34
 150 18 150 18 136 5.5 c 128,-1,35
 122 -7 122 -7 96 -7 c 0,0,1
EndSplineSet
EndChar

StartChar: L
Encoding: 76 76 106
Width: 552
GlyphClass: 2
Flags: W
AnchorPoint: "Anchor-5" 200 387 basechar 0
AnchorPoint: "Anchor-2" 271 0 basechar 0
AnchorPoint: "Anchor-1" 370 705 basechar 0
AnchorPoint: "Anchor-0" 207 705 basechar 0
LayerCount: 2
Fore
SplineSet
101 0 m 2,0,1
 74 0 74 0 61.5 15 c 128,-1,2
 49 30 49 30 53 57 c 2,3,-1
 150 665 l 2,4,5
 154 689 154 689 167.5 700.5 c 128,-1,6
 181 712 181 712 205 712 c 0,7,8
 231 712 231 712 243 697 c 128,-1,9
 255 682 255 682 251 656 c 2,10,-1
 162 89 l 1,11,-1
 463 89 l 2,12,13
 486 89 486 89 498.5 79.5 c 128,-1,14
 511 70 511 70 511 53 c 0,15,16
 511 27 511 27 496.5 13.5 c 128,-1,17
 482 0 482 0 458 0 c 2,18,-1
 101 0 l 2,0,1
EndSplineSet
EndChar

StartChar: M
Encoding: 77 77 116
Width: 862
GlyphClass: 2
Flags: W
AnchorPoint: "Anchor-2" 399 0 basechar 0
AnchorPoint: "Anchor-0" 505 705 basechar 0
LayerCount: 2
Fore
SplineSet
96 -4 m 0,0,1
 72 -4 72 -4 61.5 10 c 128,-1,2
 51 24 51 24 54 49 c 2,3,-1
 152 668 l 2,4,5
 156 691 156 691 168.5 701.5 c 128,-1,6
 181 712 181 712 203 712 c 0,7,8
 223 712 223 712 234 703.5 c 128,-1,9
 245 695 245 695 253 674 c 2,10,-1
 432 189 l 1,11,-1
 404 189 l 1,12,-1
 745 682 l 2,13,14
 757 698 757 698 769.5 705 c 128,-1,15
 782 712 782 712 802 712 c 0,16,17
 825 712 825 712 836 698 c 128,-1,18
 847 684 847 684 843 660 c 2,19,-1
 744 41 l 2,20,21
 741 19 741 19 729 7.5 c 128,-1,22
 717 -4 717 -4 694 -4 c 256,23,24
 671 -4 671 -4 660 10 c 128,-1,25
 649 24 649 24 652 49 c 2,26,-1
 733 561 l 1,27,-1
 756 561 l 1,28,-1
 454 125 l 2,29,30
 445 111 445 111 435.5 105.5 c 128,-1,31
 426 100 426 100 412 100 c 0,32,33
 395 100 395 100 385.5 108 c 128,-1,34
 376 116 376 116 370 132 c 2,35,-1
 207 559 l 1,36,-1
 228 559 l 1,37,-1
 146 41 l 2,38,39
 143 19 143 19 130.5 7.5 c 128,-1,40
 118 -4 118 -4 96 -4 c 0,0,1
EndSplineSet
EndChar

StartChar: N
Encoding: 78 78 118
Width: 743
GlyphClass: 2
Flags: W
AnchorPoint: "Anchor-2" 344 0 basechar 0
AnchorPoint: "Anchor-0" 444 705 basechar 0
LayerCount: 2
Fore
SplineSet
93 -7 m 0,0,1
 71 -7 71 -7 59.5 8 c 128,-1,2
 48 23 48 23 52 50 c 2,3,-1
 150 668 l 2,4,5
 154 691 154 691 167 701.5 c 128,-1,6
 180 712 180 712 198 712 c 0,7,8
 218 712 218 712 228.5 704.5 c 128,-1,9
 239 697 239 697 249 680 c 2,10,-1
 569 130 l 1,11,-1
 547 130 l 1,12,-1
 631 665 l 2,13,14
 635 689 635 689 649 700.5 c 128,-1,15
 663 712 663 712 687 712 c 0,16,17
 709 712 709 712 719 697 c 128,-1,18
 729 682 729 682 725 656 c 2,19,-1
 627 38 l 2,20,21
 624 15 624 15 613 4 c 128,-1,22
 602 -7 602 -7 583 -7 c 0,23,24
 563 -7 563 -7 551 1 c 128,-1,25
 539 9 539 9 528 27 c 2,26,-1
 208 575 l 1,27,-1
 230 575 l 1,28,-1
 146 40 l 2,29,30
 143 16 143 16 130.5 4.5 c 128,-1,31
 118 -7 118 -7 93 -7 c 0,0,1
EndSplineSet
EndChar

StartChar: Eng
Encoding: 330 330 128
Width: 743
GlyphClass: 2
Flags: W
AnchorPoint: "Anchor-2" 333 0 basechar 0
AnchorPoint: "Anchor-0" 444 705 basechar 0
LayerCount: 2
Fore
SplineSet
411 -191 m 0,0,1
 394 -191 394 -191 384.5 -183.5 c 128,-1,2
 375 -176 375 -176 371.5 -165 c 128,-1,3
 368 -154 368 -154 370.5 -142 c 128,-1,4
 373 -130 373 -130 382.5 -122.5 c 128,-1,5
 392 -115 392 -115 407 -114 c 0,6,7
 454 -112 454 -112 485 -88 c 128,-1,8
 516 -64 516 -64 524 -11 c 2,9,-1
 532 41 l 1,10,-1
 544 0 l 1,11,-1
 208 575 l 1,12,-1
 230 575 l 1,13,-1
 146 40 l 2,14,15
 143 16 143 16 130.5 4.5 c 128,-1,16
 118 -7 118 -7 93 -7 c 0,17,18
 71 -7 71 -7 59.5 8 c 128,-1,19
 48 23 48 23 52 50 c 2,20,-1
 150 668 l 2,21,22
 154 691 154 691 167 701.5 c 128,-1,23
 180 712 180 712 198 712 c 0,24,25
 218 712 218 712 228.5 704.5 c 128,-1,26
 239 697 239 697 249 680 c 2,27,-1
 569 130 l 1,28,-1
 547 130 l 1,29,-1
 631 665 l 2,30,31
 635 689 635 689 648.5 700.5 c 128,-1,32
 662 712 662 712 686 712 c 0,33,34
 709 712 709 712 719 697 c 128,-1,35
 729 682 729 682 725 656 c 2,36,-1
 621 -3 l 2,37,38
 606 -98 606 -98 554.5 -144.5 c 128,-1,39
 503 -191 503 -191 411 -191 c 0,0,1
EndSplineSet
EndChar

StartChar: O
Encoding: 79 79 129
Width: 775
GlyphClass: 2
Flags: W
AnchorPoint: "Anchor-5" 405 353 basechar 0
AnchorPoint: "Anchor-3" 420 0 basechar 0
AnchorPoint: "Anchor-2" 359 0 basechar 0
AnchorPoint: "Anchor-1" 503 705 basechar 0
AnchorPoint: "Anchor-0" 449 705 basechar 0
LayerCount: 2
Fore
SplineSet
374 -9 m 0,0,1
 283 -9 283 -9 215.5 26 c 128,-1,2
 148 61 148 61 110.5 130 c 128,-1,3
 73 199 73 199 73 296 c 0,4,5
 73 386 73 386 97.5 462 c 128,-1,6
 122 538 122 538 169 595 c 128,-1,7
 216 652 216 652 283 683 c 128,-1,8
 350 714 350 714 436 714 c 0,9,10
 528 714 528 714 595.5 679 c 128,-1,11
 663 644 663 644 700 575.5 c 128,-1,12
 737 507 737 507 737 410 c 0,13,14
 737 319 737 319 712.5 243 c 128,-1,15
 688 167 688 167 641 110 c 128,-1,16
 594 53 594 53 527 22 c 128,-1,17
 460 -9 460 -9 374 -9 c 0,0,1
376 81 m 0,18,19
 458 81 458 81 514 123.5 c 128,-1,20
 570 166 570 166 599 240 c 128,-1,21
 628 314 628 314 628 408 c 0,22,23
 628 518 628 518 576.5 571 c 128,-1,24
 525 624 525 624 433 624 c 0,25,26
 352 624 352 624 296 582 c 128,-1,27
 240 540 240 540 211 466 c 128,-1,28
 182 392 182 392 182 298 c 0,29,30
 182 187 182 187 234 134 c 128,-1,31
 286 81 286 81 376 81 c 0,18,19
EndSplineSet
Substitution2: "Single Substitution lookup 29 subtable" ordmasculine
Substitution2: "'aalt' Access All Alternates lookup 0 subtable" ordmasculine
EndChar

StartChar: OE
Encoding: 338 338 163
Width: 1051
GlyphClass: 2
Flags: W
AnchorPoint: "Anchor-2" 555 0 basechar 0
AnchorPoint: "Anchor-0" 667 705 basechar 0
LayerCount: 2
Fore
SplineSet
415 0 m 2,0,1
 251 0 251 0 163 78.5 c 128,-1,2
 75 157 75 157 74 298 c 0,3,4
 74 385 74 385 98 459 c 128,-1,5
 122 533 122 533 172 588.5 c 128,-1,6
 222 644 222 644 298.5 674.5 c 128,-1,7
 375 705 375 705 478 705 c 2,8,-1
 1029 705 l 2,9,10
 1051 705 1051 705 1062.5 696.5 c 128,-1,11
 1074 688 1074 688 1074 672 c 0,12,13
 1074 647 1074 647 1060 634 c 128,-1,14
 1046 621 1046 621 1025 621 c 2,15,-1
 704 621 l 1,16,-1
 669 400 l 1,17,-1
 962 400 l 2,18,19
 983 400 983 400 994 391.5 c 128,-1,20
 1005 383 1005 383 1005 366 c 0,21,22
 1005 342 1005 342 991.5 329 c 128,-1,23
 978 316 978 316 956 316 c 2,24,-1
 656 316 l 1,25,-1
 619 84 l 1,26,-1
 932 84 l 2,27,28
 953 84 953 84 964.5 75.5 c 128,-1,29
 976 67 976 67 976 50 c 0,30,31
 976 26 976 26 962.5 13 c 128,-1,32
 949 0 949 0 927 0 c 2,33,-1
 415 0 l 2,0,1
416 87 m 2,34,-1
 520 87 l 1,35,-1
 605 618 l 1,36,-1
 476 618 l 2,37,38
 397 618 397 618 341.5 594 c 128,-1,39
 286 570 286 570 250.5 526 c 128,-1,40
 215 482 215 482 198.5 424 c 128,-1,41
 182 366 182 366 182 299 c 0,42,43
 182 196 182 196 241 141.5 c 128,-1,44
 300 87 300 87 416 87 c 2,34,-1
EndSplineSet
EndChar

StartChar: P
Encoding: 80 80 164
Width: 642
GlyphClass: 2
Flags: W
AnchorPoint: "Anchor-2" 289 0 basechar 0
AnchorPoint: "Anchor-0" 400 705 basechar 0
LayerCount: 2
Fore
SplineSet
97 -7 m 256,0,1
 72 -7 72 -7 60.5 9 c 128,-1,2
 49 25 49 25 52 53 c 2,3,-1
 148 654 l 2,4,5
 152 680 152 680 167 692.5 c 128,-1,6
 182 705 182 705 207 705 c 2,7,-1
 419 705 l 2,8,9
 531 705 531 705 591 656 c 128,-1,10
 651 607 651 607 651 512 c 0,11,12
 651 402 651 402 582 338 c 128,-1,13
 513 274 513 274 381 274 c 2,14,-1
 190 274 l 1,15,-1
 154 44 l 2,16,17
 150 18 150 18 136 5.5 c 128,-1,18
 122 -7 122 -7 97 -7 c 256,0,1
204 357 m 1,19,-1
 387 357 l 2,20,21
 467 357 467 357 508.5 395 c 128,-1,22
 550 433 550 433 550 505 c 0,23,24
 550 565 550 565 514.5 593.5 c 128,-1,25
 479 622 479 622 408 622 c 2,26,-1
 246 622 l 1,27,-1
 204 357 l 1,19,-1
EndSplineSet
EndChar

StartChar: Thorn
Encoding: 222 222 165
Width: 643
GlyphClass: 2
Flags: W
AnchorPoint: "Anchor-2" 290 0 basechar 0
AnchorPoint: "Anchor-0" 401 705 basechar 0
LayerCount: 2
Fore
SplineSet
95 -7 m 0,0,1
 70 -7 70 -7 59 9 c 128,-1,2
 48 25 48 25 52 54 c 2,3,-1
 148 657 l 2,4,5
 152 683 152 683 167 696 c 128,-1,6
 182 709 182 709 208 709 c 0,7,8
 232 709 232 709 244 696 c 128,-1,9
 256 683 256 683 252 661 c 2,10,-1
 239 582 l 1,11,-1
 400 582 l 2,12,13
 512 582 512 582 572 533 c 128,-1,14
 632 484 632 484 632 390 c 0,15,16
 632 279 632 279 562.5 215 c 128,-1,17
 493 151 493 151 362 151 c 2,18,-1
 171 151 l 1,19,-1
 154 44 l 2,20,21
 150 19 150 19 135.5 6 c 128,-1,22
 121 -7 121 -7 95 -7 c 0,0,1
184 234 m 1,23,-1
 368 234 l 2,24,25
 448 234 448 234 490 272 c 128,-1,26
 532 310 532 310 532 382 c 0,27,28
 532 443 532 443 496 471 c 128,-1,29
 460 499 460 499 390 499 c 2,30,-1
 226 499 l 1,31,-1
 184 234 l 1,23,-1
EndSplineSet
EndChar

StartChar: Q
Encoding: 81 81 166
Width: 775
GlyphClass: 2
Flags: W
AnchorPoint: "Anchor-5" 405 353 basechar 0
AnchorPoint: "Anchor-3" 420 0 basechar 0
AnchorPoint: "Anchor-2" 359 0 basechar 0
AnchorPoint: "Anchor-1" 503 705 basechar 0
AnchorPoint: "Anchor-0" 449 705 basechar 0
LayerCount: 2
Fore
SplineSet
601 -130 m 2,0,1
 611 -150 611 -150 607 -165 c 128,-1,2
 603 -180 603 -180 591.5 -189 c 128,-1,3
 580 -198 580 -198 565 -199.5 c 128,-1,4
 550 -201 550 -201 536 -193.5 c 128,-1,5
 522 -186 522 -186 513 -167 c 2,6,-1
 467 -66 l 2,7,8
 454 -37 454 -37 429 -23 c 128,-1,9
 404 -9 404 -9 361 -9 c 1,10,-1
 448 24 l 1,11,12
 490 23 490 23 517.5 7 c 128,-1,13
 545 -9 545 -9 565 -52 c 2,14,-1
 601 -130 l 2,0,1
374 -9 m 0,15,16
 283 -9 283 -9 215.5 26 c 128,-1,17
 148 61 148 61 110.5 130 c 128,-1,18
 73 199 73 199 73 296 c 0,19,20
 73 386 73 386 97.5 462 c 128,-1,21
 122 538 122 538 169 595 c 128,-1,22
 216 652 216 652 283 683 c 128,-1,23
 350 714 350 714 436 714 c 0,24,25
 528 714 528 714 595.5 679 c 128,-1,26
 663 644 663 644 700 575.5 c 128,-1,27
 737 507 737 507 737 410 c 0,28,29
 737 319 737 319 712.5 243 c 128,-1,30
 688 167 688 167 641 110 c 128,-1,31
 594 53 594 53 527 22 c 128,-1,32
 460 -9 460 -9 374 -9 c 0,15,16
376 81 m 0,33,34
 458 81 458 81 514 123.5 c 128,-1,35
 570 166 570 166 599 240 c 128,-1,36
 628 314 628 314 628 408 c 0,37,38
 628 518 628 518 576.5 571 c 128,-1,39
 525 624 525 624 433 624 c 0,40,41
 352 624 352 624 296 582 c 128,-1,42
 240 540 240 540 211 466 c 128,-1,43
 182 392 182 392 182 298 c 0,44,45
 182 187 182 187 234 134 c 128,-1,46
 286 81 286 81 376 81 c 0,33,34
EndSplineSet
EndChar

StartChar: R
Encoding: 82 82 167
Width: 677
GlyphClass: 2
Flags: W
AnchorPoint: "Anchor-2" 313 0 basechar 0
AnchorPoint: "Anchor-0" 404 705 basechar 0
LayerCount: 2
Fore
SplineSet
95 -7 m 0,0,1
 71 -7 71 -7 59.5 9 c 128,-1,2
 48 25 48 25 53 54 c 2,3,-1
 148 653 l 2,4,5
 152 679 152 679 167 692 c 128,-1,6
 182 705 182 705 208 705 c 2,7,-1
 418 705 l 2,8,9
 533 705 533 705 592 653.5 c 128,-1,10
 651 602 651 602 651 513 c 0,11,12
 651 439 651 439 617 390 c 128,-1,13
 583 341 583 341 524 317 c 128,-1,14
 465 293 465 293 389 294 c 1,15,-1
 389 308 l 1,16,-1
 410 308 l 2,17,18
 455 308 455 308 484 282 c 128,-1,19
 513 256 513 256 531 210 c 2,20,-1
 588 60 l 2,21,22
 596 39 596 39 594 24 c 128,-1,23
 592 9 592 9 580.5 1 c 128,-1,24
 569 -7 569 -7 547 -7 c 0,25,26
 526 -7 526 -7 513.5 3.5 c 128,-1,27
 501 14 501 14 492 38 c 2,28,-1
 424 217 l 2,29,30
 409 257 409 257 384.5 274 c 128,-1,31
 360 291 360 291 315 291 c 2,32,-1
 193 291 l 1,33,-1
 155 44 l 2,34,35
 151 19 151 19 136 6 c 128,-1,36
 121 -7 121 -7 95 -7 c 0,0,1
206 369 m 1,37,-1
 392 369 l 2,38,39
 467 369 467 369 508.5 404.5 c 128,-1,40
 550 440 550 440 550 505 c 0,41,42
 550 564 550 564 515 593 c 128,-1,43
 480 622 480 622 405 622 c 2,44,-1
 246 622 l 1,45,-1
 206 369 l 1,37,-1
EndSplineSet
EndChar

StartChar: S
Encoding: 83 83 175
Width: 622
GlyphClass: 2
Flags: W
AnchorPoint: "Anchor-2" 297 0 basechar 0
AnchorPoint: "Anchor-0" 374 705 basechar 0
LayerCount: 2
Fore
SplineSet
299 -9 m 0,0,1
 255 -9 255 -9 212 -3 c 128,-1,2
 169 3 169 3 129 17.5 c 128,-1,3
 89 32 89 32 55 55 c 0,4,5
 40 64 40 64 34.5 78 c 128,-1,6
 29 92 29 92 32 105.5 c 128,-1,7
 35 119 35 119 44 129 c 128,-1,8
 53 139 53 139 67.5 141 c 128,-1,9
 82 143 82 143 99 133 c 0,10,11
 147 103 147 103 199.5 91 c 128,-1,12
 252 79 252 79 308 79 c 0,13,14
 383 79 383 79 428.5 109.5 c 128,-1,15
 474 140 474 140 474 192 c 0,16,17
 474 229 474 229 447 255 c 128,-1,18
 420 281 420 281 354 295 c 2,19,-1
 248 321 l 2,20,21
 177 338 177 338 134.5 380.5 c 128,-1,22
 92 423 92 423 92 498 c 0,23,24
 92 548 92 548 113 588 c 128,-1,25
 134 628 134 628 172 656.5 c 128,-1,26
 210 685 210 685 259 699.5 c 128,-1,27
 308 714 308 714 363 714 c 0,28,29
 419 714 419 714 479.5 698.5 c 128,-1,30
 540 683 540 683 587 647 c 0,31,32
 601 637 601 637 605.5 623 c 128,-1,33
 610 609 610 609 607 595.5 c 128,-1,34
 604 582 604 582 595 573.5 c 128,-1,35
 586 565 586 565 571.5 564 c 128,-1,36
 557 563 557 563 537 575 c 0,37,38
 500 601 500 601 453.5 613.5 c 128,-1,39
 407 626 407 626 361 626 c 0,40,41
 313 626 313 626 275.5 611 c 128,-1,42
 238 596 238 596 216.5 569.5 c 128,-1,43
 195 543 195 543 195 506 c 0,44,45
 195 461 195 461 219 439 c 128,-1,46
 243 417 243 417 290 405 c 2,47,-1
 396 379 l 2,48,49
 488 358 488 358 532.5 313 c 128,-1,50
 577 268 577 268 577 204 c 0,51,52
 577 151 577 151 555 111 c 128,-1,53
 533 71 533 71 494.5 44.5 c 128,-1,54
 456 18 456 18 406 4.5 c 128,-1,55
 356 -9 356 -9 299 -9 c 0,0,1
EndSplineSet
EndChar

StartChar: uni1E9E
Encoding: 7838 7838 186
Width: 720
GlyphClass: 1
Flags: W
LayerCount: 2
Fore
SplineSet
409 -9 m 0,0,1
 364 -9 364 -9 320.5 3 c 128,-1,2
 277 15 277 15 243 37 c 0,3,4
 230 46 230 46 225.5 58.5 c 128,-1,5
 221 71 221 71 224.5 83.5 c 128,-1,6
 228 96 228 96 236.5 105 c 128,-1,7
 245 114 245 114 257.5 116.5 c 128,-1,8
 270 119 270 119 284 110 c 0,9,10
 314 92 314 92 345 84 c 128,-1,11
 376 76 376 76 408 76 c 0,12,13
 479 76 479 76 516.5 111 c 128,-1,14
 554 146 554 146 554 208 c 0,15,16
 554 257 554 257 520 284.5 c 128,-1,17
 486 312 486 312 418 312 c 2,18,-1
 337 312 l 2,19,20
 321 312 321 312 311 321 c 128,-1,21
 301 330 301 330 301 345 c 0,22,23
 301 369 301 369 312.5 382 c 128,-1,24
 324 395 324 395 345 395 c 2,25,-1
 422 395 l 2,26,27
 489 395 489 395 528.5 427 c 128,-1,28
 568 459 568 459 568 522 c 0,29,30
 568 569 568 569 530 598.5 c 128,-1,31
 492 628 492 628 421 628 c 0,32,33
 330 628 330 628 281.5 585.5 c 128,-1,34
 233 543 233 543 219 454 c 2,35,-1
 153 42 l 2,36,37
 150 18 150 18 136 5.5 c 128,-1,38
 122 -7 122 -7 96 -7 c 0,39,40
 72 -7 72 -7 60 8 c 128,-1,41
 48 23 48 23 52 50 c 2,42,-1
 117 464 l 2,43,44
 132 553 132 553 171.5 608 c 128,-1,45
 211 663 211 663 275.5 688.5 c 128,-1,46
 340 714 340 714 430 714 c 0,47,48
 507 714 507 714 560.5 690.5 c 128,-1,49
 614 667 614 667 641.5 626 c 128,-1,50
 669 585 669 585 669 534 c 0,51,52
 669 462 669 462 624.5 413 c 128,-1,53
 580 364 580 364 511 350 c 1,54,-1
 511 366 l 1,55,56
 557 358 557 358 588.5 335 c 128,-1,57
 620 312 620 312 637 277 c 128,-1,58
 654 242 654 242 654 201 c 0,59,60
 654 139 654 139 626.5 91.5 c 128,-1,61
 599 44 599 44 544 17.5 c 128,-1,62
 489 -9 489 -9 409 -9 c 0,0,1
EndSplineSet
EndChar

StartChar: T
Encoding: 84 84 187
Width: 611
GlyphClass: 2
Flags: W
AnchorPoint: "Anchor-5" 324 358 basechar 0
AnchorPoint: "Anchor-2" 268 0 basechar 0
AnchorPoint: "Anchor-0" 377 705 basechar 0
LayerCount: 2
Fore
SplineSet
268 -7 m 256,0,1
 243 -7 243 -7 231.5 9 c 128,-1,2
 220 25 220 25 224 53 c 2,3,-1
 313 618 l 1,4,-1
 110 618 l 2,5,6
 88 618 88 618 75.5 627.5 c 128,-1,7
 63 637 63 637 63 654 c 0,8,9
 63 678 63 678 77.5 691.5 c 128,-1,10
 92 705 92 705 115 705 c 2,11,-1
 634 705 l 2,12,13
 657 705 657 705 669 696 c 128,-1,14
 681 687 681 687 681 670 c 0,15,16
 681 645 681 645 667 631.5 c 128,-1,17
 653 618 653 618 629 618 c 2,18,-1
 417 618 l 1,19,-1
 326 44 l 2,20,21
 322 19 322 19 307.5 6 c 128,-1,22
 293 -7 293 -7 268 -7 c 256,0,1
EndSplineSet
EndChar

StartChar: U
Encoding: 85 85 194
Width: 733
GlyphClass: 2
Flags: W
AnchorPoint: "Anchor-3" 396 0 basechar 0
AnchorPoint: "Anchor-2" 328 0 basechar 0
AnchorPoint: "Anchor-1" 646 705 basechar 0
AnchorPoint: "Anchor-0" 439 705 basechar 0
LayerCount: 2
Fore
SplineSet
338 -9 m 0,0,1
 271 -9 271 -9 219 10 c 128,-1,2
 167 29 167 29 133 68 c 128,-1,3
 99 107 99 107 86.5 165.5 c 128,-1,4
 74 224 74 224 87 302 c 2,5,-1
 144 664 l 2,6,7
 148 689 148 689 162.5 700.5 c 128,-1,8
 177 712 177 712 201 712 c 0,9,10
 227 712 227 712 238.5 697.5 c 128,-1,11
 250 683 250 683 246 655 c 2,12,-1
 189 293 l 2,13,14
 172 188 172 188 211.5 134.5 c 128,-1,15
 251 81 251 81 344 81 c 0,16,17
 435 81 435 81 487.5 127 c 128,-1,18
 540 173 540 173 556 275 c 2,19,-1
 618 664 l 2,20,21
 622 689 622 689 636.5 700.5 c 128,-1,22
 651 712 651 712 675 712 c 0,23,24
 700 712 700 712 711.5 697.5 c 128,-1,25
 723 683 723 683 719 655 c 2,26,-1
 659 274 l 2,27,28
 644 181 644 181 605 118 c 128,-1,29
 566 55 566 55 500 23 c 128,-1,30
 434 -9 434 -9 338 -9 c 0,0,1
EndSplineSet
EndChar

StartChar: V
Encoding: 86 86 217
Width: 699
GlyphClass: 2
Flags: W
AnchorPoint: "Anchor-2" 311 0 basechar 0
AnchorPoint: "Anchor-0" 422 705 basechar 0
LayerCount: 2
Fore
SplineSet
312 -7 m 0,0,1
 289 -7 289 -7 275 5 c 128,-1,2
 261 17 261 17 255 40 c 2,3,-1
 86 641 l 2,4,5
 81 661 81 661 85.5 675 c 128,-1,6
 90 689 90 689 102 697 c 128,-1,7
 114 705 114 705 131 705 c 0,8,9
 151 705 151 705 163.5 695 c 128,-1,10
 176 685 176 685 183 659 c 2,11,-1
 338 88 l 1,12,-1
 300 88 l 1,13,-1
 642 668 l 2,14,15
 654 688 654 688 667 696.5 c 128,-1,16
 680 705 680 705 700 705 c 0,17,18
 721 705 721 705 733 695.5 c 128,-1,19
 745 686 745 686 746.5 670.5 c 128,-1,20
 748 655 748 655 737 638 c 2,21,-1
 374 31 l 2,22,23
 362 11 362 11 348 2 c 128,-1,24
 334 -7 334 -7 312 -7 c 0,0,1
EndSplineSet
EndChar

StartChar: W
Encoding: 87 87 218
Width: 1107
GlyphClass: 2
Flags: W
AnchorPoint: "Anchor-2" 515 0 basechar 0
AnchorPoint: "Anchor-0" 624 705 basechar 0
LayerCount: 2
Fore
SplineSet
278 -7 m 0,0,1
 257 -7 257 -7 244.5 5.5 c 128,-1,2
 232 18 232 18 227 42 c 2,3,-1
 110 650 l 2,4,5
 104 679 104 679 117.5 695.5 c 128,-1,6
 131 712 131 712 158 712 c 0,7,8
 178 712 178 712 190.5 700.5 c 128,-1,9
 203 689 203 689 207 664 c 2,10,-1
 311 96 l 1,11,-1
 273 96 l 1,12,-1
 566 673 l 2,13,14
 577 693 577 693 590.5 702.5 c 128,-1,15
 604 712 604 712 624 712 c 0,16,17
 642 712 642 712 653.5 700 c 128,-1,18
 665 688 665 688 670 662 c 2,19,-1
 774 96 l 1,20,-1
 741 96 l 1,21,-1
 1032 674 l 2,22,23
 1041 694 1041 694 1053.5 703 c 128,-1,24
 1066 712 1066 712 1086 712 c 0,25,26
 1116 712 1116 712 1126.5 692.5 c 128,-1,27
 1137 673 1137 673 1123 645 c 2,28,-1
 810 32 l 2,29,30
 800 12 800 12 785.5 2.5 c 128,-1,31
 771 -7 771 -7 749 -7 c 256,32,33
 727 -7 727 -7 714.5 5.5 c 128,-1,34
 702 18 702 18 697 42 c 2,35,-1
 596 579 l 1,36,-1
 618 579 l 1,37,-1
 339 32 l 2,38,39
 329 12 329 12 315 2.5 c 128,-1,40
 301 -7 301 -7 278 -7 c 0,0,1
EndSplineSet
EndChar

StartChar: X
Encoding: 88 88 223
Width: 660
GlyphClass: 2
Flags: W
AnchorPoint: "Anchor-2" 292 0 basechar 0
AnchorPoint: "Anchor-0" 403 705 basechar 0
LayerCount: 2
Fore
SplineSet
54 -7 m 0,0,1
 34 -7 34 -7 22 4.5 c 128,-1,2
 10 16 10 16 10 33.5 c 128,-1,3
 10 51 10 51 25 68 c 2,4,-1
 303 381 l 1,5,-1
 303 339 l 1,6,-1
 127 639 l 2,7,8
 116 658 116 658 118 674.5 c 128,-1,9
 120 691 120 691 133 701.5 c 128,-1,10
 146 712 146 712 166 712 c 0,11,12
 185 712 185 712 195.5 703.5 c 128,-1,13
 206 695 206 695 219 674 c 2,14,-1
 367 413 l 1,15,-1
 343 413 l 1,16,-1
 573 681 l 2,17,18
 588 698 588 698 601 705 c 128,-1,19
 614 712 614 712 631 712 c 0,20,21
 651 712 651 712 663.5 701 c 128,-1,22
 676 690 676 690 676.5 673 c 128,-1,23
 677 656 677 656 662 638 c 2,24,-1
 394 336 l 1,25,-1
 394 383 l 1,26,-1
 580 67 l 2,27,28
 592 49 592 49 589 31.5 c 128,-1,29
 586 14 586 14 573.5 3.5 c 128,-1,30
 561 -7 561 -7 540 -7 c 0,31,32
 521 -7 521 -7 510.5 1.5 c 128,-1,33
 500 10 500 10 487 31 c 2,34,-1
 327 308 l 1,35,-1
 358 308 l 1,36,-1
 112 24 l 2,37,38
 97 7 97 7 84.5 0 c 128,-1,39
 72 -7 72 -7 54 -7 c 0,0,1
EndSplineSet
EndChar

StartChar: Y
Encoding: 89 89 224
Width: 606
GlyphClass: 2
Flags: W
AnchorPoint: "Anchor-2" 264 0 basechar 0
AnchorPoint: "Anchor-0" 367 705 basechar 0
LayerCount: 2
Fore
SplineSet
263 -7 m 0,0,1
 238 -7 238 -7 227.5 9 c 128,-1,2
 217 25 217 25 221 53 c 2,3,-1
 270 364 l 1,4,-1
 281 298 l 1,5,-1
 92 638 l 2,6,7
 81 658 81 658 82.5 674.5 c 128,-1,8
 84 691 84 691 96.5 701.5 c 128,-1,9
 109 712 109 712 130 712 c 0,10,11
 149 712 149 712 160.5 703.5 c 128,-1,12
 172 695 172 695 184 674 c 2,13,-1
 334 403 l 1,14,-1
 310 403 l 1,15,-1
 553 681 l 2,16,17
 568 699 568 699 580.5 705.5 c 128,-1,18
 593 712 593 712 611 712 c 0,19,20
 630 712 630 712 642 701 c 128,-1,21
 654 690 654 690 654 673 c 128,-1,22
 654 656 654 656 639 638 c 2,23,-1
 340 298 l 1,24,-1
 373 364 l 1,25,-1
 322 44 l 2,26,27
 314 -7 314 -7 263 -7 c 0,0,1
EndSplineSet
EndChar

StartChar: uni01B3
Encoding: 435 435 231
Width: 616
GlyphClass: 1
Flags: W
LayerCount: 2
Fore
SplineSet
264 -7 m 0,0,1
 238 -7 238 -7 227 8.5 c 128,-1,2
 216 24 216 24 220 52 c 2,3,-1
 270 364 l 1,4,-1
 281 298 l 1,5,-1
 91 639 l 2,6,7
 80 658 80 658 82.5 674.5 c 128,-1,8
 85 691 85 691 98 701.5 c 128,-1,9
 111 712 111 712 131 712 c 0,10,11
 143 712 143 712 152 708.5 c 128,-1,12
 161 705 161 705 168.5 697 c 128,-1,13
 176 689 176 689 184 674 c 2,14,-1
 334 403 l 1,15,-1
 310 403 l 1,16,-1
 510 630 l 2,17,18
 538 662 538 662 562.5 680 c 128,-1,19
 587 698 587 698 614 706 c 128,-1,20
 641 714 641 714 673 714 c 0,21,22
 706 714 706 714 724 706 c 128,-1,23
 742 698 742 698 742 674 c 0,24,25
 742 664 742 664 737 654.5 c 128,-1,26
 732 645 732 645 725 639.5 c 128,-1,27
 718 634 718 634 712 635 c 0,28,29
 708 635 708 635 698.5 636 c 128,-1,30
 689 637 689 637 682 637 c 0,31,32
 660 637 660 637 638.5 625 c 128,-1,33
 617 613 617 613 593 586 c 2,34,-1
 340 298 l 1,35,-1
 373 364 l 1,36,-1
 323 45 l 2,37,38
 314 -7 314 -7 264 -7 c 0,0,1
EndSplineSet
EndChar

StartChar: Z
Encoding: 90 90 235
Width: 596
GlyphClass: 2
Flags: W
AnchorPoint: "Anchor-2" 282 0 basechar 0
AnchorPoint: "Anchor-0" 372 705 basechar 0
LayerCount: 2
Fore
SplineSet
59 0 m 2,0,1
 42 0 42 0 31 8.5 c 128,-1,2
 20 17 20 17 16.5 31 c 128,-1,3
 13 45 13 45 18.5 63 c 128,-1,4
 24 81 24 81 41 100 c 2,5,-1
 521 653 l 1,6,-1
 523 618 l 1,7,-1
 152 618 l 2,8,9
 130 618 130 618 118 627.5 c 128,-1,10
 106 637 106 637 106 654 c 0,11,12
 106 679 106 679 120.5 692 c 128,-1,13
 135 705 135 705 158 705 c 2,14,-1
 579 705 l 2,15,16
 600 705 600 705 612 696.5 c 128,-1,17
 624 688 624 688 627.5 674 c 128,-1,18
 631 660 631 660 625 642.5 c 128,-1,19
 619 625 619 625 602 607 c 2,20,-1
 121 52 l 1,21,-1
 119 87 l 1,22,-1
 505 87 l 2,23,24
 527 87 527 87 539 78.5 c 128,-1,25
 551 70 551 70 551 52 c 0,26,27
 551 27 551 27 537 13.5 c 128,-1,28
 523 0 523 0 499 0 c 2,29,-1
 59 0 l 2,0,1
EndSplineSet
EndChar

StartChar: a
Encoding: 97 97 242
Width: 537
GlyphClass: 2
Flags: W
AnchorPoint: "Anchor-3" 406 0 basechar 0
AnchorPoint: "Anchor-2" 239 -1 basechar 0
AnchorPoint: "Anchor-0" 307 484 basechar 0
LayerCount: 2
Fore
SplineSet
196 -9 m 0,0,1
 153 -9 153 -9 116 10.5 c 128,-1,2
 79 30 79 30 57 63.5 c 128,-1,3
 35 97 35 97 35 139 c 0,4,5
 35 191 35 191 63.5 223 c 128,-1,6
 92 255 92 255 153 270.5 c 128,-1,7
 214 286 214 286 310 286 c 2,8,-1
 390 286 l 1,9,-1
 381 224 l 1,10,-1
 319 224 l 2,11,12
 250 224 250 224 209.5 217 c 128,-1,13
 169 210 169 210 152 192.5 c 128,-1,14
 135 175 135 175 135 145 c 0,15,16
 135 105 135 105 161.5 84 c 128,-1,17
 188 63 188 63 225 63 c 0,18,19
 259 63 259 63 288 78 c 128,-1,20
 317 93 317 93 337.5 121.5 c 128,-1,21
 358 150 358 150 364 190 c 2,22,-1
 383 310 l 2,23,24
 392 363 392 363 368.5 391 c 128,-1,25
 345 419 345 419 285 419 c 0,26,27
 250 419 250 419 217.5 412 c 128,-1,28
 185 405 185 405 152 388 c 0,29,30
 137 380 137 380 124 382.5 c 128,-1,31
 111 385 111 385 103 393.5 c 128,-1,32
 95 402 95 402 94 414 c 128,-1,33
 93 426 93 426 100.5 438 c 128,-1,34
 108 450 108 450 126 459 c 0,35,36
 166 479 166 479 211 488 c 128,-1,37
 256 497 256 497 297 497 c 0,38,39
 370 497 370 497 412.5 470 c 128,-1,40
 455 443 455 443 470.5 395 c 128,-1,41
 486 347 486 347 476 284 c 2,42,-1
 438 43 l 2,43,44
 435 18 435 18 420.5 5.5 c 128,-1,45
 406 -7 406 -7 383 -7 c 0,46,47
 361 -7 361 -7 350 7.5 c 128,-1,48
 339 22 339 22 343 49 c 2,49,-1
 354 122 l 1,50,-1
 362 107 l 1,51,52
 349 68 349 68 322.5 41.5 c 128,-1,53
 296 15 296 15 263.5 3 c 128,-1,54
 231 -9 231 -9 196 -9 c 0,0,1
EndSplineSet
Substitution2: "'ss01' Style Set 1 lookup 35 subtable" a.ss01
Substitution2: "'salt' Stylistic Alternatives lookup 34 subtable" a.ss01
Substitution2: "Single Substitution lookup 29 subtable" ordfeminine
AlternateSubs2: "'aalt' Access All Alternates lookup 1 subtable" a.ss01 ordfeminine
EndChar

StartChar: aogonek
Encoding: 261 261 265
Width: 537
GlyphClass: 1
Flags: W
LayerCount: 2
Fore
SplineSet
369 -194 m 0,0,1
 318 -194 318 -194 292.5 -168 c 128,-1,2
 267 -142 267 -142 267 -103 c 0,3,4
 267 -61 267 -61 289 -28.5 c 128,-1,5
 311 4 311 4 351 26 c 1,6,-1
 346 14 l 1,7,8
 343 21 343 21 342.5 30 c 128,-1,9
 342 39 342 39 343 49 c 2,10,-1
 354 122 l 1,11,-1
 362 107 l 1,12,13
 349 68 349 68 322.5 41.5 c 128,-1,14
 296 15 296 15 263.5 3 c 128,-1,15
 231 -9 231 -9 196 -9 c 0,16,17
 153 -9 153 -9 116 10.5 c 128,-1,18
 79 30 79 30 57 63.5 c 128,-1,19
 35 97 35 97 35 139 c 0,20,21
 35 191 35 191 63.5 223 c 128,-1,22
 92 255 92 255 153 270.5 c 128,-1,23
 214 286 214 286 310 286 c 2,24,-1
 390 286 l 1,25,-1
 381 224 l 1,26,-1
 319 224 l 2,27,28
 250 224 250 224 209.5 217 c 128,-1,29
 169 210 169 210 152 192.5 c 128,-1,30
 135 175 135 175 135 145 c 0,31,32
 135 105 135 105 161.5 84 c 128,-1,33
 188 63 188 63 225 63 c 0,34,35
 259 63 259 63 288 78 c 128,-1,36
 317 93 317 93 337.5 121.5 c 128,-1,37
 358 150 358 150 364 190 c 2,38,-1
 383 310 l 2,39,40
 392 363 392 363 368.5 391 c 128,-1,41
 345 419 345 419 285 419 c 0,42,43
 250 419 250 419 217.5 412 c 128,-1,44
 185 405 185 405 152 388 c 0,45,46
 137 380 137 380 124 382.5 c 128,-1,47
 111 385 111 385 103 393.5 c 128,-1,48
 95 402 95 402 94 414 c 128,-1,49
 93 426 93 426 100.5 438 c 128,-1,50
 108 450 108 450 126 459 c 0,51,52
 166 479 166 479 211 488 c 128,-1,53
 256 497 256 497 297 497 c 0,54,55
 370 497 370 497 412.5 470 c 128,-1,56
 455 443 455 443 470.5 395 c 128,-1,57
 486 347 486 347 476 284 c 2,58,-1
 438 43 l 2,59,60
 435 23 435 23 425 11 c 128,-1,61
 415 -1 415 -1 399 -6 c 0,62,63
 367 -18 367 -18 351 -39 c 128,-1,64
 335 -60 335 -60 335 -86 c 0,65,66
 335 -108 335 -108 348.5 -122 c 128,-1,67
 362 -136 362 -136 387 -136 c 0,68,69
 395 -136 395 -136 403.5 -134.5 c 128,-1,70
 412 -133 412 -133 422 -130 c 0,71,72
 436 -126 436 -126 443.5 -131.5 c 128,-1,73
 451 -137 451 -137 452.5 -148 c 128,-1,74
 454 -159 454 -159 449.5 -169 c 128,-1,75
 445 -179 445 -179 435 -183 c 0,76,77
 421 -188 421 -188 403 -191 c 128,-1,78
 385 -194 385 -194 369 -194 c 0,0,1
EndSplineSet
Substitution2: "'ss01' Style Set 1 lookup 35 subtable" aogonek.ss01
Substitution2: "'salt' Stylistic Alternatives lookup 34 subtable" aogonek.ss01
Substitution2: "'aalt' Access All Alternates lookup 0 subtable" aogonek.ss01
EndChar

StartChar: ae
Encoding: 230 230 269
Width: 863
GlyphClass: 2
Flags: W
AnchorPoint: "Anchor-2" 376 0 basechar 0
AnchorPoint: "Anchor-0" 440 484 basechar 0
LayerCount: 2
Fore
SplineSet
212 -9 m 0,0,1
 166 -9 166 -9 125.5 8 c 128,-1,2
 85 25 85 25 60 58.5 c 128,-1,3
 35 92 35 92 35 139 c 0,4,5
 35 191 35 191 63.5 223 c 128,-1,6
 92 255 92 255 153 270 c 128,-1,7
 214 285 214 285 310 285 c 2,8,-1
 390 285 l 1,9,-1
 381 223 l 1,10,-1
 319 223 l 2,11,12
 251 223 251 223 210.5 216 c 128,-1,13
 170 209 170 209 152.5 191.5 c 128,-1,14
 135 174 135 174 135 145 c 0,15,16
 135 106 135 106 161.5 85 c 128,-1,17
 188 64 188 64 225 64 c 0,18,19
 259 64 259 64 288.5 78 c 128,-1,20
 318 92 318 92 338 118.5 c 128,-1,21
 358 145 358 145 364 184 c 2,22,-1
 383 304 l 2,23,24
 393 361 393 361 369 390 c 128,-1,25
 345 419 345 419 285 419 c 0,26,27
 250 419 250 419 217.5 412 c 128,-1,28
 185 405 185 405 152 388 c 0,29,30
 137 380 137 380 124 382.5 c 128,-1,31
 111 385 111 385 103 393.5 c 128,-1,32
 95 402 95 402 94 414 c 128,-1,33
 93 426 93 426 100.5 438 c 128,-1,34
 108 450 108 450 126 459 c 0,35,36
 166 479 166 479 211 488 c 128,-1,37
 256 497 256 497 297 497 c 0,38,39
 366 497 366 497 407.5 468 c 128,-1,40
 449 439 449 439 461 385 c 1,41,-1
 430 385 l 1,42,43
 462 436 462 436 513 466.5 c 128,-1,44
 564 497 564 497 631 497 c 0,45,46
 693 497 693 497 733.5 475.5 c 128,-1,47
 774 454 774 454 796.5 418.5 c 128,-1,48
 819 383 819 383 826 341 c 128,-1,49
 833 299 833 299 827 258 c 2,50,-1
 825 245 l 2,51,52
 824 234 824 234 816 228.5 c 128,-1,53
 808 223 808 223 797 223 c 2,54,-1
 446 223 l 1,55,-1
 455 285 l 1,56,-1
 761 285 l 1,57,-1
 744 269 l 1,58,59
 750 312 750 312 741 347.5 c 128,-1,60
 732 383 732 383 705 404.5 c 128,-1,61
 678 426 678 426 630 426 c 256,62,63
 582 426 582 426 549 403.5 c 128,-1,64
 516 381 516 381 497.5 346 c 128,-1,65
 479 311 479 311 472 272 c 2,66,-1
 468 245 l 2,67,68
 455 164 455 164 492.5 116.5 c 128,-1,69
 530 69 530 69 607 69 c 0,70,71
 640 69 640 69 673 76.5 c 128,-1,72
 706 84 706 84 734 103 c 0,73,74
 750 112 750 112 762.5 111.5 c 128,-1,75
 775 111 775 111 782.5 103 c 128,-1,76
 790 95 790 95 791.5 83.5 c 128,-1,77
 793 72 793 72 788 59.5 c 128,-1,78
 783 47 783 47 769 38 c 0,79,80
 734 14 734 14 687 2.5 c 128,-1,81
 640 -9 640 -9 599 -9 c 0,82,83
 515 -9 515 -9 460.5 29.5 c 128,-1,84
 406 68 406 68 389 137 c 1,85,-1
 415 137 l 1,86,87
 393 62 393 62 336.5 26.5 c 128,-1,88
 280 -9 280 -9 212 -9 c 0,0,1
EndSplineSet
EndChar

StartChar: b
Encoding: 98 98 271
Width: 591
GlyphClass: 2
Flags: W
AnchorPoint: "Anchor-2" 269 0 basechar 0
AnchorPoint: "Anchor-0" 382 705 basechar 0
LayerCount: 2
Fore
SplineSet
306 -9 m 0,0,1
 248 -9 248 -9 203.5 19 c 128,-1,2
 159 47 159 47 142 104 c 1,3,-1
 150 122 l 1,4,-1
 138 43 l 2,5,6
 135 19 135 19 121.5 6 c 128,-1,7
 108 -7 108 -7 83 -7 c 0,8,9
 59 -7 59 -7 47.5 8.5 c 128,-1,10
 36 24 36 24 40 52 c 2,11,-1
 137 662 l 2,12,13
 141 687 141 687 155.5 699.5 c 128,-1,14
 170 712 170 712 195 712 c 0,15,16
 219 712 219 712 230 697 c 128,-1,17
 241 682 241 682 237 653 c 2,18,-1
 195 389 l 1,19,-1
 184 389 l 1,20,21
 211 440 211 440 257 468.5 c 128,-1,22
 303 497 303 497 364 497 c 0,23,24
 420 497 420 497 462 471.5 c 128,-1,25
 504 446 504 446 527 399 c 128,-1,26
 550 352 550 352 550 287 c 0,27,28
 550 206 550 206 521.5 138.5 c 128,-1,29
 493 71 493 71 438 31 c 128,-1,30
 383 -9 383 -9 306 -9 c 0,0,1
290 69 m 0,31,32
 341 69 341 69 376 98 c 128,-1,33
 411 127 411 127 429.5 175.5 c 128,-1,34
 448 224 448 224 448 283 c 0,35,36
 448 349 448 349 416 383.5 c 128,-1,37
 384 418 384 418 328 418 c 0,38,39
 278 418 278 418 242.5 389.5 c 128,-1,40
 207 361 207 361 188 312.5 c 128,-1,41
 169 264 169 264 169 204 c 0,42,43
 169 139 169 139 201 104 c 128,-1,44
 233 69 233 69 290 69 c 0,31,32
EndSplineSet
EndChar

StartChar: uni0253
Encoding: 595 595 272
Width: 591
GlyphClass: 1
Flags: W
LayerCount: 2
Fore
SplineSet
306 -9 m 0,0,1
 248 -9 248 -9 203.5 19 c 128,-1,2
 159 47 159 47 142 104 c 1,3,-1
 150 122 l 1,4,-1
 137 43 l 2,5,6
 133 18 133 18 120.5 5.5 c 128,-1,7
 108 -7 108 -7 83 -7 c 0,8,9
 59 -7 59 -7 47.5 8.5 c 128,-1,10
 36 24 36 24 40 52 c 2,11,-1
 117 537 l 2,12,13
 132 629 132 629 180.5 671.5 c 128,-1,14
 229 714 229 714 319 714 c 0,15,16
 354 714 354 714 368 704 c 128,-1,17
 382 694 382 694 382 675 c 0,18,19
 382 657 382 657 373.5 644.5 c 128,-1,20
 365 632 365 632 352 632 c 0,21,22
 348 632 348 632 339.5 633 c 128,-1,23
 331 634 331 634 322 634 c 0,24,25
 280 634 280 634 253 609.5 c 128,-1,26
 226 585 226 585 218 535 c 2,27,-1
 195 389 l 1,28,-1
 184 389 l 1,29,30
 211 440 211 440 257 468.5 c 128,-1,31
 303 497 303 497 364 497 c 0,32,33
 420 497 420 497 462 471.5 c 128,-1,34
 504 446 504 446 527 399 c 128,-1,35
 550 352 550 352 550 287 c 0,36,37
 550 206 550 206 521.5 138.5 c 128,-1,38
 493 71 493 71 438 31 c 128,-1,39
 383 -9 383 -9 306 -9 c 0,0,1
290 69 m 0,40,41
 341 69 341 69 376 98 c 128,-1,42
 411 127 411 127 429.5 175.5 c 128,-1,43
 448 224 448 224 448 283 c 0,44,45
 448 349 448 349 416 383.5 c 128,-1,46
 384 418 384 418 328 418 c 0,47,48
 278 418 278 418 242.5 389.5 c 128,-1,49
 207 361 207 361 188 312.5 c 128,-1,50
 169 264 169 264 169 204 c 0,51,52
 169 139 169 139 201 104 c 128,-1,53
 233 69 233 69 290 69 c 0,40,41
EndSplineSet
EndChar

StartChar: c
Encoding: 99 99 273
Width: 467
GlyphClass: 2
Flags: W
AnchorPoint: "Anchor-2" 242 0 basechar 0
AnchorPoint: "Anchor-0" 306 484 basechar 0
LayerCount: 2
Fore
SplineSet
264 -9 m 0,0,1
 189 -9 189 -9 139.5 18.5 c 128,-1,2
 90 46 90 46 65.5 95.5 c 128,-1,3
 41 145 41 145 41 210 c 0,4,5
 41 264 41 264 57 315.5 c 128,-1,6
 73 367 73 367 105.5 407.5 c 128,-1,7
 138 448 138 448 189 472.5 c 128,-1,8
 240 497 240 497 309 497 c 0,9,10
 346 497 346 497 381.5 487.5 c 128,-1,11
 417 478 417 478 443 462 c 0,12,13
 460 452 460 452 466.5 439.5 c 128,-1,14
 473 427 473 427 471 414.5 c 128,-1,15
 469 402 469 402 461.5 393 c 128,-1,16
 454 384 454 384 442 381.5 c 128,-1,17
 430 379 430 379 416 387 c 0,18,19
 392 403 392 403 367.5 410 c 128,-1,20
 343 417 343 417 314 417 c 0,21,22
 268 417 268 417 236 399.5 c 128,-1,23
 204 382 204 382 183.5 351.5 c 128,-1,24
 163 321 163 321 154 285 c 128,-1,25
 145 249 145 249 145 211 c 0,26,27
 145 147 145 147 175.5 109 c 128,-1,28
 206 71 206 71 277 71 c 0,29,30
 299 71 299 71 323 77 c 128,-1,31
 347 83 347 83 372 99 c 0,32,33
 384 105 384 105 395 103 c 128,-1,34
 406 101 406 101 414 92.5 c 128,-1,35
 422 84 422 84 424 73 c 128,-1,36
 426 62 426 62 421.5 50 c 128,-1,37
 417 38 417 38 402 29 c 0,38,39
 376 11 376 11 337 1 c 128,-1,40
 298 -9 298 -9 264 -9 c 0,0,1
EndSplineSet
EndChar

StartChar: d
Encoding: 100 100 280
Width: 591
GlyphClass: 2
Flags: W
AnchorPoint: "Anchor-5" 295 246 basechar 0
AnchorPoint: "Anchor-4" 475 586 basechar 0
AnchorPoint: "Anchor-2" 263 0 basechar 0
AnchorPoint: "Anchor-1" 637 705 basechar 0
AnchorPoint: "Anchor-0" 350 563 basechar 0
LayerCount: 2
Fore
SplineSet
226 -9 m 0,0,1
 170 -9 170 -9 128.5 16.5 c 128,-1,2
 87 42 87 42 63.5 89 c 128,-1,3
 40 136 40 136 40 200 c 0,4,5
 40 282 40 282 69 349.5 c 128,-1,6
 98 417 98 417 153 457 c 128,-1,7
 208 497 208 497 285 497 c 0,8,9
 343 497 343 497 387.5 468.5 c 128,-1,10
 432 440 432 440 449 383 c 1,11,-1
 442 384 l 1,12,-1
 486 664 l 2,13,14
 490 690 490 690 504.5 701 c 128,-1,15
 519 712 519 712 544 712 c 0,16,17
 567 712 567 712 578 697.5 c 128,-1,18
 589 683 589 683 585 655 c 2,19,-1
 488 44 l 2,20,21
 484 19 484 19 469.5 6 c 128,-1,22
 455 -7 455 -7 430 -7 c 0,23,24
 407 -7 407 -7 396.5 9 c 128,-1,25
 386 25 386 25 391 53 c 2,26,-1
 402 119 l 1,27,-1
 406 98 l 1,28,29
 379 49 379 49 333 20 c 128,-1,30
 287 -9 287 -9 226 -9 c 0,0,1
263 69 m 0,31,32
 314 69 314 69 349 98 c 128,-1,33
 384 127 384 127 402.5 175.5 c 128,-1,34
 421 224 421 224 421 283 c 0,35,36
 421 349 421 349 389 383.5 c 128,-1,37
 357 418 357 418 301 418 c 0,38,39
 250 418 250 418 215 389.5 c 128,-1,40
 180 361 180 361 161 312.5 c 128,-1,41
 142 264 142 264 142 204 c 0,42,43
 142 139 142 139 174 104 c 128,-1,44
 206 69 206 69 263 69 c 0,31,32
EndSplineSet
EndChar

StartChar: eth
Encoding: 240 240 281
Width: 569
GlyphClass: 1
Flags: W
LayerCount: 2
Fore
SplineSet
257 -9 m 0,0,1
 195 -9 195 -9 145 15.5 c 128,-1,2
 95 40 95 40 66.5 85.5 c 128,-1,3
 38 131 38 131 38 190 c 0,4,5
 38 268 38 268 70.5 326.5 c 128,-1,6
 103 385 103 385 160 418 c 128,-1,7
 217 451 217 451 288 451 c 0,8,9
 334 451 334 451 371.5 436 c 128,-1,10
 409 421 409 421 433.5 389 c 128,-1,11
 458 357 458 357 463 306 c 1,12,-1
 443 305 l 1,13,14
 449 396 449 396 419 468.5 c 128,-1,15
 389 541 389 541 328 587 c 1,16,-1
 345 585 l 1,17,-1
 205 524 l 2,18,19
 191 518 191 518 181 523 c 128,-1,20
 171 528 171 528 167 538 c 128,-1,21
 163 548 163 548 166.5 558.5 c 128,-1,22
 170 569 170 569 183 575 c 2,23,-1
 291 621 l 1,24,-1
 289 612 l 1,25,26
 274 622 274 622 255.5 629.5 c 128,-1,27
 237 637 237 637 217 643 c 0,28,29
 199 649 199 649 192 661.5 c 128,-1,30
 185 674 185 674 188.5 686.5 c 128,-1,31
 192 699 192 699 205 706 c 128,-1,32
 218 713 218 713 238 708 c 0,33,34
 278 697 278 697 312 682.5 c 128,-1,35
 346 668 346 668 374 649 c 1,36,-1
 356 650 l 1,37,-1
 486 707 l 2,38,39
 501 713 501 713 511.5 708.5 c 128,-1,40
 522 704 522 704 526 693.5 c 128,-1,41
 530 683 530 683 526 672.5 c 128,-1,42
 522 662 522 662 508 656 c 2,43,-1
 407 612 l 1,44,-1
 409 622 l 1,45,46
 453 584 453 584 480.5 536 c 128,-1,47
 508 488 508 488 521 432.5 c 128,-1,48
 534 377 534 377 534 316 c 0,49,50
 534 251 534 251 517 192 c 128,-1,51
 500 133 500 133 466 87.5 c 128,-1,52
 432 42 432 42 380 16.5 c 128,-1,53
 328 -9 328 -9 257 -9 c 0,0,1
265 71 m 0,54,55
 310 71 310 71 344.5 92 c 128,-1,56
 379 113 379 113 400 153.5 c 128,-1,57
 421 194 421 194 421 250 c 0,58,59
 421 308 421 308 388 340.5 c 128,-1,60
 355 373 355 373 296 373 c 0,61,62
 253 373 253 373 217.5 352 c 128,-1,63
 182 331 182 331 161 291 c 128,-1,64
 140 251 140 251 140 193 c 256,65,66
 140 135 140 135 173.5 103 c 128,-1,67
 207 71 207 71 265 71 c 0,54,55
EndSplineSet
EndChar

StartChar: dcroat
Encoding: 273 273 283
Width: 591
GlyphClass: 1
Flags: W
LayerCount: 2
Fore
SplineSet
226 -9 m 0,0,1
 170 -9 170 -9 128.5 16.5 c 128,-1,2
 87 42 87 42 63.5 89 c 128,-1,3
 40 136 40 136 40 200 c 0,4,5
 40 282 40 282 69 349.5 c 128,-1,6
 98 417 98 417 153 457 c 128,-1,7
 208 497 208 497 285 497 c 0,8,9
 343 497 343 497 387.5 468.5 c 128,-1,10
 432 440 432 440 449 383 c 1,11,-1
 441 384 l 1,12,-1
 468 549 l 1,13,-1
 317 549 l 2,14,15
 297 549 297 549 286.5 556.5 c 128,-1,16
 276 564 276 564 276 579 c 0,17,18
 276 599 276 599 288 610.5 c 128,-1,19
 300 622 300 622 321 622 c 2,20,-1
 499 622 l 1,21,-1
 473 581 l 1,22,-1
 486 663 l 2,23,24
 490 688 490 688 504.5 700 c 128,-1,25
 519 712 519 712 544 712 c 0,26,27
 567 712 567 712 578.5 698 c 128,-1,28
 590 684 590 684 585 656 c 2,29,-1
 573 581 l 1,30,-1
 559 622 l 1,31,-1
 629 622 l 2,32,33
 649 622 649 622 659.5 614.5 c 128,-1,34
 670 607 670 607 670 592 c 0,35,36
 670 572 670 572 657.5 560.5 c 128,-1,37
 645 549 645 549 624 549 c 2,38,-1
 568 549 l 1,39,-1
 488 44 l 2,40,41
 484 19 484 19 469.5 6 c 128,-1,42
 455 -7 455 -7 430 -7 c 0,43,44
 406 -7 406 -7 396 9 c 128,-1,45
 386 25 386 25 391 53 c 2,46,-1
 402 119 l 1,47,-1
 406 98 l 1,48,49
 379 49 379 49 333 20 c 128,-1,50
 287 -9 287 -9 226 -9 c 0,0,1
263 69 m 0,51,52
 314 69 314 69 349 98 c 128,-1,53
 384 127 384 127 402.5 175.5 c 128,-1,54
 421 224 421 224 421 283 c 0,55,56
 421 349 421 349 389 383.5 c 128,-1,57
 357 418 357 418 301 418 c 0,58,59
 250 418 250 418 215 389.5 c 128,-1,60
 180 361 180 361 161 312.5 c 128,-1,61
 142 264 142 264 142 204 c 0,62,63
 142 139 142 139 174 104 c 128,-1,64
 206 69 206 69 263 69 c 0,51,52
EndSplineSet
EndChar

StartChar: uni0257
Encoding: 599 599 285
Width: 591
GlyphClass: 1
Flags: W
LayerCount: 2
Fore
SplineSet
226 -9 m 0,0,1
 170 -9 170 -9 128.5 16.5 c 128,-1,2
 87 42 87 42 63.5 89 c 128,-1,3
 40 136 40 136 40 200 c 0,4,5
 40 282 40 282 69 349.5 c 128,-1,6
 98 417 98 417 153 457 c 128,-1,7
 208 497 208 497 285 497 c 0,8,9
 343 497 343 497 387.5 468.5 c 128,-1,10
 432 440 432 440 449 383 c 1,11,-1
 442 384 l 1,12,-1
 466 537 l 2,13,14
 481 629 481 629 529 671.5 c 128,-1,15
 577 714 577 714 666 714 c 0,16,17
 701 714 701 714 715.5 704 c 128,-1,18
 730 694 730 694 730 675 c 0,19,20
 730 657 730 657 721.5 644.5 c 128,-1,21
 713 632 713 632 699 632 c 0,22,23
 695 632 695 632 686.5 633 c 128,-1,24
 678 634 678 634 670 634 c 0,25,26
 627 634 627 634 600.5 609 c 128,-1,27
 574 584 574 584 566 535 c 2,28,-1
 488 44 l 2,29,30
 484 19 484 19 469.5 6 c 128,-1,31
 455 -7 455 -7 430 -7 c 0,32,33
 407 -7 407 -7 396.5 9 c 128,-1,34
 386 25 386 25 391 53 c 2,35,-1
 402 119 l 1,36,-1
 406 98 l 1,37,38
 379 49 379 49 333 20 c 128,-1,39
 287 -9 287 -9 226 -9 c 0,0,1
263 69 m 0,40,41
 314 69 314 69 349 98 c 128,-1,42
 384 127 384 127 402.5 175.5 c 128,-1,43
 421 224 421 224 421 283 c 0,44,45
 421 349 421 349 389 383.5 c 128,-1,46
 357 418 357 418 301 418 c 0,47,48
 250 418 250 418 215 389.5 c 128,-1,49
 180 361 180 361 161 312.5 c 128,-1,50
 142 264 142 264 142 204 c 0,51,52
 142 139 142 139 174 104 c 128,-1,53
 206 69 206 69 263 69 c 0,40,41
EndSplineSet
EndChar

StartChar: e
Encoding: 101 101 288
Width: 537
GlyphClass: 2
Flags: W
AnchorPoint: "Anchor-3" 329 0 basechar 0
AnchorPoint: "Anchor-2" 252 0 basechar 0
AnchorPoint: "Anchor-0" 316 484 basechar 0
LayerCount: 2
Fore
SplineSet
275 -9 m 0,0,1
 203 -9 203 -9 150.5 17.5 c 128,-1,2
 98 44 98 44 69.5 93 c 128,-1,3
 41 142 41 142 41 209 c 0,4,5
 41 289 41 289 74 354 c 128,-1,6
 107 419 107 419 166.5 458 c 128,-1,7
 226 497 226 497 305 497 c 0,8,9
 364 497 364 497 404 476.5 c 128,-1,10
 444 456 444 456 467 421 c 128,-1,11
 490 386 490 386 497.5 342 c 128,-1,12
 505 298 505 298 500 252 c 0,13,14
 498 233 498 233 490 227 c 128,-1,15
 482 221 482 221 467 221 c 2,16,-1
 121 221 l 1,17,-1
 129 283 l 1,18,-1
 436 283 l 1,19,-1
 418 269 l 1,20,21
 425 313 425 313 415.5 348 c 128,-1,22
 406 383 406 383 379 404.5 c 128,-1,23
 352 426 352 426 304 426 c 0,24,25
 255 426 255 426 221.5 403.5 c 128,-1,26
 188 381 188 381 169.5 346 c 128,-1,27
 151 311 151 311 144 272 c 2,28,-1
 140 245 l 2,29,30
 126 165 126 165 164.5 117 c 128,-1,31
 203 69 203 69 282 69 c 0,32,33
 315 69 315 69 348 77 c 128,-1,34
 381 85 381 85 409 103 c 0,35,36
 425 112 425 112 437.5 111.5 c 128,-1,37
 450 111 450 111 457.5 103 c 128,-1,38
 465 95 465 95 467 83.5 c 128,-1,39
 469 72 469 72 463.5 59.5 c 128,-1,40
 458 47 458 47 444 38 c 0,41,42
 410 14 410 14 363 2.5 c 128,-1,43
 316 -9 316 -9 275 -9 c 0,0,1
EndSplineSet
EndChar

StartChar: uni0259
Encoding: 601 601 311
Width: 537
GlyphClass: 1
Flags: W
LayerCount: 2
Fore
SplineSet
232 -9 m 0,0,1
 153 -9 153 -9 107 26.5 c 128,-1,2
 61 62 61 62 44.5 119 c 128,-1,3
 28 176 28 176 37 238 c 0,4,5
 40 255 40 255 48 260.5 c 128,-1,6
 56 266 56 266 70 266 c 2,7,-1
 417 266 l 1,8,-1
 407 204 l 1,9,-1
 101 204 l 1,10,-1
 124 219 l 1,11,12
 118 177 118 177 127 141.5 c 128,-1,13
 136 106 136 106 162.5 84 c 128,-1,14
 189 62 189 62 234 62 c 0,15,16
 284 62 284 62 317 84.5 c 128,-1,17
 350 107 350 107 368.5 142.5 c 128,-1,18
 387 178 387 178 392 216 c 2,19,-1
 397 243 l 2,20,21
 410 323 410 323 374 370.5 c 128,-1,22
 338 418 338 418 257 418 c 0,23,24
 223 418 223 418 189 409.5 c 128,-1,25
 155 401 155 401 127 383 c 0,26,27
 112 373 112 373 99.5 374 c 128,-1,28
 87 375 87 375 79 383 c 128,-1,29
 71 391 71 391 69 403 c 128,-1,30
 67 415 67 415 72.5 427 c 128,-1,31
 78 439 78 439 91 448 c 0,32,33
 125 473 125 473 173.5 485 c 128,-1,34
 222 497 222 497 265 497 c 0,35,36
 337 497 337 497 388.5 470 c 128,-1,37
 440 443 440 443 468 394.5 c 128,-1,38
 496 346 496 346 496 279 c 0,39,40
 496 199 496 199 463 133.5 c 128,-1,41
 430 68 430 68 371 29.5 c 128,-1,42
 312 -9 312 -9 232 -9 c 0,0,1
EndSplineSet
EndChar

StartChar: f
Encoding: 102 102 314
Width: 347
GlyphClass: 2
Flags: W
AnchorPoint: "Anchor-2" 112 0 basechar 0
AnchorPoint: "Anchor-0" 223 705 basechar 0
LayerCount: 2
Fore
SplineSet
111 -7 m 0,0,1
 88 -7 88 -7 77 8.5 c 128,-1,2
 66 24 66 24 70 52 c 2,3,-1
 127 410 l 1,4,-1
 76 410 l 2,5,6
 56 410 56 410 46 418.5 c 128,-1,7
 36 427 36 427 36 441 c 0,8,9
 36 463 36 463 49 475.5 c 128,-1,10
 62 488 62 488 83 488 c 2,11,-1
 151 488 l 1,12,-1
 137 475 l 1,13,-1
 144 519 l 2,14,15
 157 602 157 602 209.5 650.5 c 128,-1,16
 262 699 262 699 358 706 c 2,17,-1
 389 708 l 2,18,19
 406 709 406 709 415.5 702 c 128,-1,20
 425 695 425 695 428 683.5 c 128,-1,21
 431 672 431 672 428 660.5 c 128,-1,22
 425 649 425 649 417 640.5 c 128,-1,23
 409 632 409 632 397 631 c 2,24,-1
 368 629 l 2,25,26
 313 625 313 625 283 598 c 128,-1,27
 253 571 253 571 245 519 c 2,28,-1
 238 478 l 1,29,-1
 230 488 l 1,30,-1
 333 488 l 2,31,32
 353 488 353 488 363 480 c 128,-1,33
 373 472 373 472 373 457 c 0,34,35
 373 435 373 435 360 422.5 c 128,-1,36
 347 410 347 410 325 410 c 2,37,-1
 228 410 l 1,38,-1
 170 43 l 2,39,40
 161 -7 161 -7 111 -7 c 0,0,1
EndSplineSet
EndChar

StartChar: g
Encoding: 103 103 315
Width: 594
GlyphClass: 2
Flags: W
AnchorPoint: "Anchor-0" 332 484 basechar 0
LayerCount: 2
Fore
SplineSet
252 -189 m 0,0,1
 193 -189 193 -189 141 -174.5 c 128,-1,2
 89 -160 89 -160 49 -135 c 0,3,4
 35 -127 35 -127 30.5 -115 c 128,-1,5
 26 -103 26 -103 29 -91 c 128,-1,6
 32 -79 32 -79 40.5 -70.5 c 128,-1,7
 49 -62 49 -62 61.5 -60 c 128,-1,8
 74 -58 74 -58 89 -67 c 0,9,10
 122 -87 122 -87 159 -99 c 128,-1,11
 196 -111 196 -111 238 -111 c 0,12,13
 301 -111 301 -111 339.5 -81 c 128,-1,14
 378 -51 378 -51 389 14 c 2,15,-1
 406 119 l 1,16,-1
 414 118 l 1,17,18
 390 68 390 68 343 40 c 128,-1,19
 296 12 296 12 236 12 c 0,20,21
 177 12 177 12 133.5 36 c 128,-1,22
 90 60 90 60 65.5 105 c 128,-1,23
 41 150 41 150 41 212 c 0,24,25
 41 268 41 268 58 319.5 c 128,-1,26
 75 371 75 371 107 411 c 128,-1,27
 139 451 139 451 184.5 474 c 128,-1,28
 230 497 230 497 288 497 c 0,29,30
 347 497 347 497 392 468.5 c 128,-1,31
 437 440 437 440 454 383 c 1,32,-1
 443 363 l 1,33,-1
 456 446 l 2,34,35
 460 471 460 471 474.5 483 c 128,-1,36
 489 495 489 495 513 495 c 256,37,38
 537 495 537 495 547 479.5 c 128,-1,39
 557 464 557 464 553 436 c 2,40,-1
 487 19 l 2,41,42
 471 -84 471 -84 412.5 -136.5 c 128,-1,43
 354 -189 354 -189 252 -189 c 0,0,1
265 91 m 0,44,45
 317 91 317 91 353 119 c 128,-1,46
 389 147 389 147 407.5 193.5 c 128,-1,47
 426 240 426 240 426 293 c 0,48,49
 426 352 426 352 394 385 c 128,-1,50
 362 418 362 418 303 418 c 0,51,52
 252 418 252 418 216 390 c 128,-1,53
 180 362 180 362 161.5 316 c 128,-1,54
 143 270 143 270 143 217 c 0,55,56
 143 157 143 157 175 124 c 128,-1,57
 207 91 207 91 265 91 c 0,44,45
EndSplineSet
EndChar

StartChar: uni01E5
Encoding: 485 485 322
Width: 594
GlyphClass: 1
Flags: W
LayerCount: 2
Fore
SplineSet
252 -189 m 0,0,1
 193 -189 193 -189 141 -174.5 c 128,-1,2
 89 -160 89 -160 49 -135 c 0,3,4
 35 -127 35 -127 30.5 -115 c 128,-1,5
 26 -103 26 -103 29 -91 c 128,-1,6
 32 -79 32 -79 40.5 -70.5 c 128,-1,7
 49 -62 49 -62 61.5 -60 c 128,-1,8
 74 -58 74 -58 89 -67 c 0,9,10
 123 -87 123 -87 159.5 -99 c 128,-1,11
 196 -111 196 -111 239 -111 c 0,12,13
 284 -111 284 -111 316.5 -95 c 128,-1,14
 349 -79 349 -79 368 -48 c 1,15,-1
 372 -59 l 1,16,-1
 285 -59 l 2,17,18
 265 -59 265 -59 256.5 -49.5 c 128,-1,19
 248 -40 248 -40 248 -26 c 0,20,21
 248 -8 248 -8 260 -0.5 c 128,-1,22
 272 7 272 7 287 7 c 2,23,-1
 396 7 l 1,24,-1
 385 -6 l 1,25,26
 386 0 386 0 387.5 6.5 c 128,-1,27
 389 13 389 13 390 18 c 2,28,-1
 412 151 l 1,29,-1
 417 150 l 1,30,31
 393 99 393 99 344 69.5 c 128,-1,32
 295 40 295 40 233 40 c 0,33,34
 175 40 175 40 132 65 c 128,-1,35
 89 90 89 90 66 133 c 128,-1,36
 43 176 43 176 43 231 c 0,37,38
 43 285 43 285 61 333.5 c 128,-1,39
 79 382 79 382 112.5 418.5 c 128,-1,40
 146 455 146 455 191 476 c 128,-1,41
 236 497 236 497 292 497 c 0,42,43
 352 497 352 497 396.5 468.5 c 128,-1,44
 441 440 441 440 454 384 c 1,45,-1
 444 363 l 1,46,-1
 457 446 l 2,47,48
 461 471 461 471 475 483 c 128,-1,49
 489 495 489 495 514 495 c 0,50,51
 537 495 537 495 547.5 479.5 c 128,-1,52
 558 464 558 464 553 436 c 2,53,-1
 489 27 l 2,54,55
 488 19 488 19 486 11.5 c 128,-1,56
 484 4 484 4 482 -4 c 1,57,-1
 477 7 l 1,58,-1
 513 7 l 2,59,60
 533 7 533 7 541.5 -2 c 128,-1,61
 550 -11 550 -11 550 -25 c 0,62,63
 550 -41 550 -41 538 -50 c 128,-1,64
 526 -59 526 -59 511 -59 c 2,65,-1
 454 -59 l 1,66,-1
 471 -48 l 1,67,68
 443 -118 443 -118 390 -153.5 c 128,-1,69
 337 -189 337 -189 252 -189 c 0,0,1
267 118 m 0,70,71
 317 118 317 118 353 143 c 128,-1,72
 389 168 389 168 409.5 209.5 c 128,-1,73
 430 251 430 251 430 301 c 0,74,75
 430 356 430 356 398 387 c 128,-1,76
 366 418 366 418 308 418 c 0,77,78
 260 418 260 418 223 393.5 c 128,-1,79
 186 369 186 369 165.5 327.5 c 128,-1,80
 145 286 145 286 145 236 c 0,81,82
 145 182 145 182 177 150 c 128,-1,83
 209 118 209 118 267 118 c 0,70,71
EndSplineSet
EndChar

StartChar: h
Encoding: 104 104 323
Width: 576
GlyphClass: 2
Flags: W
AnchorPoint: "Anchor-5" 289 247 basechar 0
AnchorPoint: "Anchor-4" 226 586 basechar 0
AnchorPoint: "Anchor-2" 255 0 basechar 0
AnchorPoint: "Anchor-1" 278 705 basechar 0
AnchorPoint: "Anchor-0" 361 705 basechar 0
LayerCount: 2
Fore
SplineSet
82 -7 m 0,0,1
 58 -7 58 -7 47.5 9 c 128,-1,2
 37 25 37 25 41 53 c 2,3,-1
 137 662 l 2,4,5
 141 687 141 687 155.5 699.5 c 128,-1,6
 170 712 170 712 195 712 c 0,7,8
 218 712 218 712 229.5 697 c 128,-1,9
 241 682 241 682 237 654 c 2,10,-1
 194 382 l 1,11,-1
 183 382 l 1,12,13
 208 438 208 438 255.5 467.5 c 128,-1,14
 303 497 303 497 368 497 c 0,15,16
 422 497 422 497 458.5 475 c 128,-1,17
 495 453 495 453 510.5 408 c 128,-1,18
 526 363 526 363 515 294 c 2,19,-1
 476 43 l 2,20,21
 473 19 473 19 458 6 c 128,-1,22
 443 -7 443 -7 418 -7 c 0,23,24
 394 -7 394 -7 383 8.5 c 128,-1,25
 372 24 372 24 376 52 c 2,26,-1
 414 292 l 2,27,28
 424 355 424 355 404 385.5 c 128,-1,29
 384 416 384 416 332 416 c 0,30,31
 265 416 265 416 225.5 375 c 128,-1,32
 186 334 186 334 175 263 c 2,33,-1
 140 43 l 2,34,35
 133 -7 133 -7 82 -7 c 0,0,1
EndSplineSet
EndChar

StartChar: hbar
Encoding: 295 295 324
Width: 576
GlyphClass: 1
Flags: W
LayerCount: 2
Fore
SplineSet
82 -7 m 0,0,1
 58 -7 58 -7 47 8.5 c 128,-1,2
 36 24 36 24 40 52 c 2,3,-1
 119 549 l 1,4,-1
 70 549 l 2,5,6
 50 549 50 549 40 558 c 128,-1,7
 30 567 30 567 31 583 c 0,8,9
 35 622 35 622 76 622 c 2,10,-1
 156 622 l 1,11,-1
 126 587 l 1,12,-1
 137 662 l 2,13,14
 141 690 141 690 156 701 c 128,-1,15
 171 712 171 712 196 712 c 0,16,17
 219 712 219 712 231 699 c 128,-1,18
 243 686 243 686 237 656 c 2,19,-1
 225 581 l 1,20,-1
 211 622 l 1,21,-1
 380 622 l 2,22,23
 402 622 402 622 412.5 613.5 c 128,-1,24
 423 605 423 605 421 587 c 0,25,26
 416 549 416 549 376 549 c 2,27,-1
 220 549 l 1,28,-1
 194 382 l 1,29,-1
 183 382 l 1,30,31
 208 438 208 438 255.5 467.5 c 128,-1,32
 303 497 303 497 367 497 c 0,33,34
 421 497 421 497 458 475 c 128,-1,35
 495 453 495 453 510.5 408 c 128,-1,36
 526 363 526 363 515 294 c 2,37,-1
 476 43 l 2,38,39
 473 19 473 19 458 6 c 128,-1,40
 443 -7 443 -7 418 -7 c 0,41,42
 394 -7 394 -7 383 8.5 c 128,-1,43
 372 24 372 24 376 52 c 2,44,-1
 414 293 l 2,45,46
 424 355 424 355 404 385.5 c 128,-1,47
 384 416 384 416 331 416 c 0,48,49
 265 416 265 416 225.5 375 c 128,-1,50
 186 334 186 334 175 263 c 2,51,-1
 140 43 l 2,52,53
 133 -7 133 -7 82 -7 c 0,0,1
EndSplineSet
EndChar

StartChar: i
Encoding: 105 105 329
Width: 243
GlyphClass: 2
Flags: W
AnchorPoint: "Anchor-3" 115 0 basechar 0
AnchorPoint: "Anchor-2" 83 0 basechar 0
LayerCount: 2
Fore
SplineSet
81 -7 m 0,0,1
 58 -7 58 -7 47 8.5 c 128,-1,2
 36 24 36 24 40 52 c 2,3,-1
 103 445 l 2,4,5
 107 470 107 470 121.5 482.5 c 128,-1,6
 136 495 136 495 161 495 c 0,7,8
 184 495 184 495 195 479.5 c 128,-1,9
 206 464 206 464 202 436 c 2,10,-1
 139 43 l 2,11,12
 135 18 135 18 121 5.5 c 128,-1,13
 107 -7 107 -7 81 -7 c 0,0,1
178 597 m 0,14,15
 150 597 150 597 136 611 c 128,-1,16
 122 625 122 625 124 650 c 0,17,18
 127 680 127 680 146 695.5 c 128,-1,19
 165 711 165 711 196 711 c 0,20,21
 225 711 225 711 239 697 c 128,-1,22
 253 683 253 683 251 658 c 0,23,24
 248 628 248 628 229.5 612.5 c 128,-1,25
 211 597 211 597 178 597 c 0,14,15
EndSplineSet
Substitution2: "'locl' Localized Forms in Latin lookup 10 subtable" i.loclTRK
Substitution2: "Single Substitution lookup 4 subtable" dotlessi
Substitution2: "Single Substitution lookup 3 subtable" dotlessi
Substitution2: "'aalt' Access All Alternates lookup 0 subtable" i.loclTRK
EndChar

StartChar: dotlessi
Encoding: 305 305 330
Width: 243
GlyphClass: 2
Flags: W
AnchorPoint: "Anchor-3" 115 0 basechar 0
AnchorPoint: "Anchor-2" 83 0 basechar 0
AnchorPoint: "Anchor-0" 160 484 basechar 0
LayerCount: 2
Fore
SplineSet
81 -7 m 0,0,1
 58 -7 58 -7 47 8.5 c 128,-1,2
 36 24 36 24 40 52 c 2,3,-1
 103 445 l 2,4,5
 107 470 107 470 121.5 482.5 c 128,-1,6
 136 495 136 495 161 495 c 0,7,8
 184 495 184 495 195 479.5 c 128,-1,9
 206 464 206 464 202 436 c 2,10,-1
 139 43 l 2,11,12
 135 18 135 18 121 5.5 c 128,-1,13
 107 -7 107 -7 81 -7 c 0,0,1
EndSplineSet
EndChar

StartChar: iogonek
Encoding: 303 303 343
Width: 243
GlyphClass: 1
Flags: W
LayerCount: 2
Fore
SplineSet
78 -194 m 0,0,1
 27 -194 27 -194 1.5 -168 c 128,-1,2
 -24 -142 -24 -142 -24 -103 c 0,3,4
 -24 -60 -24 -60 -1.5 -29 c 128,-1,5
 21 2 21 2 54 22 c 1,6,-1
 48 6 l 1,7,8
 42 15 42 15 40 26.5 c 128,-1,9
 38 38 38 38 40 52 c 2,10,-1
 103 445 l 2,11,12
 107 470 107 470 121.5 482.5 c 128,-1,13
 136 495 136 495 161 495 c 0,14,15
 184 495 184 495 195 479.5 c 128,-1,16
 206 464 206 464 202 436 c 2,17,-1
 139 43 l 2,18,19
 137 26 137 26 129 14.5 c 128,-1,20
 121 3 121 3 106 -4 c 0,21,22
 76 -18 76 -18 60 -39 c 128,-1,23
 44 -60 44 -60 44 -86 c 0,24,25
 44 -108 44 -108 58 -122 c 128,-1,26
 72 -136 72 -136 96 -136 c 0,27,28
 104 -136 104 -136 112.5 -134.5 c 128,-1,29
 121 -133 121 -133 131 -130 c 0,30,31
 145 -126 145 -126 152.5 -131.5 c 128,-1,32
 160 -137 160 -137 161.5 -148 c 128,-1,33
 163 -159 163 -159 158.5 -169 c 128,-1,34
 154 -179 154 -179 144 -183 c 0,35,36
 130 -188 130 -188 112 -191 c 128,-1,37
 94 -194 94 -194 78 -194 c 0,0,1
178 597 m 0,38,39
 150 597 150 597 136 611 c 128,-1,40
 122 625 122 625 124 650 c 0,41,42
 127 680 127 680 146 695.5 c 128,-1,43
 165 711 165 711 196 711 c 0,44,45
 225 711 225 711 239 697 c 128,-1,46
 253 683 253 683 251 658 c 0,47,48
 248 628 248 628 229.5 612.5 c 128,-1,49
 211 597 211 597 178 597 c 0,38,39
EndSplineSet
EndChar

StartChar: j
Encoding: 106 106 345
Width: 246
GlyphClass: 1
Flags: W
LayerCount: 2
Fore
SplineSet
-74 -191 m 0,0,1
 -91 -192 -91 -192 -101 -184.5 c 128,-1,2
 -111 -177 -111 -177 -114.5 -165.5 c 128,-1,3
 -118 -154 -118 -154 -115 -142 c 128,-1,4
 -112 -130 -112 -130 -103 -122.5 c 128,-1,5
 -94 -115 -94 -115 -79 -114 c 0,6,7
 -32 -112 -32 -112 -3 -88 c 128,-1,8
 26 -64 26 -64 34 -11 c 2,9,-1
 106 445 l 2,10,11
 110 470 110 470 124.5 482.5 c 128,-1,12
 139 495 139 495 164 495 c 0,13,14
 187 495 187 495 198.5 479.5 c 128,-1,15
 210 464 210 464 206 436 c 2,16,-1
 136 -3 l 2,17,18
 126 -66 126 -66 101 -106.5 c 128,-1,19
 76 -147 76 -147 33.5 -167.5 c 128,-1,20
 -9 -188 -9 -188 -74 -191 c 0,0,1
180 597 m 0,21,22
 152 597 152 597 137.5 611 c 128,-1,23
 123 625 123 625 126 650 c 0,24,25
 128 680 128 680 147 695.5 c 128,-1,26
 166 711 166 711 198 711 c 0,27,28
 226 711 226 711 240.5 697 c 128,-1,29
 255 683 255 683 252 658 c 0,30,31
 249 628 249 628 230.5 612.5 c 128,-1,32
 212 597 212 597 180 597 c 0,21,22
EndSplineSet
Substitution2: "Single Substitution lookup 4 subtable" uni0237
Substitution2: "Single Substitution lookup 3 subtable" uni0237
EndChar

StartChar: uni0237
Encoding: 567 567 346
Width: 246
GlyphClass: 2
Flags: W
AnchorPoint: "Anchor-2" 86 0 basechar 0
AnchorPoint: "Anchor-0" 162 484 basechar 0
LayerCount: 2
Fore
SplineSet
-74 -191 m 0,0,1
 -91 -192 -91 -192 -101 -184.5 c 128,-1,2
 -111 -177 -111 -177 -114.5 -165.5 c 128,-1,3
 -118 -154 -118 -154 -115 -142 c 128,-1,4
 -112 -130 -112 -130 -103 -122.5 c 128,-1,5
 -94 -115 -94 -115 -79 -114 c 0,6,7
 -32 -112 -32 -112 -3 -88 c 128,-1,8
 26 -64 26 -64 34 -11 c 2,9,-1
 106 445 l 2,10,11
 110 470 110 470 124.5 482.5 c 128,-1,12
 139 495 139 495 164 495 c 0,13,14
 187 495 187 495 198.5 479.5 c 128,-1,15
 210 464 210 464 206 436 c 2,16,-1
 136 -3 l 2,17,18
 126 -66 126 -66 101 -106.5 c 128,-1,19
 76 -147 76 -147 33.5 -167.5 c 128,-1,20
 -9 -188 -9 -188 -74 -191 c 0,0,1
EndSplineSet
EndChar

StartChar: k
Encoding: 107 107 348
Width: 516
GlyphClass: 2
Flags: W
AnchorPoint: "Anchor-2" 229 0 basechar 0
AnchorPoint: "Anchor-0" 360 705 basechar 0
LayerCount: 2
Fore
SplineSet
82 -7 m 0,0,1
 58 -7 58 -7 47.5 8 c 128,-1,2
 37 23 37 23 41 51 c 2,3,-1
 138 664 l 2,4,5
 142 689 142 689 156.5 700.5 c 128,-1,6
 171 712 171 712 196 712 c 0,7,8
 219 712 219 712 230 696.5 c 128,-1,9
 241 681 241 681 237 653 c 2,10,-1
 177 275 l 1,11,-1
 179 275 l 1,12,-1
 398 466 l 2,13,14
 414 481 414 481 427 488 c 128,-1,15
 440 495 440 495 457 495 c 0,16,17
 477 495 477 495 486.5 483.5 c 128,-1,18
 496 472 496 472 494 455 c 128,-1,19
 492 438 492 438 476 424 c 2,20,-1
 252 226 l 1,21,-1
 254 275 l 1,22,-1
 438 65 l 2,23,24
 452 48 452 48 451 31.5 c 128,-1,25
 450 15 450 15 438.5 4 c 128,-1,26
 427 -7 427 -7 408 -7 c 0,27,28
 387 -7 387 -7 374.5 2 c 128,-1,29
 362 11 362 11 346 31 c 2,30,-1
 171 227 l 1,31,-1
 169 227 l 1,32,-1
 140 41 l 2,33,34
 133 -7 133 -7 82 -7 c 0,0,1
EndSplineSet
EndChar

StartChar: kgreenlandic
Encoding: 312 312 351
Width: 516
GlyphClass: 2
Flags: W
AnchorPoint: "Anchor-2" 219 0 basechar 0
AnchorPoint: "Anchor-0" 296 484 basechar 0
LayerCount: 2
Fore
SplineSet
85 -7 m 0,0,1
 58 -7 58 -7 47.5 8 c 128,-1,2
 37 23 37 23 41 51 c 2,3,-1
 103 446 l 2,4,5
 107 470 107 470 121.5 482.5 c 128,-1,6
 136 495 136 495 159 495 c 0,7,8
 186 495 186 495 196.5 479 c 128,-1,9
 207 463 207 463 203 435 c 2,10,-1
 177 275 l 1,11,-1
 179 275 l 1,12,-1
 398 466 l 2,13,14
 410 476 410 476 423.5 485.5 c 128,-1,15
 437 495 437 495 455 495 c 0,16,17
 476 495 476 495 486.5 483.5 c 128,-1,18
 497 472 497 472 495 455 c 128,-1,19
 493 438 493 438 476 424 c 2,20,-1
 252 226 l 1,21,-1
 254 275 l 1,22,-1
 438 65 l 2,23,24
 452 48 452 48 451.5 31.5 c 128,-1,25
 451 15 451 15 438.5 4 c 128,-1,26
 426 -7 426 -7 405 -7 c 0,27,28
 387 -7 387 -7 374.5 2 c 128,-1,29
 362 11 362 11 346 31 c 2,30,-1
 171 227 l 1,31,-1
 169 227 l 1,32,-1
 140 41 l 2,33,34
 136 16 136 16 121.5 4.5 c 128,-1,35
 107 -7 107 -7 85 -7 c 0,0,1
EndSplineSet
EndChar

StartChar: l
Encoding: 108 108 352
Width: 306
GlyphClass: 2
Flags: W
AnchorPoint: "Anchor-5" 146 357 basechar 0
AnchorPoint: "Anchor-2" 152 0 basechar 0
AnchorPoint: "Anchor-1" 288 705 basechar 0
AnchorPoint: "Anchor-0" 194 705 basechar 0
LayerCount: 2
Fore
SplineSet
191 -9 m 0,0,1
 114 -9 114 -9 79.5 35.5 c 128,-1,2
 45 80 45 80 58 166 c 2,3,-1
 138 662 l 2,4,5
 142 687 142 687 156.5 699.5 c 128,-1,6
 171 712 171 712 196 712 c 0,7,8
 219 712 219 712 230 697 c 128,-1,9
 241 682 241 682 237 653 c 2,10,-1
 159 167 l 2,11,12
 151 118 151 118 167 96 c 128,-1,13
 183 74 183 74 220 74 c 0,14,15
 232 74 232 74 239.5 76 c 128,-1,16
 247 78 247 78 253 78 c 0,17,18
 261 78 261 78 266 72 c 128,-1,19
 271 66 271 66 271 49 c 0,20,21
 271 26 271 26 261 13 c 128,-1,22
 251 0 251 0 235 -4 c 0,23,24
 227 -7 227 -7 214 -8 c 128,-1,25
 201 -9 201 -9 191 -9 c 0,0,1
EndSplineSet
Substitution2: "'ss02' Style Set 2 lookup 36 subtable" l.ss02
Substitution2: "'aalt' Access All Alternates lookup 0 subtable" l.ss02
EndChar

StartChar: m
Encoding: 109 109 361
Width: 866
GlyphClass: 2
Flags: W
AnchorPoint: "Anchor-2" 395 0 basechar 0
AnchorPoint: "Anchor-0" 472 484 basechar 0
LayerCount: 2
Fore
SplineSet
83 -7 m 0,0,1
 60 -7 60 -7 49 8 c 128,-1,2
 38 23 38 23 42 50 c 2,3,-1
 105 446 l 2,4,5
 109 471 109 471 123.5 483 c 128,-1,6
 138 495 138 495 161 495 c 256,7,8
 184 495 184 495 195 480 c 128,-1,9
 206 465 206 465 202 438 c 2,10,-1
 190 362 l 1,11,-1
 182 380 l 1,12,13
 210 439 210 439 255.5 468 c 128,-1,14
 301 497 301 497 355 497 c 0,15,16
 412 497 412 497 448.5 466.5 c 128,-1,17
 485 436 485 436 495 377 c 1,18,-1
 482 381 l 1,19,20
 507 437 507 437 553.5 467 c 128,-1,21
 600 497 600 497 663 497 c 0,22,23
 714 497 714 497 749.5 475 c 128,-1,24
 785 453 785 453 799 408 c 128,-1,25
 813 363 813 363 802 293 c 2,26,-1
 762 41 l 2,27,28
 759 18 759 18 745 5.5 c 128,-1,29
 731 -7 731 -7 706 -7 c 256,30,31
 681 -7 681 -7 670 8 c 128,-1,32
 659 23 659 23 663 50 c 2,33,-1
 701 296 l 2,34,35
 710 356 710 356 692 386 c 128,-1,36
 674 416 674 416 627 416 c 0,37,38
 572 416 572 416 535.5 375.5 c 128,-1,39
 499 335 499 335 487 263 c 2,40,-1
 453 41 l 2,41,42
 449 18 449 18 434 5.5 c 128,-1,43
 419 -7 419 -7 395 -7 c 256,44,45
 371 -7 371 -7 359.5 8 c 128,-1,46
 348 23 348 23 352 50 c 2,47,-1
 392 296 l 2,48,49
 401 356 401 356 382.5 386 c 128,-1,50
 364 416 364 416 318 416 c 0,51,52
 262 416 262 416 225.5 375.5 c 128,-1,53
 189 335 189 335 177 263 c 2,54,-1
 142 41 l 2,55,56
 135 -7 135 -7 83 -7 c 0,0,1
EndSplineSet
EndChar

StartChar: n
Encoding: 110 110 363
Width: 576
GlyphClass: 2
Flags: W
AnchorPoint: "Anchor-2" 254 0 basechar 0
AnchorPoint: "Anchor-0" 325 484 basechar 0
LayerCount: 2
Fore
SplineSet
82 -7 m 0,0,1
 59 -7 59 -7 48 9 c 128,-1,2
 37 25 37 25 41 53 c 2,3,-1
 103 445 l 2,4,5
 107 470 107 470 122 482.5 c 128,-1,6
 137 495 137 495 161 495 c 0,7,8
 183 495 183 495 194 481 c 128,-1,9
 205 467 205 467 200 439 c 2,10,-1
 189 365 l 1,11,-1
 183 382 l 1,12,13
 208 438 208 438 255.5 467.5 c 128,-1,14
 303 497 303 497 368 497 c 0,15,16
 422 497 422 497 458.5 475 c 128,-1,17
 495 453 495 453 510.5 408 c 128,-1,18
 526 363 526 363 515 294 c 2,19,-1
 476 43 l 2,20,21
 473 18 473 18 458 5.5 c 128,-1,22
 443 -7 443 -7 418 -7 c 0,23,24
 394 -7 394 -7 383 9 c 128,-1,25
 372 25 372 25 376 52 c 2,26,-1
 414 292 l 2,27,28
 424 355 424 355 404 385.5 c 128,-1,29
 384 416 384 416 332 416 c 0,30,31
 265 416 265 416 225.5 375 c 128,-1,32
 186 334 186 334 175 263 c 2,33,-1
 140 43 l 2,34,35
 133 -7 133 -7 82 -7 c 0,0,1
EndSplineSet
EndChar

StartChar: eng
Encoding: 331 331 373
Width: 576
GlyphClass: 1
Flags: W
LayerCount: 2
Fore
SplineSet
258 -190 m 0,0,1
 242 -191 242 -191 231.5 -184 c 128,-1,2
 221 -177 221 -177 217.5 -166 c 128,-1,3
 214 -155 214 -155 217 -143.5 c 128,-1,4
 220 -132 220 -132 229 -123.5 c 128,-1,5
 238 -115 238 -115 253 -114 c 0,6,7
 299 -111 299 -111 328.5 -87.5 c 128,-1,8
 358 -64 358 -64 366 -11 c 2,9,-1
 414 292 l 2,10,11
 424 355 424 355 404 385.5 c 128,-1,12
 384 416 384 416 332 416 c 0,13,14
 265 416 265 416 225.5 375 c 128,-1,15
 186 334 186 334 175 263 c 2,16,-1
 140 43 l 2,17,18
 133 -7 133 -7 82 -7 c 0,19,20
 59 -7 59 -7 48 9 c 128,-1,21
 37 25 37 25 41 52 c 2,22,-1
 103 445 l 2,23,24
 107 470 107 470 122 482.5 c 128,-1,25
 137 495 137 495 161 495 c 0,26,27
 183 495 183 495 194 481 c 128,-1,28
 205 467 205 467 200 440 c 2,29,-1
 189 365 l 1,30,-1
 183 382 l 1,31,32
 208 438 208 438 255.5 467.5 c 128,-1,33
 303 497 303 497 368 497 c 0,34,35
 422 497 422 497 458.5 475 c 128,-1,36
 495 453 495 453 510.5 408 c 128,-1,37
 526 363 526 363 515 294 c 2,38,-1
 468 -3 l 2,39,40
 458 -66 458 -66 432.5 -106.5 c 128,-1,41
 407 -147 407 -147 364 -167 c 128,-1,42
 321 -187 321 -187 258 -190 c 0,0,1
EndSplineSet
EndChar

StartChar: o
Encoding: 111 111 374
Width: 565
GlyphClass: 2
Flags: W
AnchorPoint: "Anchor-5" 283 244 basechar 0
AnchorPoint: "Anchor-3" 315 0 basechar 0
AnchorPoint: "Anchor-2" 252 0 basechar 0
AnchorPoint: "Anchor-1" 371 484 basechar 0
AnchorPoint: "Anchor-0" 323 484 basechar 0
LayerCount: 2
Fore
SplineSet
261 -9 m 0,0,1
 192 -9 192 -9 143 17 c 128,-1,2
 94 43 94 43 67.5 92 c 128,-1,3
 41 141 41 141 41 208 c 0,4,5
 41 272 41 272 60.5 324.5 c 128,-1,6
 80 377 80 377 115.5 416 c 128,-1,7
 151 455 151 455 199 476 c 128,-1,8
 247 497 247 497 304 497 c 0,9,10
 373 497 373 497 422 470.5 c 128,-1,11
 471 444 471 444 497.5 395.5 c 128,-1,12
 524 347 524 347 524 280 c 0,13,14
 524 216 524 216 504.5 163 c 128,-1,15
 485 110 485 110 449.5 71.5 c 128,-1,16
 414 33 414 33 366 12 c 128,-1,17
 318 -9 318 -9 261 -9 c 0,0,1
263 69 m 0,18,19
 315 69 315 69 350 98 c 128,-1,20
 385 127 385 127 403.5 175.5 c 128,-1,21
 422 224 422 224 422 283 c 0,22,23
 422 349 422 349 390 383.5 c 128,-1,24
 358 418 358 418 302 418 c 0,25,26
 251 418 251 418 215.5 389.5 c 128,-1,27
 180 361 180 361 161.5 312.5 c 128,-1,28
 143 264 143 264 143 204 c 0,29,30
 143 139 143 139 175 104 c 128,-1,31
 207 69 207 69 263 69 c 0,18,19
EndSplineSet
Substitution2: "Single Substitution lookup 29 subtable" ordmasculine
Substitution2: "'aalt' Access All Alternates lookup 0 subtable" ordmasculine
EndChar

StartChar: oslash
Encoding: 248 248 402
Width: 565
GlyphClass: 2
Flags: W
AnchorPoint: "Anchor-5" 283 244 basechar 0
AnchorPoint: "Anchor-0" 323 484 basechar 0
LayerCount: 2
Fore
SplineSet
261 -9 m 0,0,1
 193 -9 193 -9 143.5 17.5 c 128,-1,2
 94 44 94 44 68 93 c 128,-1,3
 42 142 42 142 42 209 c 0,4,5
 42 272 42 272 61.5 325 c 128,-1,6
 81 378 81 378 116.5 416.5 c 128,-1,7
 152 455 152 455 200 476 c 128,-1,8
 248 497 248 497 305 497 c 0,9,10
 374 497 374 497 423 470.5 c 128,-1,11
 472 444 472 444 498.5 395.5 c 128,-1,12
 525 347 525 347 525 280 c 0,13,14
 525 216 525 216 505.5 163 c 128,-1,15
 486 110 486 110 450.5 71.5 c 128,-1,16
 415 33 415 33 367 12 c 128,-1,17
 319 -9 319 -9 261 -9 c 0,0,1
265 64 m 0,18,19
 318 64 318 64 355 93 c 128,-1,20
 392 122 392 122 411 172 c 128,-1,21
 430 222 430 222 430 285 c 0,22,23
 430 353 430 353 396.5 388 c 128,-1,24
 363 423 363 423 300 423 c 0,25,26
 248 423 248 423 211 394.5 c 128,-1,27
 174 366 174 366 154.5 316.5 c 128,-1,28
 135 267 135 267 135 204 c 0,29,30
 135 135 135 135 169 99.5 c 128,-1,31
 203 64 203 64 265 64 c 0,18,19
123 -26 m 2,32,33
 114 -38 114 -38 102 -39 c 128,-1,34
 90 -40 90 -40 80.5 -33 c 128,-1,35
 71 -26 71 -26 68.5 -13.5 c 128,-1,36
 66 -1 66 -1 76 12 c 2,37,-1
 445 513 l 2,38,39
 454 525 454 525 466 526 c 128,-1,40
 478 527 478 527 487 520 c 128,-1,41
 496 513 496 513 498 500.5 c 128,-1,42
 500 488 500 488 491 475 c 2,43,-1
 123 -26 l 2,32,33
EndSplineSet
EndChar

StartChar: oe
Encoding: 339 339 408
Width: 912
GlyphClass: 2
Flags: W
AnchorPoint: "Anchor-2" 431 0 basechar 0
AnchorPoint: "Anchor-0" 509 484 basechar 0
LayerCount: 2
Fore
SplineSet
261 -9 m 0,0,1
 192 -9 192 -9 143 17.5 c 128,-1,2
 94 44 94 44 67.5 93 c 128,-1,3
 41 142 41 142 41 209 c 0,4,5
 41 272 41 272 60.5 325 c 128,-1,6
 80 378 80 378 115.5 416.5 c 128,-1,7
 151 455 151 455 199 476 c 128,-1,8
 247 497 247 497 304 497 c 0,9,10
 378 497 378 497 427 461.5 c 128,-1,11
 476 426 476 426 495 363 c 1,12,-1
 466 363 l 1,13,14
 497 422 497 422 552 459.5 c 128,-1,15
 607 497 607 497 682 497 c 0,16,17
 761 497 761 497 806 462 c 128,-1,18
 851 427 851 427 868 371 c 128,-1,19
 885 315 885 315 875 252 c 0,20,21
 873 233 873 233 865.5 227 c 128,-1,22
 858 221 858 221 842 221 c 2,23,-1
 498 221 l 1,24,-1
 507 283 l 1,25,-1
 811 283 l 1,26,-1
 794 269 l 1,27,28
 800 313 800 313 791 348 c 128,-1,29
 782 383 782 383 755.5 404.5 c 128,-1,30
 729 426 729 426 681 426 c 256,31,32
 633 426 633 426 600.5 403.5 c 128,-1,33
 568 381 568 381 550 346 c 128,-1,34
 532 311 532 311 525 273 c 2,35,-1
 521 245 l 2,36,37
 508 164 508 164 544.5 117 c 128,-1,38
 581 70 581 70 658 70 c 0,39,40
 691 70 691 70 722.5 77 c 128,-1,41
 754 84 754 84 784 103 c 0,42,43
 801 112 801 112 813 110.5 c 128,-1,44
 825 109 825 109 833 101.5 c 128,-1,45
 841 94 841 94 842.5 83 c 128,-1,46
 844 72 844 72 838.5 59.5 c 128,-1,47
 833 47 833 47 819 38 c 0,48,49
 785 14 785 14 739 2.5 c 128,-1,50
 693 -9 693 -9 652 -9 c 0,51,52
 573 -9 573 -9 519 27 c 128,-1,53
 465 63 465 63 444 126 c 1,54,-1
 478 126 l 1,55,56
 446 65 446 65 390.5 28 c 128,-1,57
 335 -9 335 -9 261 -9 c 0,0,1
263 70 m 0,58,59
 315 70 315 70 350 98.5 c 128,-1,60
 385 127 385 127 403.5 175.5 c 128,-1,61
 422 224 422 224 422 283 c 0,62,63
 422 349 422 349 390 383.5 c 128,-1,64
 358 418 358 418 302 418 c 0,65,66
 251 418 251 418 215.5 389.5 c 128,-1,67
 180 361 180 361 161.5 312.5 c 128,-1,68
 143 264 143 264 143 204 c 0,69,70
 143 139 143 139 175 104.5 c 128,-1,71
 207 70 207 70 263 70 c 0,58,59
EndSplineSet
EndChar

StartChar: p
Encoding: 112 112 409
Width: 591
GlyphClass: 2
Flags: W
AnchorPoint: "Anchor-2" 255 0 basechar 0
AnchorPoint: "Anchor-0" 332 484 basechar 0
LayerCount: 2
Fore
SplineSet
54 -187 m 0,0,1
 30 -187 30 -187 19 -172 c 128,-1,2
 8 -157 8 -157 12 -129 c 2,3,-1
 103 443 l 2,4,5
 107 469 107 469 121.5 482 c 128,-1,6
 136 495 136 495 161 495 c 0,7,8
 184 495 184 495 194.5 479.5 c 128,-1,9
 205 464 205 464 200 436 c 2,10,-1
 190 369 l 1,11,-1
 185 390 l 1,12,13
 212 441 212 441 258 469 c 128,-1,14
 304 497 304 497 364 497 c 0,15,16
 420 497 420 497 462 471.5 c 128,-1,17
 504 446 504 446 527 399 c 128,-1,18
 550 352 550 352 550 287 c 0,19,20
 550 206 550 206 521.5 138.5 c 128,-1,21
 493 71 493 71 438 31 c 128,-1,22
 383 -9 383 -9 306 -9 c 0,23,24
 248 -9 248 -9 203.5 19 c 128,-1,25
 159 47 159 47 142 104 c 1,26,-1
 150 104 l 1,27,-1
 111 -139 l 2,28,29
 107 -164 107 -164 93.5 -175.5 c 128,-1,30
 80 -187 80 -187 54 -187 c 0,0,1
290 69 m 0,31,32
 341 69 341 69 376 98 c 128,-1,33
 411 127 411 127 429.5 175.5 c 128,-1,34
 448 224 448 224 448 283 c 0,35,36
 448 349 448 349 416 383.5 c 128,-1,37
 384 418 384 418 328 418 c 0,38,39
 278 418 278 418 242.5 389.5 c 128,-1,40
 207 361 207 361 188 312.5 c 128,-1,41
 169 264 169 264 169 204 c 0,42,43
 169 139 169 139 201 104 c 128,-1,44
 233 69 233 69 290 69 c 0,31,32
EndSplineSet
EndChar

StartChar: thorn
Encoding: 254 254 410
Width: 591
GlyphClass: 2
Flags: W
AnchorPoint: "Anchor-2" 257 0 basechar 0
AnchorPoint: "Anchor-0" 334 484 basechar 0
LayerCount: 2
Fore
SplineSet
54 -187 m 0,0,1
 30 -187 30 -187 19 -172 c 128,-1,2
 8 -157 8 -157 12 -129 c 2,3,-1
 137 661 l 2,4,5
 141 687 141 687 155.5 699.5 c 128,-1,6
 170 712 170 712 195 712 c 0,7,8
 218 712 218 712 229.5 698 c 128,-1,9
 241 684 241 684 237 655 c 2,10,-1
 192 369 l 1,11,-1
 185 390 l 1,12,13
 212 441 212 441 258 469 c 128,-1,14
 304 497 304 497 364 497 c 0,15,16
 420 497 420 497 462 471.5 c 128,-1,17
 504 446 504 446 527 399 c 128,-1,18
 550 352 550 352 550 287 c 0,19,20
 550 206 550 206 521.5 138.5 c 128,-1,21
 493 71 493 71 438 31 c 128,-1,22
 383 -9 383 -9 306 -9 c 0,23,24
 248 -9 248 -9 203.5 19 c 128,-1,25
 159 47 159 47 142 104 c 1,26,-1
 150 104 l 1,27,-1
 111 -139 l 2,28,29
 107 -164 107 -164 93.5 -175.5 c 128,-1,30
 80 -187 80 -187 54 -187 c 0,0,1
290 69 m 0,31,32
 341 69 341 69 376 98 c 128,-1,33
 411 127 411 127 429.5 175.5 c 128,-1,34
 448 224 448 224 448 283 c 0,35,36
 448 349 448 349 416 383.5 c 128,-1,37
 384 418 384 418 328 418 c 0,38,39
 278 418 278 418 242.5 389.5 c 128,-1,40
 207 361 207 361 188 312.5 c 128,-1,41
 169 264 169 264 169 204 c 0,42,43
 169 139 169 139 201 104 c 128,-1,44
 233 69 233 69 290 69 c 0,31,32
EndSplineSet
EndChar

StartChar: q
Encoding: 113 113 411
Width: 591
GlyphClass: 2
Flags: W
AnchorPoint: "Anchor-2" 257 0 basechar 0
AnchorPoint: "Anchor-0" 334 484 basechar 0
LayerCount: 2
Fore
SplineSet
401 -187 m 0,0,1
 378 -187 378 -187 367 -172 c 128,-1,2
 356 -157 356 -157 360 -129 c 2,3,-1
 396 98 l 1,4,-1
 406 98 l 1,5,6
 379 49 379 49 333 20 c 128,-1,7
 287 -9 287 -9 227 -9 c 0,8,9
 170 -9 170 -9 128.5 16.5 c 128,-1,10
 87 42 87 42 63.5 89 c 128,-1,11
 40 136 40 136 40 200 c 0,12,13
 40 282 40 282 69 349.5 c 128,-1,14
 98 417 98 417 153.5 457 c 128,-1,15
 209 497 209 497 287 497 c 0,16,17
 343 497 343 497 387.5 468.5 c 128,-1,18
 432 440 432 440 449 383 c 1,19,-1
 441 366 l 1,20,-1
 454 446 l 2,21,22
 458 471 458 471 471 483 c 128,-1,23
 484 495 484 495 509 495 c 0,24,25
 532 495 532 495 543.5 479.5 c 128,-1,26
 555 464 555 464 551 436 c 2,27,-1
 460 -136 l 2,28,29
 456 -161 456 -161 441 -174 c 128,-1,30
 426 -187 426 -187 401 -187 c 0,0,1
263 69 m 0,31,32
 314 69 314 69 349 98 c 128,-1,33
 384 127 384 127 402.5 175.5 c 128,-1,34
 421 224 421 224 421 283 c 0,35,36
 421 349 421 349 389 383.5 c 128,-1,37
 357 418 357 418 301 418 c 0,38,39
 250 418 250 418 215 389.5 c 128,-1,40
 180 361 180 361 161 312.5 c 128,-1,41
 142 264 142 264 142 204 c 0,42,43
 142 139 142 139 174 104 c 128,-1,44
 206 69 206 69 263 69 c 0,31,32
EndSplineSet
EndChar

StartChar: r
Encoding: 114 114 412
Width: 373
GlyphClass: 2
Flags: W
AnchorPoint: "Anchor-2" 84 0 basechar 0
AnchorPoint: "Anchor-0" 256 486 basechar 0
LayerCount: 2
Fore
SplineSet
82 -7 m 0,0,1
 58 -7 58 -7 47 8 c 128,-1,2
 36 23 36 23 40 50 c 2,3,-1
 103 446 l 2,4,5
 107 471 107 471 121.5 483 c 128,-1,6
 136 495 136 495 160 495 c 0,7,8
 183 495 183 495 194 480.5 c 128,-1,9
 205 466 205 466 201 438 c 2,10,-1
 190 371 l 1,11,-1
 180 371 l 1,12,13
 200 430 200 430 248 462.5 c 128,-1,14
 296 495 296 495 358 498 c 0,15,16
 383 499 383 499 391.5 491 c 128,-1,17
 400 483 400 483 400 463 c 0,18,19
 400 437 400 437 388 425 c 128,-1,20
 376 413 376 413 349 410 c 2,21,-1
 325 407 l 2,22,23
 251 400 251 400 219 363 c 128,-1,24
 187 326 187 326 176 262 c 2,25,-1
 141 41 l 2,26,27
 138 17 138 17 123 5 c 128,-1,28
 108 -7 108 -7 82 -7 c 0,0,1
EndSplineSet
EndChar

StartChar: s
Encoding: 115 115 420
Width: 484
GlyphClass: 2
Flags: W
AnchorPoint: "Anchor-2" 215 0 basechar 0
AnchorPoint: "Anchor-0" 274 484 basechar 0
LayerCount: 2
Fore
SplineSet
224 -9 m 0,0,1
 177 -9 177 -9 133 1.5 c 128,-1,2
 89 12 89 12 57 29 c 0,3,4
 41 37 41 37 35 49.5 c 128,-1,5
 29 62 29 62 30.5 74 c 128,-1,6
 32 86 32 86 39.5 94.5 c 128,-1,7
 47 103 47 103 59.5 105 c 128,-1,8
 72 107 72 107 87 99 c 0,9,10
 119 81 119 81 154 72.5 c 128,-1,11
 189 64 189 64 225 64 c 0,12,13
 276 64 276 64 304 84 c 128,-1,14
 332 104 332 104 332 138 c 0,15,16
 332 161 332 161 316.5 176 c 128,-1,17
 301 191 301 191 271 197 c 2,18,-1
 178 218 l 2,19,20
 126 229 126 229 96.5 261 c 128,-1,21
 67 293 67 293 67 341 c 0,22,23
 67 385 67 385 91.5 420 c 128,-1,24
 116 455 116 455 163.5 476 c 128,-1,25
 211 497 211 497 276 497 c 0,26,27
 314 497 314 497 355 486 c 128,-1,28
 396 475 396 475 425 456 c 0,29,30
 439 447 439 447 444.5 434.5 c 128,-1,31
 450 422 450 422 447.5 410.5 c 128,-1,32
 445 399 445 399 437.5 391.5 c 128,-1,33
 430 384 430 384 417.5 383 c 128,-1,34
 405 382 405 382 390 391 c 0,35,36
 365 407 365 407 334 415 c 128,-1,37
 303 423 303 423 271 423 c 0,38,39
 219 423 219 423 189.5 402 c 128,-1,40
 160 381 160 381 160 346 c 0,41,42
 160 325 160 325 173 309.5 c 128,-1,43
 186 294 186 294 215 288 c 2,44,-1
 308 267 l 2,45,46
 364 254 364 254 394.5 223.5 c 128,-1,47
 425 193 425 193 425 145 c 0,48,49
 425 72 425 72 370 31.5 c 128,-1,50
 315 -9 315 -9 224 -9 c 0,0,1
EndSplineSet
EndChar

StartChar: germandbls
Encoding: 223 223 431
Width: 632
GlyphClass: 1
Flags: W
LayerCount: 2
Fore
SplineSet
393 -9 m 0,0,1
 347 -9 347 -9 303 2.5 c 128,-1,2
 259 14 259 14 228 34 c 0,3,4
 214 43 214 43 209 55 c 128,-1,5
 204 67 204 67 206 79.5 c 128,-1,6
 208 92 208 92 216 100.5 c 128,-1,7
 224 109 224 109 236.5 111 c 128,-1,8
 249 113 249 113 262 105 c 0,9,10
 292 87 292 87 325 77.5 c 128,-1,11
 358 68 358 68 393 68 c 0,12,13
 442 68 442 68 468.5 86 c 128,-1,14
 495 104 495 104 495 139 c 0,15,16
 495 162 495 162 476.5 180.5 c 128,-1,17
 458 199 458 199 405 217 c 0,18,19
 339 240 339 240 311.5 269.5 c 128,-1,20
 284 299 284 299 284 341 c 0,21,22
 284 369 284 369 293.5 390.5 c 128,-1,23
 303 412 303 412 324 434 c 128,-1,24
 345 456 345 456 380 483 c 0,25,26
 409 506 409 506 426 526.5 c 128,-1,27
 443 547 443 547 443 578 c 0,28,29
 443 603 443 603 425 620.5 c 128,-1,30
 407 638 407 638 370 638 c 0,31,32
 302 638 302 638 262.5 600 c 128,-1,33
 223 562 223 562 211 486 c 2,34,-1
 140 41 l 2,35,36
 137 17 137 17 123 5 c 128,-1,37
 109 -7 109 -7 85 -7 c 0,38,39
 60 -7 60 -7 48.5 7.5 c 128,-1,40
 37 22 37 22 41 49 c 2,41,-1
 108 474 l 2,42,43
 126 592 126 592 190 653 c 128,-1,44
 254 714 254 714 372 714 c 0,45,46
 424 714 424 714 461.5 697 c 128,-1,47
 499 680 499 680 519 651.5 c 128,-1,48
 539 623 539 623 539 589 c 0,49,50
 539 542 539 542 515.5 510.5 c 128,-1,51
 492 479 492 479 451 446 c 0,52,53
 427 426 427 426 411 411.5 c 128,-1,54
 395 397 395 397 387 384 c 128,-1,55
 379 371 379 371 379 354 c 0,56,57
 379 333 379 333 397.5 316.5 c 128,-1,58
 416 300 416 300 466 283 c 0,59,60
 525 262 525 262 557 231.5 c 128,-1,61
 589 201 589 201 589 149 c 0,62,63
 589 99 589 99 564 63.5 c 128,-1,64
 539 28 539 28 495 9.5 c 128,-1,65
 451 -9 451 -9 393 -9 c 0,0,1
EndSplineSet
Substitution2: "Single Substitution lookup 39 subtable" germandbls.calt
Substitution2: "Single Substitution lookup 38 subtable" germandbls.calt
Substitution2: "'aalt' Access All Alternates lookup 0 subtable" germandbls.calt
EndChar

StartChar: t
Encoding: 116 116 432
Width: 365
GlyphClass: 2
Flags: W
AnchorPoint: "Anchor-5" 174 264 basechar 0
AnchorPoint: "Anchor-2" 192 0 basechar 0
AnchorPoint: "Anchor-1" 337 705 basechar 0
AnchorPoint: "Anchor-0" 209 635 basechar 0
LayerCount: 2
Fore
SplineSet
247 -9 m 0,0,1
 187 -9 187 -9 147.5 14 c 128,-1,2
 108 37 108 37 92.5 78 c 128,-1,3
 77 119 77 119 86 174 c 2,4,-1
 124 410 l 1,5,-1
 70 410 l 2,6,7
 50 410 50 410 38.5 419 c 128,-1,8
 27 428 27 428 27 443 c 0,9,10
 27 465 27 465 41.5 476.5 c 128,-1,11
 56 488 56 488 79 488 c 2,12,-1
 136 488 l 1,13,-1
 153 595 l 2,14,15
 157 619 157 619 171 630.5 c 128,-1,16
 185 642 185 642 208 642 c 0,17,18
 234 642 234 642 245 627.5 c 128,-1,19
 256 613 256 613 252 586 c 2,20,-1
 237 488 l 1,21,-1
 347 488 l 2,22,23
 368 488 368 488 379 480 c 128,-1,24
 390 472 390 472 390 455 c 0,25,26
 390 436 390 436 377.5 423 c 128,-1,27
 365 410 365 410 342 410 c 2,28,-1
 225 410 l 1,29,-1
 188 182 l 2,30,31
 179 125 179 125 201 100 c 128,-1,32
 223 75 223 75 266 75 c 0,33,34
 285 75 285 75 296.5 78.5 c 128,-1,35
 308 82 308 82 317 82 c 0,36,37
 329 82 329 82 334.5 75.5 c 128,-1,38
 340 69 340 69 340 53 c 0,39,40
 340 26 340 26 331.5 15 c 128,-1,41
 323 4 323 4 307 -1 c 0,42,43
 296 -5 296 -5 278.5 -7 c 128,-1,44
 261 -9 261 -9 247 -9 c 0,0,1
EndSplineSet
EndChar

StartChar: u
Encoding: 117 117 440
Width: 569
GlyphClass: 2
Flags: W
AnchorPoint: "Anchor-3" 435 0 basechar 0
AnchorPoint: "Anchor-2" 246 0 basechar 0
AnchorPoint: "Anchor-1" 458 484 basechar 0
AnchorPoint: "Anchor-0" 320 485 basechar 0
LayerCount: 2
Fore
SplineSet
206 -9 m 0,0,1
 154 -9 154 -9 117.5 12.5 c 128,-1,2
 81 34 81 34 65.5 79.5 c 128,-1,3
 50 125 50 125 61 195 c 2,4,-1
 101 448 l 2,5,6
 105 472 105 472 119 483.5 c 128,-1,7
 133 495 133 495 157 495 c 256,8,9
 181 495 181 495 193 480.5 c 128,-1,10
 205 466 205 466 201 439 c 2,11,-1
 162 195 l 2,12,13
 153 133 153 133 172.5 102.5 c 128,-1,14
 192 72 192 72 242 72 c 0,15,16
 306 72 306 72 345 113.5 c 128,-1,17
 384 155 384 155 395 225 c 2,18,-1
 430 448 l 2,19,20
 434 472 434 472 447.5 483.5 c 128,-1,21
 461 495 461 495 485 495 c 0,22,23
 510 495 510 495 521.5 480.5 c 128,-1,24
 533 466 533 466 529 439 c 2,25,-1
 466 41 l 2,26,27
 459 -7 459 -7 411 -7 c 0,28,29
 388 -7 388 -7 376.5 6 c 128,-1,30
 365 19 365 19 369 46 c 2,31,-1
 381 126 l 1,32,-1
 389 107 l 1,33,34
 364 51 364 51 316.5 21 c 128,-1,35
 269 -9 269 -9 206 -9 c 0,0,1
EndSplineSet
EndChar

StartChar: uhorn
Encoding: 432 432 450
Width: 569
GlyphClass: 2
Flags: W
AnchorPoint: "Anchor-2" 246 0 basechar 0
AnchorPoint: "Anchor-0" 320 485 basechar 0
LayerCount: 2
Fore
SplineSet
206 -9 m 0,0,1
 154 -9 154 -9 117.5 12.5 c 128,-1,2
 81 34 81 34 65.5 79.5 c 128,-1,3
 50 125 50 125 61 195 c 2,4,-1
 101 448 l 2,5,6
 105 471 105 471 119 483 c 128,-1,7
 133 495 133 495 157 495 c 256,8,9
 181 495 181 495 193 480.5 c 128,-1,10
 205 466 205 466 201 439 c 2,11,-1
 162 195 l 2,12,13
 153 133 153 133 172.5 102.5 c 128,-1,14
 192 72 192 72 242 72 c 0,15,16
 306 72 306 72 345 113.5 c 128,-1,17
 384 155 384 155 395 225 c 2,18,-1
 429 443 l 2,19,20
 433 466 433 466 446.5 478 c 128,-1,21
 460 490 460 490 482 491 c 0,22,23
 515 493 515 493 533 505.5 c 128,-1,24
 551 518 551 518 561 539.5 c 128,-1,25
 571 561 571 561 577 589 c 0,26,27
 583 623 583 623 625 623 c 0,28,29
 646 623 646 623 657 614 c 128,-1,30
 668 605 668 605 666 586 c 0,31,32
 658 527 658 527 624 485.5 c 128,-1,33
 590 444 590 444 528 434 c 1,34,-1
 466 41 l 2,35,36
 459 -7 459 -7 411 -7 c 0,37,38
 388 -7 388 -7 376.5 6 c 128,-1,39
 365 19 365 19 369 46 c 2,40,-1
 381 126 l 1,41,-1
 389 107 l 1,42,43
 364 51 364 51 316.5 21 c 128,-1,44
 269 -9 269 -9 206 -9 c 0,0,1
EndSplineSet
EndChar

StartChar: uogonek
Encoding: 371 371 460
Width: 569
GlyphClass: 1
Flags: W
LayerCount: 2
Fore
SplineSet
381 126 m 1,0,-1
 389 107 l 1,1,2
 364 51 364 51 316.5 21 c 128,-1,3
 269 -9 269 -9 206 -9 c 0,4,5
 154 -9 154 -9 117.5 12.5 c 128,-1,6
 81 34 81 34 65.5 79.5 c 128,-1,7
 50 125 50 125 61 195 c 2,8,-1
 101 448 l 2,9,10
 105 471 105 471 119 483 c 128,-1,11
 133 495 133 495 157 495 c 256,12,13
 181 495 181 495 193 480.5 c 128,-1,14
 205 466 205 466 201 439 c 2,15,-1
 162 195 l 2,16,17
 153 133 153 133 172.5 102.5 c 128,-1,18
 192 72 192 72 242 72 c 0,19,20
 306 72 306 72 345 113.5 c 128,-1,21
 384 155 384 155 395 225 c 2,22,-1
 430 448 l 2,23,24
 434 471 434 471 447.5 483 c 128,-1,25
 461 495 461 495 485 495 c 0,26,27
 510 495 510 495 521.5 480 c 128,-1,28
 533 465 533 465 529 438 c 2,29,-1
 466 41 l 2,30,31
 463 21 463 21 453.5 10 c 128,-1,32
 444 -1 444 -1 428 -6 c 0,33,34
 396 -17 396 -17 380 -38.5 c 128,-1,35
 364 -60 364 -60 364 -86 c 0,36,37
 364 -108 364 -108 378 -122 c 128,-1,38
 392 -136 392 -136 416 -136 c 0,39,40
 424 -136 424 -136 432.5 -134.5 c 128,-1,41
 441 -133 441 -133 452 -130 c 0,42,43
 466 -126 466 -126 473.5 -131.5 c 128,-1,44
 481 -137 481 -137 482.5 -148 c 128,-1,45
 484 -159 484 -159 479.5 -169 c 128,-1,46
 475 -179 475 -179 464 -183 c 0,47,48
 450 -188 450 -188 432 -191 c 128,-1,49
 414 -194 414 -194 398 -194 c 0,50,51
 348 -194 348 -194 322.5 -168 c 128,-1,52
 297 -142 297 -142 297 -103 c 0,53,54
 297 -61 297 -61 318.5 -28.5 c 128,-1,55
 340 4 340 4 381 26 c 1,56,-1
 372 14 l 1,57,58
 369 21 369 21 368.5 28.5 c 128,-1,59
 368 36 368 36 369 46 c 2,60,-1
 381 126 l 1,0,-1
EndSplineSet
EndChar

StartChar: v
Encoding: 118 118 464
Width: 520
GlyphClass: 2
Flags: W
AnchorPoint: "Anchor-2" 222 0 basechar 0
AnchorPoint: "Anchor-0" 299 484 basechar 0
LayerCount: 2
Fore
SplineSet
224 -7 m 0,0,1
 200 -7 200 -7 185.5 5.5 c 128,-1,2
 171 18 171 18 164 42 c 2,3,-1
 60 424 l 2,4,5
 54 445 54 445 58 461 c 128,-1,6
 62 477 62 477 74.5 486 c 128,-1,7
 87 495 87 495 106 495 c 0,8,9
 127 495 127 495 138.5 485 c 128,-1,10
 150 475 150 475 156 449 c 2,11,-1
 246 83 l 1,12,-1
 217 83 l 1,13,-1
 433 460 l 2,14,15
 444 479 444 479 456.5 487 c 128,-1,16
 469 495 469 495 488 495 c 0,17,18
 508 495 508 495 519 486 c 128,-1,19
 530 477 530 477 531 462.5 c 128,-1,20
 532 448 532 448 521 430 c 2,21,-1
 286 32 l 2,22,23
 273 11 273 11 258.5 2 c 128,-1,24
 244 -7 244 -7 224 -7 c 0,0,1
EndSplineSet
EndChar

StartChar: w
Encoding: 119 119 465
Width: 846
GlyphClass: 2
Flags: W
AnchorPoint: "Anchor-2" 384 0 basechar 0
AnchorPoint: "Anchor-0" 454 484 basechar 0
LayerCount: 2
Fore
SplineSet
210 -7 m 256,0,1
 189 -7 189 -7 174.5 4.5 c 128,-1,2
 160 16 160 16 154 41 c 2,3,-1
 70 423 l 2,4,5
 65 445 65 445 69.5 461 c 128,-1,6
 74 477 74 477 86 486 c 128,-1,7
 98 495 98 495 116 495 c 0,8,9
 136 495 136 495 146 484.5 c 128,-1,10
 156 474 156 474 161 450 c 2,11,-1
 233 85 l 1,12,-1
 208 85 l 1,13,-1
 406 463 l 2,14,15
 415 480 415 480 427 487.5 c 128,-1,16
 439 495 439 495 457 495 c 256,17,18
 475 495 475 495 487 485.5 c 128,-1,19
 499 476 499 476 503 455 c 2,20,-1
 577 85 l 1,21,-1
 556 85 l 1,22,-1
 749 458 l 2,23,24
 760 478 760 478 772 486.5 c 128,-1,25
 784 495 784 495 804 495 c 256,26,27
 824 495 824 495 834.5 486 c 128,-1,28
 845 477 845 477 846 463 c 128,-1,29
 847 449 847 449 838 432 c 2,30,-1
 623 32 l 2,31,32
 612 12 612 12 596.5 2.5 c 128,-1,33
 581 -7 581 -7 561 -7 c 0,34,35
 540 -7 540 -7 525 5 c 128,-1,36
 510 17 510 17 504 41 c 2,37,-1
 427 408 l 1,38,-1
 471 408 l 1,39,-1
 273 33 l 2,40,41
 262 13 262 13 246.5 3 c 128,-1,42
 231 -7 231 -7 210 -7 c 256,0,1
EndSplineSet
EndChar

StartChar: x
Encoding: 120 120 470
Width: 534
GlyphClass: 2
Flags: W
AnchorPoint: "Anchor-2" 229 0 basechar 0
AnchorPoint: "Anchor-0" 305 484 basechar 0
LayerCount: 2
Fore
SplineSet
54 -7 m 0,0,1
 34 -7 34 -7 22.5 3.5 c 128,-1,2
 11 14 11 14 11.5 29.5 c 128,-1,3
 12 45 12 45 26 60 c 2,4,-1
 229 272 l 1,5,-1
 227 227 l 1,6,-1
 99 424 l 2,7,8
 87 444 87 444 89.5 460 c 128,-1,9
 92 476 92 476 103.5 485.5 c 128,-1,10
 115 495 115 495 132 495 c 256,11,12
 149 495 149 495 162.5 487 c 128,-1,13
 176 479 176 479 186 463 c 2,14,-1
 290 298 l 1,15,-1
 263 298 l 1,16,-1
 418 468 l 2,17,18
 431 482 431 482 442 488.5 c 128,-1,19
 453 495 453 495 471 495 c 0,20,21
 493 495 493 495 504 484.5 c 128,-1,22
 515 474 515 474 514.5 458.5 c 128,-1,23
 514 443 514 443 500 429 c 2,24,-1
 312 229 l 1,25,-1
 311 274 l 1,26,-1
 449 64 l 2,27,28
 462 45 462 45 459.5 28.5 c 128,-1,29
 457 12 457 12 444.5 2.5 c 128,-1,30
 432 -7 432 -7 415 -7 c 0,31,32
 399 -7 399 -7 385.5 1 c 128,-1,33
 372 9 372 9 362 25 c 2,34,-1
 248 202 l 1,35,-1
 280 201 l 1,36,-1
 108 20 l 2,37,38
 94 6 94 6 83 -0.5 c 128,-1,39
 72 -7 72 -7 54 -7 c 0,0,1
EndSplineSet
EndChar

StartChar: y
Encoding: 121 121 471
Width: 520
GlyphClass: 2
Flags: W
AnchorPoint: "Anchor-2" 360 0 basechar 0
AnchorPoint: "Anchor-0" 286 484 basechar 0
LayerCount: 2
Fore
SplineSet
121 -187 m 0,0,1
 102 -187 102 -187 91.5 -178 c 128,-1,2
 81 -169 81 -169 80.5 -154 c 128,-1,3
 80 -139 80 -139 89 -123 c 2,4,-1
 184 34 l 1,5,-1
 177 -9 l 1,6,-1
 59 425 l 2,7,8
 54 445 54 445 57.5 461 c 128,-1,9
 61 477 61 477 74 486 c 128,-1,10
 87 495 87 495 105 495 c 0,11,12
 127 495 127 495 137.5 485 c 128,-1,13
 148 475 148 475 154 449 c 2,14,-1
 245 82 l 1,15,-1
 215 82 l 1,16,-1
 432 458 l 2,17,18
 443 478 443 478 455 486.5 c 128,-1,19
 467 495 467 495 487 495 c 0,20,21
 506 495 506 495 517.5 485.5 c 128,-1,22
 529 476 529 476 530 461.5 c 128,-1,23
 531 447 531 447 521 429 c 2,24,-1
 176 -151 l 2,25,26
 165 -170 165 -170 153 -178.5 c 128,-1,27
 141 -187 141 -187 121 -187 c 0,0,1
EndSplineSet
EndChar

StartChar: uni01B4
Encoding: 436 436 478
Width: 560
GlyphClass: 1
Flags: W
LayerCount: 2
Fore
SplineSet
122 -187 m 0,0,1
 102 -187 102 -187 91.5 -178 c 128,-1,2
 81 -169 81 -169 80.5 -154 c 128,-1,3
 80 -139 80 -139 89 -123 c 2,4,-1
 184 34 l 1,5,-1
 177 -9 l 1,6,-1
 59 424 l 2,7,8
 54 444 54 444 58 460 c 128,-1,9
 62 476 62 476 74.5 485.5 c 128,-1,10
 87 495 87 495 106 495 c 0,11,12
 127 495 127 495 137.5 485 c 128,-1,13
 148 475 148 475 154 449 c 2,14,-1
 245 82 l 1,15,-1
 215 82 l 1,16,-1
 390 386 l 2,17,18
 413 426 413 426 437 450.5 c 128,-1,19
 461 475 461 475 492 486 c 128,-1,20
 523 497 523 497 564 497 c 256,21,22
 605 497 605 497 620.5 487 c 128,-1,23
 636 477 636 477 636 457 c 0,24,25
 636 440 636 440 627.5 427 c 128,-1,26
 619 414 619 414 606 414 c 0,27,28
 602 414 602 414 590.5 415 c 128,-1,29
 579 416 579 416 569 416 c 0,30,31
 540 416 540 416 516.5 400.5 c 128,-1,32
 493 385 493 385 468 342 c 2,33,-1
 177 -151 l 2,34,35
 166 -170 166 -170 153.5 -178.5 c 128,-1,36
 141 -187 141 -187 122 -187 c 0,0,1
EndSplineSet
EndChar

StartChar: z
Encoding: 122 122 482
Width: 468
GlyphClass: 2
Flags: W
AnchorPoint: "Anchor-2" 212 0 basechar 0
AnchorPoint: "Anchor-0" 275 484 basechar 0
LayerCount: 2
Fore
SplineSet
61 0 m 2,0,1
 45 0 45 0 34 7 c 128,-1,2
 23 14 23 14 19 25 c 128,-1,3
 15 36 15 36 18.5 49.5 c 128,-1,4
 22 63 22 63 34 76 c 2,5,-1
 361 435 l 1,6,-1
 364 411 l 1,7,-1
 118 411 l 2,8,9
 99 411 99 411 88 419.5 c 128,-1,10
 77 428 77 428 77 443 c 0,11,12
 77 464 77 464 89.5 476 c 128,-1,13
 102 488 102 488 123 488 c 2,14,-1
 420 488 l 2,15,16
 437 488 437 488 448 481 c 128,-1,17
 459 474 459 474 462.5 462.5 c 128,-1,18
 466 451 466 451 462 437 c 128,-1,19
 458 423 458 423 444 408 c 2,20,-1
 118 50 l 1,21,-1
 114 77 l 1,22,-1
 374 77 l 2,23,24
 415 77 415 77 415 45 c 0,25,26
 415 25 415 25 403 12.5 c 128,-1,27
 391 0 391 0 369 0 c 2,28,-1
 61 0 l 2,0,1
EndSplineSet
EndChar

StartChar: germandbls.calt
Encoding: 65540 -1 487
Width: 720
GlyphClass: 1
Flags: W
LayerCount: 2
Fore
SplineSet
409 -9 m 0,0,1
 364 -9 364 -9 320.5 3 c 128,-1,2
 277 15 277 15 243 37 c 0,3,4
 230 46 230 46 225.5 58.5 c 128,-1,5
 221 71 221 71 224.5 83.5 c 128,-1,6
 228 96 228 96 236.5 105 c 128,-1,7
 245 114 245 114 257.5 116.5 c 128,-1,8
 270 119 270 119 284 110 c 0,9,10
 314 92 314 92 345 84 c 128,-1,11
 376 76 376 76 408 76 c 0,12,13
 479 76 479 76 516.5 111 c 128,-1,14
 554 146 554 146 554 208 c 0,15,16
 554 257 554 257 520 284.5 c 128,-1,17
 486 312 486 312 418 312 c 2,18,-1
 337 312 l 2,19,20
 321 312 321 312 311 321 c 128,-1,21
 301 330 301 330 301 345 c 0,22,23
 301 369 301 369 312.5 382 c 128,-1,24
 324 395 324 395 345 395 c 2,25,-1
 422 395 l 2,26,27
 489 395 489 395 528.5 427 c 128,-1,28
 568 459 568 459 568 522 c 0,29,30
 568 569 568 569 530 598.5 c 128,-1,31
 492 628 492 628 421 628 c 0,32,33
 330 628 330 628 281.5 585.5 c 128,-1,34
 233 543 233 543 219 454 c 2,35,-1
 153 42 l 2,36,37
 150 18 150 18 136 5.5 c 128,-1,38
 122 -7 122 -7 96 -7 c 0,39,40
 72 -7 72 -7 60 8 c 128,-1,41
 48 23 48 23 52 50 c 2,42,-1
 117 464 l 2,43,44
 132 553 132 553 171.5 608 c 128,-1,45
 211 663 211 663 275.5 688.5 c 128,-1,46
 340 714 340 714 430 714 c 0,47,48
 507 714 507 714 560.5 690.5 c 128,-1,49
 614 667 614 667 641.5 626 c 128,-1,50
 669 585 669 585 669 534 c 0,51,52
 669 462 669 462 624.5 413 c 128,-1,53
 580 364 580 364 511 350 c 1,54,-1
 511 366 l 1,55,56
 557 358 557 358 588.5 335 c 128,-1,57
 620 312 620 312 637 277 c 128,-1,58
 654 242 654 242 654 201 c 0,59,60
 654 139 654 139 626.5 91.5 c 128,-1,61
 599 44 599 44 544 17.5 c 128,-1,62
 489 -9 489 -9 409 -9 c 0,0,1
EndSplineSet
EndChar

StartChar: a.ss01
Encoding: 65542 -1 489
Width: 591
GlyphClass: 2
Flags: W
AnchorPoint: "Anchor-3" 456 0 basechar 0
AnchorPoint: "Anchor-2" 260 0 basechar 0
AnchorPoint: "Anchor-0" 323 484 basechar 0
LayerCount: 2
Fore
SplineSet
227 -9 m 0,0,1
 170 -9 170 -9 128.5 16.5 c 128,-1,2
 87 42 87 42 63.5 89 c 128,-1,3
 40 136 40 136 40 200 c 0,4,5
 40 282 40 282 69 349.5 c 128,-1,6
 98 417 98 417 153 457 c 128,-1,7
 208 497 208 497 285 497 c 0,8,9
 343 497 343 497 388 468 c 128,-1,10
 433 439 433 439 449 382 c 1,11,-1
 441 367 l 1,12,-1
 453 444 l 2,13,14
 457 469 457 469 471.5 482 c 128,-1,15
 486 495 486 495 510 495 c 256,16,17
 534 495 534 495 544.5 480 c 128,-1,18
 555 465 555 465 551 437 c 2,19,-1
 488 43 l 2,20,21
 484 18 484 18 469.5 5.5 c 128,-1,22
 455 -7 455 -7 430 -7 c 0,23,24
 407 -7 407 -7 397.5 9 c 128,-1,25
 388 25 388 25 392 52 c 2,26,-1
 403 119 l 1,27,-1
 406 98 l 1,28,29
 379 49 379 49 333.5 20 c 128,-1,30
 288 -9 288 -9 227 -9 c 0,0,1
263 69 m 0,31,32
 314 69 314 69 349 98 c 128,-1,33
 384 127 384 127 402.5 175.5 c 128,-1,34
 421 224 421 224 421 283 c 0,35,36
 421 349 421 349 389 383.5 c 128,-1,37
 357 418 357 418 301 418 c 0,38,39
 250 418 250 418 215 389.5 c 128,-1,40
 180 361 180 361 161 312.5 c 128,-1,41
 142 264 142 264 142 204 c 0,42,43
 142 139 142 139 174 104 c 128,-1,44
 206 69 206 69 263 69 c 0,31,32
EndSplineSet
EndChar

StartChar: l.ss02
Encoding: 65569 -1 516
Width: 242
GlyphClass: 2
Flags: W
AnchorPoint: "Anchor-5" 140 357 basechar 0
AnchorPoint: "Anchor-2" 82 0 basechar 0
AnchorPoint: "Anchor-1" 288 705 basechar 0
AnchorPoint: "Anchor-0" 194 705 basechar 0
LayerCount: 2
Fore
SplineSet
81 -7 m 0,0,1
 58 -7 58 -7 47 8 c 128,-1,2
 36 23 36 23 40 51 c 2,3,-1
 137 662 l 2,4,5
 141 687 141 687 155.5 699.5 c 128,-1,6
 170 712 170 712 195 712 c 0,7,8
 218 712 218 712 229.5 697.5 c 128,-1,9
 241 683 241 683 237 654 c 2,10,-1
 139 41 l 2,11,12
 131 -7 131 -7 81 -7 c 0,0,1
EndSplineSet
EndChar

StartChar: fi
Encoding: 64257 64257 525
Width: 582
GlyphClass: 3
LigCaretCntFixed: 1
Flags: W
LayerCount: 2
Fore
SplineSet
111 -7 m 0,0,1
 88 -7 88 -7 77 8.5 c 128,-1,2
 66 24 66 24 70 52 c 2,3,-1
 127 410 l 1,4,-1
 76 410 l 2,5,6
 56 410 56 410 46 418.5 c 128,-1,7
 36 427 36 427 36 441 c 0,8,9
 36 463 36 463 49 475.5 c 128,-1,10
 62 488 62 488 83 488 c 2,11,-1
 151 488 l 1,12,-1
 137 475 l 1,13,-1
 144 519 l 2,14,15
 157 602 157 602 210 650.5 c 128,-1,16
 263 699 263 699 358 706 c 2,17,-1
 387 708 l 2,18,19
 404 709 404 709 413.5 702 c 128,-1,20
 423 695 423 695 426.5 683.5 c 128,-1,21
 430 672 430 672 427 660.5 c 128,-1,22
 424 649 424 649 416 640.5 c 128,-1,23
 408 632 408 632 395 631 c 2,24,-1
 366 629 l 2,25,26
 313 625 313 625 283 598 c 128,-1,27
 253 571 253 571 245 519 c 2,28,-1
 238 478 l 1,29,-1
 230 488 l 1,30,-1
 499 488 l 2,31,32
 523 488 523 488 534 475 c 128,-1,33
 545 462 545 462 541 436 c 2,34,-1
 479 43 l 2,35,36
 476 18 476 18 461.5 5.5 c 128,-1,37
 447 -7 447 -7 421 -7 c 0,38,39
 398 -7 398 -7 386.5 8.5 c 128,-1,40
 375 24 375 24 379 52 c 2,41,-1
 436 410 l 1,42,-1
 228 410 l 1,43,-1
 169 43 l 2,44,45
 161 -7 161 -7 111 -7 c 0,0,1
520 597 m 0,46,47
 494 597 494 597 479.5 611 c 128,-1,48
 465 625 465 625 468 650 c 0,49,50
 471 679 471 679 489 695 c 128,-1,51
 507 711 507 711 538 711 c 0,52,53
 565 711 565 711 579.5 697 c 128,-1,54
 594 683 594 683 591 658 c 0,55,56
 588 628 588 628 570 612.5 c 128,-1,57
 552 597 552 597 520 597 c 0,46,47
EndSplineSet
Ligature2: "'liga' Standard Ligatures lookup 33 subtable" f i
LCarets2: 1 292
EndChar

StartChar: ordfeminine
Encoding: 170 170 529
Width: 332
GlyphClass: 1
Flags: W
LayerCount: 2
Fore
SplineSet
167 409 m 0,0,1
 124 409 124 409 95 436 c 128,-1,2
 66 463 66 463 66 500 c 0,3,4
 66 546 66 546 109 567 c 128,-1,5
 152 588 152 588 239 588 c 2,6,-1
 301 588 l 1,7,-1
 294 548 l 1,8,-1
 244 548 l 2,9,10
 185 548 185 548 159.5 537.5 c 128,-1,11
 134 527 134 527 134 504 c 0,12,13
 134 483 134 483 148.5 470.5 c 128,-1,14
 163 458 163 458 186 458 c 0,15,16
 207 458 207 458 226.5 467.5 c 128,-1,17
 246 477 246 477 259.5 494 c 128,-1,18
 273 511 273 511 277 532 c 2,19,-1
 288 601 l 2,20,21
 293 632 293 632 275.5 647 c 128,-1,22
 258 662 258 662 224 662 c 0,23,24
 205 662 205 662 185 658 c 128,-1,25
 165 654 165 654 146 645 c 0,26,27
 133 640 133 640 123 644 c 128,-1,28
 113 648 113 648 109.5 657.5 c 128,-1,29
 106 667 106 667 111 677.5 c 128,-1,30
 116 688 116 688 130 693 c 0,31,32
 151 703 151 703 176.5 708.5 c 128,-1,33
 202 714 202 714 230 714 c 0,34,35
 275 714 275 714 304 697.5 c 128,-1,36
 333 681 333 681 345.5 652 c 128,-1,37
 358 623 358 623 352 584 c 2,38,-1
 329 440 l 2,39,40
 324 410 324 410 294 410 c 0,41,42
 278 410 278 410 270.5 419.5 c 128,-1,43
 263 429 263 429 265 443 c 2,44,-1
 270 470 l 1,45,-1
 267 470 l 1,46,47
 250 441 250 441 225 425 c 128,-1,48
 200 409 200 409 167 409 c 0,0,1
EndSplineSet
EndChar

StartChar: ordmasculine
Encoding: 186 186 530
Width: 345
GlyphClass: 1
Flags: W
LayerCount: 2
Fore
SplineSet
217 411 m 0,0,1
 175 411 175 411 142.5 428.5 c 128,-1,2
 110 446 110 446 91 477.5 c 128,-1,3
 72 509 72 509 72 551 c 0,4,5
 72 601 72 601 93.5 638 c 128,-1,6
 115 675 115 675 150.5 694.5 c 128,-1,7
 186 714 186 714 229 714 c 0,8,9
 271 714 271 714 303.5 697 c 128,-1,10
 336 680 336 680 354.5 648.5 c 128,-1,11
 373 617 373 617 373 574 c 0,12,13
 373 524 373 524 352.5 487 c 128,-1,14
 332 450 332 450 296.5 430.5 c 128,-1,15
 261 411 261 411 217 411 c 0,0,1
218 464 m 0,16,17
 256 464 256 464 280 492 c 128,-1,18
 304 520 304 520 304 575 c 0,19,20
 304 616 304 616 283 638.5 c 128,-1,21
 262 661 262 661 228 661 c 0,22,23
 190 661 190 661 166 633 c 128,-1,24
 142 605 142 605 142 550 c 0,25,26
 142 509 142 509 162.5 486.5 c 128,-1,27
 183 464 183 464 218 464 c 0,16,17
EndSplineSet
EndChar

StartChar: uni0411
Encoding: 1041 1041 532
Width: 666
GlyphClass: 1
Flags: W
LayerCount: 2
Fore
SplineSet
104 0 m 2,0,1
 76 0 76 0 62.5 16 c 128,-1,2
 49 32 49 32 53 60 c 2,3,-1
 148 654 l 2,4,5
 152 680 152 680 167 692.5 c 128,-1,6
 182 705 182 705 207 705 c 2,7,-1
 577 705 l 2,8,9
 599 705 599 705 610.5 696.5 c 128,-1,10
 622 688 622 688 622 671 c 0,11,12
 622 648 622 648 609 634.5 c 128,-1,13
 596 621 596 621 572 621 c 2,14,-1
 243 621 l 1,15,-1
 208 402 l 1,16,-1
 390 402 l 2,17,18
 503 402 503 402 560 351.5 c 128,-1,19
 617 301 617 301 617 220 c 0,20,21
 617 112 617 112 550 56 c 128,-1,22
 483 0 483 0 354 0 c 2,23,-1
 104 0 l 2,0,1
157 84 m 1,24,-1
 358 84 l 2,25,26
 437 84 437 84 476.5 117 c 128,-1,27
 516 150 516 150 516 215 c 0,28,29
 516 267 516 267 482 292.5 c 128,-1,30
 448 318 448 318 377 318 c 2,31,-1
 195 318 l 1,32,-1
 157 84 l 1,24,-1
EndSplineSet
EndChar

StartChar: uni0413
Encoding: 1043 1043 534
Width: 550
GlyphClass: 2
Flags: W
AnchorPoint: "Anchor-4" 176 355 basechar 0
AnchorPoint: "Anchor-0" 352 705 basechar 0
LayerCount: 2
Fore
SplineSet
96 -7 m 256,0,1
 70 -7 70 -7 59 9 c 128,-1,2
 48 25 48 25 52 54 c 2,3,-1
 148 654 l 2,4,5
 152 680 152 680 166.5 692.5 c 128,-1,6
 181 705 181 705 207 705 c 2,7,-1
 564 705 l 2,8,9
 587 705 587 705 599 696 c 128,-1,10
 611 687 611 687 611 670 c 0,11,12
 611 645 611 645 597 631.5 c 128,-1,13
 583 618 583 618 559 618 c 2,14,-1
 245 618 l 1,15,-1
 154 45 l 2,16,17
 150 20 150 20 136 6.5 c 128,-1,18
 122 -7 122 -7 96 -7 c 256,0,1
EndSplineSet
EndChar

StartChar: uni0490
Encoding: 1168 1168 536
Width: 550
GlyphClass: 1
Flags: W
LayerCount: 2
Fore
SplineSet
97 -7 m 256,0,1
 71 -7 71 -7 59.5 9 c 128,-1,2
 48 25 48 25 52 54 c 2,3,-1
 148 654 l 2,4,5
 152 680 152 680 167 692.5 c 128,-1,6
 182 705 182 705 207 705 c 2,7,-1
 515 705 l 1,8,-1
 534 826 l 2,9,10
 542 870 542 870 585 870 c 0,11,12
 608 870 608 870 618.5 856 c 128,-1,13
 629 842 629 842 625 818 c 2,14,-1
 602 668 l 2,15,16
 598 643 598 643 583 630.5 c 128,-1,17
 568 618 568 618 543 618 c 2,18,-1
 245 618 l 1,19,-1
 154 45 l 2,20,21
 150 20 150 20 136.5 6.5 c 128,-1,22
 123 -7 123 -7 97 -7 c 256,0,1
EndSplineSet
EndChar

StartChar: uni04F6
Encoding: 1270 1270 537
Width: 550
GlyphClass: 1
Flags: W
LayerCount: 2
Fore
SplineSet
175 -168 m 0,0,1
 155 -168 155 -168 144.5 -154 c 128,-1,2
 134 -140 134 -140 139 -114 c 2,3,-1
 157 0 l 1,4,-1
 97 0 l 2,5,6
 70 0 70 0 59.5 16 c 128,-1,7
 49 32 49 32 53 62 c 2,8,-1
 148 654 l 2,9,10
 152 680 152 680 166.5 692.5 c 128,-1,11
 181 705 181 705 207 705 c 2,12,-1
 564 705 l 2,13,14
 587 705 587 705 599 696 c 128,-1,15
 611 687 611 687 611 670 c 0,16,17
 611 645 611 645 597 631.5 c 128,-1,18
 583 618 583 618 559 618 c 2,19,-1
 245 618 l 1,20,-1
 155 52 l 1,21,-1
 127 84 l 1,22,-1
 205 84 l 2,23,24
 231 84 231 84 243.5 70.5 c 128,-1,25
 256 57 256 57 252 30 c 2,26,-1
 228 -122 l 2,27,28
 225 -145 225 -145 212 -156.5 c 128,-1,29
 199 -168 199 -168 175 -168 c 0,0,1
EndSplineSet
EndChar

StartChar: uni0492
Encoding: 1170 1170 538
Width: 589
GlyphClass: 1
Flags: W
LayerCount: 2
Fore
SplineSet
136 -7 m 0,0,1
 109 -7 109 -7 98 9.5 c 128,-1,2
 87 26 87 26 91 54 c 2,3,-1
 132 312 l 1,4,-1
 80 312 l 2,5,6
 60 312 60 312 49 320.5 c 128,-1,7
 38 329 38 329 38 344 c 0,8,9
 38 366 38 366 50.5 377.5 c 128,-1,10
 63 389 63 389 85 389 c 2,11,-1
 144 389 l 1,12,-1
 186 654 l 2,13,14
 190 680 190 680 205.5 692.5 c 128,-1,15
 221 705 221 705 246 705 c 2,16,-1
 604 705 l 2,17,18
 626 705 626 705 638.5 696 c 128,-1,19
 651 687 651 687 651 670 c 0,20,21
 651 645 651 645 637 631.5 c 128,-1,22
 623 618 623 618 598 618 c 2,23,-1
 284 618 l 1,24,-1
 248 389 l 1,25,-1
 387 389 l 2,26,27
 407 389 407 389 418 380.5 c 128,-1,28
 429 372 429 372 429 357 c 0,29,30
 429 336 429 336 416 324 c 128,-1,31
 403 312 403 312 382 312 c 2,32,-1
 235 312 l 1,33,-1
 193 45 l 2,34,35
 189 20 189 20 175.5 6.5 c 128,-1,36
 162 -7 162 -7 136 -7 c 0,0,1
EndSplineSet
Substitution2: "'locl' Localized Forms in Cyrillic lookup 16 subtable" uni0492.loclBSH
Substitution2: "'aalt' Access All Alternates lookup 0 subtable" uni0492.loclBSH
EndChar

StartChar: uni0494
Encoding: 1172 1172 539
Width: 683
GlyphClass: 1
Flags: W
LayerCount: 2
Fore
SplineSet
359 -189 m 0,0,1
 336 -189 336 -189 312.5 -186.5 c 128,-1,2
 289 -184 289 -184 270 -179 c 0,3,4
 255 -176 255 -176 246.5 -165.5 c 128,-1,5
 238 -155 238 -155 237.5 -143 c 128,-1,6
 237 -131 237 -131 242.5 -119.5 c 128,-1,7
 248 -108 248 -108 258.5 -101.5 c 128,-1,8
 269 -95 269 -95 283 -98 c 0,9,10
 298 -101 298 -101 313 -103.5 c 128,-1,11
 328 -106 328 -106 346 -106 c 0,12,13
 404 -106 404 -106 442.5 -66 c 128,-1,14
 481 -26 481 -26 493 51 c 2,15,-1
 507 136 l 2,16,17
 525 245 525 245 484.5 296.5 c 128,-1,18
 444 348 444 348 354 348 c 0,19,20
 313 348 313 348 273 340.5 c 128,-1,21
 233 333 233 333 197 313 c 1,22,-1
 154 44 l 2,23,24
 151 19 151 19 136.5 6 c 128,-1,25
 122 -7 122 -7 96 -7 c 0,26,27
 71 -7 71 -7 59.5 9 c 128,-1,28
 48 25 48 25 52 54 c 2,29,-1
 148 654 l 2,30,31
 152 680 152 680 167.5 692.5 c 128,-1,32
 183 705 183 705 208 705 c 2,33,-1
 577 705 l 2,34,35
 600 705 600 705 612 696 c 128,-1,36
 624 687 624 687 624 670 c 0,37,38
 624 645 624 645 610 631.5 c 128,-1,39
 596 618 596 618 571 618 c 2,40,-1
 245 618 l 1,41,-1
 212 405 l 1,42,43
 243 422 243 422 284 430 c 128,-1,44
 325 438 325 438 370 438 c 0,45,46
 435 438 435 438 485 418.5 c 128,-1,47
 535 399 535 399 567 361.5 c 128,-1,48
 599 324 599 324 611 268.5 c 128,-1,49
 623 213 623 213 611 142 c 2,50,-1
 597 55 l 2,51,52
 584 -23 584 -23 553 -77.5 c 128,-1,53
 522 -132 522 -132 473.5 -160.5 c 128,-1,54
 425 -189 425 -189 359 -189 c 0,0,1
EndSplineSet
EndChar

StartChar: uni0414
Encoding: 1044 1044 540
Width: 788
GlyphClass: 1
Flags: W
AnchorPoint: "Anchor-0" 488 704 basechar 0
LayerCount: 2
Fore
SplineSet
-3 -168 m 0,0,1
 -25 -168 -25 -168 -35 -154.5 c 128,-1,2
 -45 -141 -45 -141 -41 -116 c 2,3,-1
 -18 39 l 2,4,5
 -10 84 -10 84 36 84 c 2,6,-1
 88 84 l 1,7,-1
 48 72 l 1,8,9
 112 131 112 131 156 239.5 c 128,-1,10
 200 348 200 348 227 519 c 2,11,-1
 248 654 l 2,12,13
 252 679 252 679 267.5 692 c 128,-1,14
 283 705 283 705 308 705 c 2,15,-1
 678 705 l 2,16,17
 707 705 707 705 720.5 689.5 c 128,-1,18
 734 674 734 674 729 645 c 2,19,-1
 635 53 l 1,20,-1
 614 84 l 1,21,-1
 687 84 l 2,22,23
 712 84 712 84 724 70 c 128,-1,24
 736 56 736 56 732 30 c 2,25,-1
 706 -124 l 2,26,27
 699 -168 699 -168 656 -168 c 0,28,29
 634 -168 634 -168 623.5 -154.5 c 128,-1,30
 613 -141 613 -141 616 -116 c 2,31,-1
 634 0 l 1,32,-1
 69 0 l 1,33,-1
 49 -124 l 2,34,35
 42 -168 42 -168 -3 -168 c 0,0,1
172 84 m 1,36,-1
 537 84 l 1,37,-1
 622 621 l 1,38,-1
 340 621 l 1,39,-1
 323 514 l 2,40,41
 298 357 298 357 262.5 251 c 128,-1,42
 227 145 227 145 172 84 c 1,36,-1
EndSplineSet
EndChar

StartChar: uni0416
Encoding: 1046 1046 544
Width: 989
GlyphClass: 2
Flags: W
AnchorPoint: "Anchor-0" 568 705 basechar 0
LayerCount: 2
Fore
SplineSet
457 -7 m 0,0,1
 432 -7 432 -7 421 7.5 c 128,-1,2
 410 22 410 22 414 48 c 2,3,-1
 456 311 l 1,4,-1
 379 311 l 2,5,6
 326 311 326 311 286.5 286.5 c 128,-1,7
 247 262 247 262 211 205 c 2,8,-1
 95 21 l 2,9,10
 84 4 84 4 68.5 -2.5 c 128,-1,11
 53 -9 53 -9 38 -6 c 128,-1,12
 23 -3 23 -3 13 7.5 c 128,-1,13
 3 18 3 18 2 34.5 c 128,-1,14
 1 51 1 51 14 71 c 2,15,-1
 126 248 l 2,16,17
 168 314 168 314 218 350 c 128,-1,18
 268 386 268 386 331 394 c 1,19,-1
 295 363 l 1,20,-1
 154 642 l 2,21,22
 144 661 144 661 147.5 676.5 c 128,-1,23
 151 692 151 692 163 701 c 128,-1,24
 175 710 175 710 190 711.5 c 128,-1,25
 205 713 205 713 219.5 705.5 c 128,-1,26
 234 698 234 698 243 680 c 2,27,-1
 389 381 l 1,28,-1
 367 398 l 1,29,-1
 469 398 l 1,30,-1
 512 666 l 2,31,32
 516 690 516 690 529.5 701 c 128,-1,33
 543 712 543 712 566 712 c 0,34,35
 591 712 591 712 602.5 697.5 c 128,-1,36
 614 683 614 683 610 657 c 2,37,-1
 569 398 l 1,38,-1
 661 398 l 1,39,-1
 640 381 l 1,40,-1
 888 689 l 2,41,42
 901 705 901 705 916 709 c 128,-1,43
 931 713 931 713 945.5 709 c 128,-1,44
 960 705 960 705 968.5 694 c 128,-1,45
 977 683 977 683 976 667.5 c 128,-1,46
 975 652 975 652 961 634 c 2,47,-1
 737 363 l 1,48,-1
 695 394 l 1,49,50
 735 389 735 389 766.5 370.5 c 128,-1,51
 798 352 798 352 820.5 321.5 c 128,-1,52
 843 291 843 291 857 248 c 2,53,-1
 921 62 l 2,54,55
 929 41 929 41 923.5 25.5 c 128,-1,56
 918 10 918 10 905.5 1.5 c 128,-1,57
 893 -7 893 -7 877 -7 c 128,-1,58
 861 -7 861 -7 847 2.5 c 128,-1,59
 833 12 833 12 827 32 c 2,60,-1
 769 206 l 2,61,62
 751 262 751 262 718.5 286.5 c 128,-1,63
 686 311 686 311 633 311 c 2,64,-1
 555 311 l 1,65,-1
 512 40 l 2,66,67
 509 17 509 17 495 5 c 128,-1,68
 481 -7 481 -7 457 -7 c 0,0,1
EndSplineSet
EndChar

StartChar: uni0417
Encoding: 1047 1047 545
Width: 638
GlyphClass: 2
Flags: W
AnchorPoint: "Anchor-2" 288 0 basechar 0
AnchorPoint: "Anchor-0" 384 705 basechar 0
LayerCount: 2
Fore
SplineSet
299 -9 m 0,0,1
 226 -9 226 -9 162 8 c 128,-1,2
 98 25 98 25 46 62 c 0,3,4
 33 71 33 71 28.5 84.5 c 128,-1,5
 24 98 24 98 27 111.5 c 128,-1,6
 30 125 30 125 39 134 c 128,-1,7
 48 143 48 143 61.5 144.5 c 128,-1,8
 75 146 75 146 92 135 c 0,9,10
 123 115 123 115 156 102.5 c 128,-1,11
 189 90 189 90 225 85 c 128,-1,12
 261 80 261 80 299 80 c 0,13,14
 344 80 344 80 382.5 92.5 c 128,-1,15
 421 105 421 105 445.5 134 c 128,-1,16
 470 163 470 163 470 212 c 0,17,18
 470 264 470 264 437 290 c 128,-1,19
 404 316 404 316 340 316 c 2,20,-1
 214 316 l 2,21,22
 191 316 191 316 179 325.5 c 128,-1,23
 167 335 167 335 168 352 c 0,24,25
 170 374 170 374 183.5 386.5 c 128,-1,26
 197 399 197 399 219 399 c 2,27,-1
 349 399 l 2,28,29
 421 399 421 399 463 431 c 128,-1,30
 505 463 505 463 505 525 c 0,31,32
 505 561 505 561 487 583 c 128,-1,33
 469 605 469 605 437 615.5 c 128,-1,34
 405 626 405 626 363 626 c 0,35,36
 314 626 314 626 265.5 613.5 c 128,-1,37
 217 601 217 601 175 576 c 0,38,39
 156 565 156 565 141 567 c 128,-1,40
 126 569 126 569 116.5 578 c 128,-1,41
 107 587 107 587 105.5 601 c 128,-1,42
 104 615 104 615 111 628.5 c 128,-1,43
 118 642 118 642 135 651 c 0,44,45
 186 682 186 682 248.5 698 c 128,-1,46
 311 714 311 714 374 714 c 0,47,48
 443 714 443 714 495.5 693.5 c 128,-1,49
 548 673 548 673 577.5 634 c 128,-1,50
 607 595 607 595 607 541 c 0,51,52
 607 462 607 462 558.5 412.5 c 128,-1,53
 510 363 510 363 430 351 c 1,54,-1
 430 367 l 1,55,56
 497 355 497 355 534.5 312.5 c 128,-1,57
 572 270 572 270 572 207 c 0,58,59
 572 133 572 133 537 85.5 c 128,-1,60
 502 38 502 38 440 14.5 c 128,-1,61
 378 -9 378 -9 299 -9 c 0,0,1
EndSplineSet
EndChar

StartChar: uni0418
Encoding: 1048 1048 546
Width: 743
GlyphClass: 2
Flags: W
AnchorPoint: "Anchor-0" 443 705 basechar 0
LayerCount: 2
Fore
SplineSet
85 -9 m 0,0,1
 71 -9 71 -9 63.5 -4.5 c 128,-1,2
 56 0 56 0 53 7.5 c 128,-1,3
 50 15 50 15 49.5 23.5 c 128,-1,4
 49 32 49 32 50 40 c 2,5,-1
 149 664 l 2,6,7
 153 689 153 689 167 700.5 c 128,-1,8
 181 712 181 712 203 712 c 0,9,10
 228 712 228 712 238 697 c 128,-1,11
 248 682 248 682 244 656 c 2,12,-1
 162 141 l 1,13,-1
 137 143 l 1,14,-1
 639 687 l 2,15,16
 647 696 647 696 659.5 704 c 128,-1,17
 672 712 672 712 692 712 c 0,18,19
 711 712 711 712 719 704.5 c 128,-1,20
 727 697 727 697 728 686.5 c 128,-1,21
 729 676 729 676 727 664 c 2,22,-1
 629 41 l 2,23,24
 626 17 626 17 611.5 5 c 128,-1,25
 597 -7 597 -7 575 -7 c 0,26,27
 550 -7 550 -7 540 8 c 128,-1,28
 530 23 530 23 534 50 c 2,29,-1
 615 565 l 1,30,-1
 640 563 l 1,31,-1
 137 16 l 2,32,33
 129 8 129 8 117.5 -0.5 c 128,-1,34
 106 -9 106 -9 85 -9 c 0,0,1
EndSplineSet
EndChar

StartChar: uni048A
Encoding: 1162 1162 549
Width: 783
GlyphClass: 1
Flags: W
LayerCount: 2
Fore
SplineSet
640 -141 m 2,0,1
 632 -157 632 -157 620 -163.5 c 128,-1,2
 608 -170 608 -170 595 -168.5 c 128,-1,3
 582 -167 582 -167 573 -159.5 c 128,-1,4
 564 -152 564 -152 561.5 -139 c 128,-1,5
 559 -126 559 -126 567 -110 c 2,6,-1
 636 30 l 1,7,-1
 636 0 l 1,8,-1
 579 0 l 2,9,10
 552 0 552 0 541 13.5 c 128,-1,11
 530 27 530 27 535 56 c 2,12,-1
 615 565 l 1,13,-1
 640 563 l 1,14,-1
 137 16 l 2,15,16
 129 8 129 8 117.5 -0.5 c 128,-1,17
 106 -9 106 -9 85 -9 c 0,18,19
 71 -9 71 -9 63.5 -4.5 c 128,-1,20
 56 0 56 0 53 7.5 c 128,-1,21
 50 15 50 15 49.5 23.5 c 128,-1,22
 49 32 49 32 50 40 c 2,23,-1
 149 664 l 2,24,25
 153 689 153 689 167 700.5 c 128,-1,26
 181 712 181 712 203 712 c 0,27,28
 228 712 228 712 238 697 c 128,-1,29
 248 682 248 682 244 656 c 2,30,-1
 162 141 l 1,31,-1
 137 143 l 1,32,-1
 639 687 l 2,33,34
 647 696 647 696 659.5 704 c 128,-1,35
 672 712 672 712 692 712 c 0,36,37
 711 712 711 712 719 704.5 c 128,-1,38
 727 697 727 697 728 686.5 c 128,-1,39
 729 676 729 676 727 664 c 2,40,-1
 631 53 l 1,41,-1
 622 84 l 1,42,-1
 682 84 l 2,43,44
 712 84 712 84 724 67.5 c 128,-1,45
 736 51 736 51 721 22 c 2,46,-1
 640 -141 l 2,0,1
447 760 m 0,47,48
 387 760 387 760 340.5 787 c 128,-1,49
 294 814 294 814 273 867 c 0,50,51
 266 884 266 884 271 895 c 128,-1,52
 276 906 276 906 289 912 c 0,53,54
 303 917 303 917 313 911 c 128,-1,55
 323 905 323 905 332 888 c 0,56,57
 349 854 349 854 377.5 837 c 128,-1,58
 406 820 406 820 451 820 c 0,59,60
 497 820 497 820 530 837.5 c 128,-1,61
 563 855 563 855 590 895 c 0,62,63
 599 908 599 908 609 913 c 128,-1,64
 619 918 619 918 631 913 c 0,65,66
 643 907 643 907 646.5 897 c 128,-1,67
 650 887 650 887 641 871 c 0,68,69
 609 813 609 813 558.5 786.5 c 128,-1,70
 508 760 508 760 447 760 c 0,47,48
EndSplineSet
EndChar

StartChar: uni041A
Encoding: 1050 1050 550
Width: 656
GlyphClass: 2
Flags: W
AnchorPoint: "Anchor-5" 350 353 basechar 0
AnchorPoint: "Anchor-0" 405 705 basechar 0
LayerCount: 2
Fore
SplineSet
96 -7 m 0,0,1
 72 -7 72 -7 60 8 c 128,-1,2
 48 23 48 23 52 50 c 2,3,-1
 150 666 l 2,4,5
 154 691 154 691 167.5 701.5 c 128,-1,6
 181 712 181 712 206 712 c 0,7,8
 232 712 232 712 243.5 697 c 128,-1,9
 255 682 255 682 251 655 c 2,10,-1
 210 398 l 1,11,-1
 329 398 l 1,12,-1
 307 381 l 1,13,-1
 556 689 l 2,14,15
 569 705 569 705 584 709.5 c 128,-1,16
 599 714 599 714 613 709.5 c 128,-1,17
 627 705 627 705 635.5 694 c 128,-1,18
 644 683 644 683 643.5 667.5 c 128,-1,19
 643 652 643 652 629 634 c 2,20,-1
 407 363 l 1,21,-1
 362 394 l 1,22,23
 423 386 423 386 462.5 349.5 c 128,-1,24
 502 313 502 313 525 248 c 2,25,-1
 589 62 l 2,26,27
 596 41 596 41 590.5 25.5 c 128,-1,28
 585 10 585 10 572.5 1.5 c 128,-1,29
 560 -7 560 -7 544.5 -7 c 128,-1,30
 529 -7 529 -7 515 2.5 c 128,-1,31
 501 12 501 12 494 32 c 2,32,-1
 436 205 l 2,33,34
 418 262 418 262 385.5 286.5 c 128,-1,35
 353 311 353 311 301 311 c 2,36,-1
 197 311 l 1,37,-1
 154 43 l 2,38,39
 150 18 150 18 136 5.5 c 128,-1,40
 122 -7 122 -7 96 -7 c 0,0,1
EndSplineSet
EndChar

StartChar: uni041B
Encoding: 1051 1051 552
Width: 746
GlyphClass: 2
Flags: W
LayerCount: 2
Fore
SplineSet
573 -7 m 0,0,1
 548 -7 548 -7 537 8 c 128,-1,2
 526 23 526 23 530 52 c 2,3,-1
 619 618 l 1,4,-1
 337 618 l 1,5,-1
 310 449 l 2,6,7
 294 348 294 348 271 274 c 128,-1,8
 248 200 248 200 217.5 147 c 128,-1,9
 187 94 187 94 147.5 58.5 c 128,-1,10
 108 23 108 23 59 -2 c 0,11,12
 39 -12 39 -12 21.5 -8.5 c 128,-1,13
 4 -5 4 -5 -7 15 c 0,14,15
 -17 34 -17 34 -11.5 50.5 c 128,-1,16
 -6 67 -6 67 15 78 c 0,17,18
 50 96 50 96 80 124.5 c 128,-1,19
 110 153 110 153 135.5 197.5 c 128,-1,20
 161 242 161 242 182 310 c 128,-1,21
 203 378 203 378 218 476 c 2,22,-1
 247 653 l 2,23,24
 251 679 251 679 266 692 c 128,-1,25
 281 705 281 705 307 705 c 2,26,-1
 676 705 l 2,27,28
 704 705 704 705 717.5 689.5 c 128,-1,29
 731 674 731 674 727 645 c 2,30,-1
 631 42 l 2,31,32
 628 18 628 18 613.5 5.5 c 128,-1,33
 599 -7 599 -7 573 -7 c 0,0,1
EndSplineSet
EndChar

StartChar: uni041F
Encoding: 1055 1055 556
Width: 760
GlyphClass: 2
Flags: W
LayerCount: 2
Fore
SplineSet
96 -7 m 0,0,1
 71 -7 71 -7 59.5 7.5 c 128,-1,2
 48 22 48 22 52 51 c 2,3,-1
 148 654 l 2,4,5
 152 680 152 680 167 692.5 c 128,-1,6
 182 705 182 705 207 705 c 2,7,-1
 691 705 l 2,8,9
 720 705 720 705 733 689.5 c 128,-1,10
 746 674 746 674 742 645 c 2,11,-1
 646 42 l 2,12,13
 643 17 643 17 628.5 5 c 128,-1,14
 614 -7 614 -7 589 -7 c 256,15,16
 564 -7 564 -7 552 8 c 128,-1,17
 540 23 540 23 545 51 c 2,18,-1
 634 618 l 1,19,-1
 245 618 l 1,20,-1
 154 42 l 2,21,22
 151 18 151 18 136.5 5.5 c 128,-1,23
 122 -7 122 -7 96 -7 c 0,0,1
EndSplineSet
EndChar

StartChar: uni0423
Encoding: 1059 1059 560
Width: 651
GlyphClass: 2
Flags: W
AnchorPoint: "Anchor-0" 389 705 basechar 0
LayerCount: 2
Fore
SplineSet
223 -7 m 0,0,1
 204 -7 204 -7 191.5 2.5 c 128,-1,2
 179 12 179 12 177 27.5 c 128,-1,3
 175 43 175 43 187 61 c 2,4,-1
 301 232 l 1,5,-1
 301 196 l 1,6,-1
 92 649 l 2,7,8
 84 667 84 667 87.5 681 c 128,-1,9
 91 695 91 695 104.5 703.5 c 128,-1,10
 118 712 118 712 136 712 c 0,11,12
 159 712 159 712 169 699 c 128,-1,13
 179 686 179 686 188 668 c 2,14,-1
 361 290 l 1,15,-1
 340 290 l 1,16,-1
 602 680 l 2,17,18
 611 692 611 692 623 702 c 128,-1,19
 635 712 635 712 656 712 c 0,20,21
 675 712 675 712 687 703 c 128,-1,22
 699 694 699 694 701 678.5 c 128,-1,23
 703 663 703 663 692 646 c 2,24,-1
 277 26 l 2,25,26
 268 13 268 13 256 3 c 128,-1,27
 244 -7 244 -7 223 -7 c 0,0,1
EndSplineSet
EndChar

StartChar: uni0424
Encoding: 1060 1060 562
Width: 863
GlyphClass: 1
Flags: W
LayerCount: 2
Fore
SplineSet
390 -31 m 0,0,1
 363 -31 363 -31 352.5 -14.5 c 128,-1,2
 342 2 342 2 346 30 c 2,3,-1
 355 87 l 1,4,-1
 385 56 l 1,5,-1
 378 56 l 2,6,7
 288 56 288 56 219.5 88 c 128,-1,8
 151 120 151 120 112.5 179 c 128,-1,9
 74 238 74 238 74 321 c 0,10,11
 74 387 74 387 98 447.5 c 128,-1,12
 122 508 122 508 168.5 556 c 128,-1,13
 215 604 215 604 282.5 632 c 128,-1,14
 350 660 350 660 436 660 c 2,15,-1
 468 660 l 1,16,-1
 441 628 l 1,17,-1
 450 690 l 2,18,19
 455 716 455 716 469.5 728.5 c 128,-1,20
 484 741 484 741 508 741 c 0,21,22
 533 741 533 741 545 725.5 c 128,-1,23
 557 710 557 710 553 681 c 2,24,-1
 544 626 l 1,25,-1
 514 658 l 1,26,-1
 521 658 l 2,27,28
 612 658 612 658 680 626.5 c 128,-1,29
 748 595 748 595 786.5 535.5 c 128,-1,30
 825 476 825 476 825 393 c 0,31,32
 825 327 825 327 801 266 c 128,-1,33
 777 205 777 205 730.5 157 c 128,-1,34
 684 109 684 109 617 81 c 128,-1,35
 550 53 550 53 462 53 c 2,36,-1
 431 53 l 1,37,-1
 458 85 l 1,38,-1
 448 22 l 2,39,40
 444 -5 444 -5 429 -18 c 128,-1,41
 414 -31 414 -31 390 -31 c 0,0,1
360 117 m 1,42,-1
 436 599 l 1,43,-1
 456 579 l 1,44,-1
 430 579 l 2,45,46
 369 579 369 579 322.5 558 c 128,-1,47
 276 537 276 537 244.5 500.5 c 128,-1,48
 213 464 213 464 196.5 418 c 128,-1,49
 180 372 180 372 180 322 c 0,50,51
 180 263 180 263 203.5 221.5 c 128,-1,52
 227 180 227 180 273 158.5 c 128,-1,53
 319 137 319 137 386 137 c 2,54,-1
 392 137 l 1,55,-1
 360 117 l 1,42,-1
462 115 m 1,56,-1
 443 134 l 1,57,-1
 470 134 l 2,58,59
 530 134 530 134 576.5 155.5 c 128,-1,60
 623 177 623 177 655 213 c 128,-1,61
 687 249 687 249 703 295.5 c 128,-1,62
 719 342 719 342 719 391 c 0,63,64
 719 451 719 451 696 492 c 128,-1,65
 673 533 673 533 627.5 555 c 128,-1,66
 582 577 582 577 516 577 c 2,67,-1
 509 577 l 1,68,-1
 538 597 l 1,69,-1
 462 115 l 1,56,-1
EndSplineSet
EndChar

StartChar: uni0427
Encoding: 1063 1063 564
Width: 685
GlyphClass: 2
Flags: W
AnchorPoint: "Anchor-5" 313 295 basechar 0
AnchorPoint: "Anchor-0" 397 705 basechar 0
LayerCount: 2
Fore
SplineSet
514 -7 m 0,0,1
 487 -7 487 -7 476.5 9 c 128,-1,2
 466 25 466 25 469 54 c 2,3,-1
 506 287 l 1,4,5
 474 272 474 272 430 263.5 c 128,-1,6
 386 255 386 255 341 255 c 0,7,8
 254 255 254 255 196 289.5 c 128,-1,9
 138 324 138 324 114.5 389.5 c 128,-1,10
 91 455 91 455 106 550 c 2,11,-1
 123 661 l 2,12,13
 127 687 127 687 142.5 699.5 c 128,-1,14
 158 712 158 712 181 712 c 0,15,16
 207 712 207 712 218 696 c 128,-1,17
 229 680 229 680 224 652 c 2,18,-1
 209 553 l 2,19,20
 191 445 191 445 228 395 c 128,-1,21
 265 345 265 345 357 345 c 0,22,23
 398 345 398 345 441 353 c 128,-1,24
 484 361 484 361 521 380 c 1,25,-1
 566 661 l 2,26,27
 570 687 570 687 585 699.5 c 128,-1,28
 600 712 600 712 624 712 c 0,29,30
 650 712 650 712 660.5 696 c 128,-1,31
 671 680 671 680 667 652 c 2,32,-1
 571 44 l 2,33,34
 567 19 567 19 552 6 c 128,-1,35
 537 -7 537 -7 514 -7 c 0,0,1
EndSplineSet
EndChar

StartChar: uni0426
Encoding: 1062 1062 565
Width: 801
GlyphClass: 1
Flags: W
LayerCount: 2
Fore
SplineSet
668 -168 m 0,0,1
 646 -168 646 -168 635.5 -153.5 c 128,-1,2
 625 -139 625 -139 629 -114 c 2,3,-1
 647 0 l 1,4,-1
 104 0 l 2,5,6
 76 0 76 0 62.5 16 c 128,-1,7
 49 32 49 32 53 60 c 2,8,-1
 150 664 l 2,9,10
 154 688 154 688 168 700 c 128,-1,11
 182 712 182 712 206 712 c 0,12,13
 232 712 232 712 243.5 697 c 128,-1,14
 255 682 255 682 251 654 c 2,15,-1
 161 87 l 1,16,-1
 550 87 l 1,17,-1
 641 662 l 2,18,19
 645 686 645 686 659 699 c 128,-1,20
 673 712 673 712 697 712 c 0,21,22
 724 712 724 712 736 697 c 128,-1,23
 748 682 748 682 743 654 c 2,24,-1
 651 69 l 1,25,-1
 616 87 l 1,26,-1
 697 87 l 2,27,28
 724 87 724 87 736.5 72.5 c 128,-1,29
 749 58 749 58 745 31 c 2,30,-1
 720 -124 l 2,31,32
 713 -168 713 -168 668 -168 c 0,0,1
EndSplineSet
EndChar

StartChar: uni0428
Encoding: 1064 1064 566
Width: 1061
GlyphClass: 1
Flags: W
LayerCount: 2
Fore
SplineSet
104 0 m 2,0,1
 76 0 76 0 63 16 c 128,-1,2
 50 32 50 32 54 60 c 2,3,-1
 150 663 l 2,4,5
 154 687 154 687 168 699.5 c 128,-1,6
 182 712 182 712 206 712 c 0,7,8
 231 712 231 712 242.5 697 c 128,-1,9
 254 682 254 682 250 654 c 2,10,-1
 160 87 l 1,11,-1
 454 87 l 1,12,-1
 545 663 l 2,13,14
 549 686 549 686 563 699 c 128,-1,15
 577 712 577 712 602 712 c 256,16,17
 627 712 627 712 638.5 697 c 128,-1,18
 650 682 650 682 646 654 c 2,19,-1
 556 87 l 1,20,-1
 851 87 l 1,21,-1
 942 663 l 2,22,23
 946 686 946 686 959.5 699 c 128,-1,24
 973 712 973 712 998 712 c 256,25,26
 1023 712 1023 712 1035 697 c 128,-1,27
 1047 682 1047 682 1043 654 c 2,28,-1
 947 51 l 2,29,30
 943 25 943 25 927.5 12.5 c 128,-1,31
 912 0 912 0 887 0 c 2,32,-1
 104 0 l 2,0,1
EndSplineSet
EndChar

StartChar: uni0429
Encoding: 1065 1065 567
Width: 1100
GlyphClass: 1
Flags: W
LayerCount: 2
Fore
SplineSet
967 -168 m 256,0,1
 945 -168 945 -168 935 -153.5 c 128,-1,2
 925 -139 925 -139 928 -114 c 2,3,-1
 947 0 l 1,4,-1
 104 0 l 2,5,6
 76 0 76 0 62.5 16 c 128,-1,7
 49 32 49 32 54 60 c 2,8,-1
 150 663 l 2,9,10
 154 687 154 687 168 699.5 c 128,-1,11
 182 712 182 712 206 712 c 0,12,13
 231 712 231 712 242.5 697 c 128,-1,14
 254 682 254 682 250 654 c 2,15,-1
 160 87 l 1,16,-1
 454 87 l 1,17,-1
 546 663 l 2,18,19
 550 686 550 686 563.5 699 c 128,-1,20
 577 712 577 712 602 712 c 256,21,22
 627 712 627 712 638.5 697 c 128,-1,23
 650 682 650 682 646 654 c 2,24,-1
 556 87 l 1,25,-1
 851 87 l 1,26,-1
 941 663 l 2,27,28
 946 686 946 686 959.5 699 c 128,-1,29
 973 712 973 712 998 712 c 0,30,31
 1024 712 1024 712 1035.5 698 c 128,-1,32
 1047 684 1047 684 1043 657 c 2,33,-1
 950 69 l 1,34,-1
 916 87 l 1,35,-1
 997 87 l 2,36,37
 1023 87 1023 87 1036 72.5 c 128,-1,38
 1049 58 1049 58 1045 32 c 2,39,-1
 1020 -122 l 2,40,41
 1017 -145 1017 -145 1003 -156.5 c 128,-1,42
 989 -168 989 -168 967 -168 c 256,0,1
EndSplineSet
EndChar

StartChar: uni040F
Encoding: 1039 1039 568
Width: 760
GlyphClass: 1
Flags: W
LayerCount: 2
Fore
SplineSet
317 -168 m 0,0,1
 295 -168 295 -168 285 -153.5 c 128,-1,2
 275 -139 275 -139 278 -114 c 2,3,-1
 297 0 l 1,4,-1
 104 0 l 2,5,6
 76 0 76 0 62.5 16 c 128,-1,7
 49 32 49 32 53 60 c 2,8,-1
 149 663 l 2,9,10
 153 687 153 687 167.5 699.5 c 128,-1,11
 182 712 182 712 205 712 c 0,12,13
 231 712 231 712 243 697 c 128,-1,14
 255 682 255 682 251 654 c 2,15,-1
 161 87 l 1,16,-1
 550 87 l 1,17,-1
 641 664 l 2,18,19
 645 689 645 689 659 700.5 c 128,-1,20
 673 712 673 712 697 712 c 0,21,22
 724 712 724 712 735.5 697 c 128,-1,23
 747 682 747 682 743 654 c 2,24,-1
 647 51 l 2,25,26
 643 25 643 25 628 12.5 c 128,-1,27
 613 0 613 0 588 0 c 2,28,-1
 388 0 l 1,29,-1
 369 -122 l 2,30,31
 365 -145 365 -145 351.5 -156.5 c 128,-1,32
 338 -168 338 -168 317 -168 c 0,0,1
EndSplineSet
EndChar

StartChar: uni042C
Encoding: 1068 1068 569
Width: 666
GlyphClass: 1
Flags: W
LayerCount: 2
Fore
SplineSet
104 0 m 2,0,1
 76 0 76 0 62.5 16 c 128,-1,2
 49 32 49 32 53 60 c 2,3,-1
 149 661 l 2,4,5
 153 686 153 686 167 699 c 128,-1,6
 181 712 181 712 206 712 c 0,7,8
 232 712 232 712 243.5 697 c 128,-1,9
 255 682 255 682 251 654 c 2,10,-1
 210 402 l 1,11,-1
 390 402 l 2,12,13
 466 402 466 402 516 378.5 c 128,-1,14
 566 355 566 355 591.5 315 c 128,-1,15
 617 275 617 275 617 220 c 0,16,17
 617 112 617 112 550.5 56 c 128,-1,18
 484 0 484 0 356 0 c 2,19,-1
 104 0 l 2,0,1
160 84 m 1,20,-1
 358 84 l 2,21,22
 437 84 437 84 476.5 117 c 128,-1,23
 516 150 516 150 516 215 c 0,24,25
 516 267 516 267 482 292.5 c 128,-1,26
 448 318 448 318 377 318 c 2,27,-1
 197 318 l 1,28,-1
 160 84 l 1,20,-1
EndSplineSet
EndChar

StartChar: uni042B
Encoding: 1067 1067 570
Width: 876
GlyphClass: 2
Flags: W
AnchorPoint: "Anchor-0" 506 705 basechar 0
LayerCount: 2
Fore
SplineSet
104 0 m 2,0,1
 76 0 76 0 62.5 16 c 128,-1,2
 49 32 49 32 53 60 c 2,3,-1
 149 661 l 2,4,5
 153 686 153 686 167 699 c 128,-1,6
 181 712 181 712 206 712 c 0,7,8
 232 712 232 712 243.5 696.5 c 128,-1,9
 255 681 255 681 251 654 c 2,10,-1
 210 402 l 1,11,-1
 363 402 l 2,12,13
 439 402 439 402 489.5 378.5 c 128,-1,14
 540 355 540 355 565 315 c 128,-1,15
 590 275 590 275 590 220 c 0,16,17
 590 112 590 112 524 56 c 128,-1,18
 458 0 458 0 329 0 c 2,19,-1
 104 0 l 2,0,1
160 84 m 1,20,-1
 332 84 l 2,21,22
 410 84 410 84 449.5 117 c 128,-1,23
 489 150 489 150 489 215 c 0,24,25
 489 267 489 267 455 292.5 c 128,-1,26
 421 318 421 318 351 318 c 2,27,-1
 197 318 l 1,28,-1
 160 84 l 1,20,-1
703 -7 m 256,29,30
 678 -7 678 -7 666 8 c 128,-1,31
 654 23 654 23 658 51 c 2,32,-1
 756 663 l 2,33,34
 760 687 760 687 773.5 699.5 c 128,-1,35
 787 712 787 712 812 712 c 256,36,37
 837 712 837 712 849 697 c 128,-1,38
 861 682 861 682 857 654 c 2,39,-1
 760 42 l 2,40,41
 757 18 757 18 742.5 5.5 c 128,-1,42
 728 -7 728 -7 703 -7 c 256,29,30
EndSplineSet
EndChar

StartChar: uni042A
Encoding: 1066 1066 571
Width: 798
GlyphClass: 1
Flags: W
LayerCount: 2
Fore
SplineSet
236 0 m 2,0,1
 208 0 208 0 194.5 16 c 128,-1,2
 181 32 181 32 185 60 c 2,3,-1
 274 618 l 1,4,-1
 114 618 l 2,5,6
 89 618 89 618 76.5 629.5 c 128,-1,7
 64 641 64 641 67 662 c 0,8,9
 71 683 71 683 84 694 c 128,-1,10
 97 705 97 705 119 705 c 2,11,-1
 331 705 l 2,12,13
 360 705 360 705 372.5 689.5 c 128,-1,14
 385 674 385 674 381 645 c 2,15,-1
 342 402 l 1,16,-1
 521 402 l 2,17,18
 597 402 597 402 647 378.5 c 128,-1,19
 697 355 697 355 722.5 315 c 128,-1,20
 748 275 748 275 748 220 c 0,21,22
 748 112 748 112 681.5 56 c 128,-1,23
 615 0 615 0 487 0 c 2,24,-1
 236 0 l 2,0,1
292 84 m 1,25,-1
 489 84 l 2,26,27
 568 84 568 84 607.5 117 c 128,-1,28
 647 150 647 150 647 215 c 0,29,30
 647 267 647 267 613 292.5 c 128,-1,31
 579 318 579 318 508 318 c 2,32,-1
 329 318 l 1,33,-1
 292 84 l 1,25,-1
EndSplineSet
EndChar

StartChar: uni0409
Encoding: 1033 1033 572
Width: 1131
GlyphClass: 1
Flags: W
LayerCount: 2
Fore
SplineSet
570 0 m 2,0,1
 541 0 541 0 527.5 16 c 128,-1,2
 514 32 514 32 518 60 c 2,3,-1
 607 618 l 1,4,-1
 337 618 l 1,5,-1
 310 448 l 2,6,7
 294 344 294 344 270 269.5 c 128,-1,8
 246 195 246 195 215.5 143.5 c 128,-1,9
 185 92 185 92 146 57.5 c 128,-1,10
 107 23 107 23 59 -3 c 0,11,12
 46 -10 46 -10 33 -10.5 c 128,-1,13
 20 -11 20 -11 9 -4 c 128,-1,14
 -2 3 -2 3 -8 16 c 0,15,16
 -18 35 -18 35 -10.5 51.5 c 128,-1,17
 -3 68 -3 68 18 79 c 0,18,19
 53 98 53 98 83 126 c 128,-1,20
 113 154 113 154 138 199 c 128,-1,21
 163 244 163 244 183.5 311 c 128,-1,22
 204 378 204 378 219 474 c 2,23,-1
 247 654 l 2,24,25
 251 680 251 680 266 692.5 c 128,-1,26
 281 705 281 705 306 705 c 2,27,-1
 663 705 l 2,28,29
 692 705 692 705 705 689.5 c 128,-1,30
 718 674 718 674 714 645 c 2,31,-1
 675 402 l 1,32,-1
 855 402 l 2,33,34
 931 402 931 402 981 378.5 c 128,-1,35
 1031 355 1031 355 1056.5 315 c 128,-1,36
 1082 275 1082 275 1082 220 c 0,37,38
 1082 112 1082 112 1015.5 56 c 128,-1,39
 949 0 949 0 821 0 c 2,40,-1
 570 0 l 2,0,1
625 84 m 1,41,-1
 823 84 l 2,42,43
 902 84 902 84 941.5 117 c 128,-1,44
 981 150 981 150 981 215 c 0,45,46
 981 267 981 267 947 292.5 c 128,-1,47
 913 318 913 318 842 318 c 2,48,-1
 662 318 l 1,49,-1
 625 84 l 1,41,-1
EndSplineSet
EndChar

StartChar: uni040A
Encoding: 1034 1034 573
Width: 1164
GlyphClass: 1
Flags: W
LayerCount: 2
Fore
SplineSet
95 -7 m 256,0,1
 69 -7 69 -7 58.5 8 c 128,-1,2
 48 23 48 23 52 52 c 2,3,-1
 149 662 l 2,4,5
 153 687 153 687 167 699.5 c 128,-1,6
 181 712 181 712 206 712 c 0,7,8
 232 712 232 712 243.5 697 c 128,-1,9
 255 682 255 682 251 654 c 2,10,-1
 210 401 l 1,11,-1
 606 401 l 1,12,-1
 647 662 l 2,13,14
 651 687 651 687 665.5 699.5 c 128,-1,15
 680 712 680 712 705 712 c 256,16,17
 730 712 730 712 741.5 697 c 128,-1,18
 753 682 753 682 749 654 c 2,19,-1
 709 402 l 1,20,-1
 888 402 l 2,21,22
 964 402 964 402 1014.5 378.5 c 128,-1,23
 1065 355 1065 355 1090 315 c 128,-1,24
 1115 275 1115 275 1115 220 c 0,25,26
 1115 112 1115 112 1049 56 c 128,-1,27
 983 0 983 0 854 0 c 2,28,-1
 602 0 l 2,29,30
 574 0 574 0 560.5 16 c 128,-1,31
 547 32 547 32 551 60 c 2,32,-1
 592 314 l 1,33,-1
 197 314 l 1,34,-1
 154 43 l 2,35,36
 151 19 151 19 136 6 c 128,-1,37
 121 -7 121 -7 95 -7 c 256,0,1
658 84 m 1,38,-1
 856 84 l 2,39,40
 935 84 935 84 974.5 117 c 128,-1,41
 1014 150 1014 150 1014 215 c 0,42,43
 1014 267 1014 267 980 292.5 c 128,-1,44
 946 318 946 318 876 318 c 2,45,-1
 696 318 l 1,46,-1
 658 84 l 1,38,-1
EndSplineSet
EndChar

StartChar: uni0404
Encoding: 1028 1028 575
Width: 676
GlyphClass: 2
Flags: W
AnchorPoint: "Anchor-2" 349 0 basechar 0
AnchorPoint: "Anchor-0" 461 705 basechar 0
LayerCount: 2
Fore
SplineSet
387 -9 m 0,0,1
 295 -9 295 -9 224.5 25.5 c 128,-1,2
 154 60 154 60 114 130 c 128,-1,3
 74 200 74 200 74 303 c 0,4,5
 74 391 74 391 99.5 466 c 128,-1,6
 125 541 125 541 172.5 596.5 c 128,-1,7
 220 652 220 652 289.5 683 c 128,-1,8
 359 714 359 714 446 714 c 0,9,10
 503 714 503 714 557.5 698 c 128,-1,11
 612 682 612 682 654 648 c 0,12,13
 671 636 671 636 676 620.5 c 128,-1,14
 681 605 681 605 676.5 591 c 128,-1,15
 672 577 672 577 661 567.5 c 128,-1,16
 650 558 650 558 635.5 557.5 c 128,-1,17
 621 557 621 557 603 569 c 0,18,19
 569 597 569 597 528.5 609.5 c 128,-1,20
 488 622 488 622 442 622 c 0,21,22
 373 622 373 622 319.5 591 c 128,-1,23
 266 560 266 560 232.5 505 c 128,-1,24
 199 450 199 450 189 378 c 1,25,-1
 178 400 l 1,26,-1
 486 400 l 2,27,28
 509 400 509 400 521 391 c 128,-1,29
 533 382 533 382 532 364 c 0,30,31
 531 341 531 341 517.5 329 c 128,-1,32
 504 317 504 317 481 317 c 2,33,-1
 175 317 l 1,34,-1
 184 331 l 1,35,36
 182 253 182 253 202.5 198 c 128,-1,37
 223 143 223 143 271 113 c 128,-1,38
 319 83 319 83 398 83 c 0,39,40
 437 83 437 83 474.5 94 c 128,-1,41
 512 105 512 105 551 133 c 0,42,43
 569 145 569 145 584 143.5 c 128,-1,44
 599 142 599 142 608 133 c 128,-1,45
 617 124 617 124 619.5 110 c 128,-1,46
 622 96 622 96 616.5 81.5 c 128,-1,47
 611 67 611 67 595 56 c 0,48,49
 551 24 551 24 497 7.5 c 128,-1,50
 443 -9 443 -9 387 -9 c 0,0,1
EndSplineSet
EndChar

StartChar: uni042D
Encoding: 1069 1069 576
Width: 676
GlyphClass: 2
Flags: W
AnchorPoint: "Anchor-2" 262 0 basechar 0
AnchorPoint: "Anchor-0" 374 705 basechar 0
LayerCount: 2
Fore
SplineSet
264 -9 m 0,0,1
 207 -9 207 -9 154 7 c 128,-1,2
 101 23 101 23 57 57 c 0,3,4
 41 69 41 69 36 84 c 128,-1,5
 31 99 31 99 35 113 c 128,-1,6
 39 127 39 127 49.5 136.5 c 128,-1,7
 60 146 60 146 75 147 c 128,-1,8
 90 148 90 148 107 136 c 0,9,10
 141 109 141 109 182 96 c 128,-1,11
 223 83 223 83 268 83 c 0,12,13
 342 83 342 83 396 115.5 c 128,-1,14
 450 148 450 148 482.5 205 c 128,-1,15
 515 262 515 262 524 336 c 1,16,-1
 532 317 l 1,17,-1
 227 317 l 2,18,19
 203 317 203 317 191 326 c 128,-1,20
 179 335 179 335 180 353 c 0,21,22
 181 376 181 376 195 388 c 128,-1,23
 209 400 209 400 231 400 c 2,24,-1
 536 400 l 1,25,-1
 527 382 l 1,26,27
 529 456 529 456 509.5 509.5 c 128,-1,28
 490 563 490 563 444 592.5 c 128,-1,29
 398 622 398 622 320 622 c 0,30,31
 281 622 281 622 241.5 611.5 c 128,-1,32
 202 601 202 601 161 574 c 0,33,34
 142 562 142 562 127 564 c 128,-1,35
 112 566 112 566 102.5 575.5 c 128,-1,36
 93 585 93 585 91 599 c 128,-1,37
 89 613 89 613 95 627 c 128,-1,38
 101 641 101 641 117 650 c 0,39,40
 167 684 167 684 220 699 c 128,-1,41
 273 714 273 714 331 714 c 0,42,43
 422 714 422 714 490.5 680 c 128,-1,44
 559 646 559 646 597.5 575 c 128,-1,45
 636 504 636 504 636 396 c 0,46,47
 636 311 636 311 611 237 c 128,-1,48
 586 163 586 163 538 108 c 128,-1,49
 490 53 490 53 421 22 c 128,-1,50
 352 -9 352 -9 264 -9 c 0,0,1
EndSplineSet
EndChar

StartChar: uni040B
Encoding: 1035 1035 580
Width: 856
GlyphClass: 1
Flags: W
LayerCount: 2
Fore
SplineSet
267 -7 m 256,0,1
 242 -7 242 -7 230.5 8 c 128,-1,2
 219 23 219 23 223 52 c 2,3,-1
 313 618 l 1,4,-1
 110 618 l 2,5,6
 88 618 88 618 75.5 627.5 c 128,-1,7
 63 637 63 637 63 654 c 0,8,9
 63 678 63 678 77.5 691.5 c 128,-1,10
 92 705 92 705 115 705 c 2,11,-1
 634 705 l 2,12,13
 657 705 657 705 669 696 c 128,-1,14
 681 687 681 687 681 670 c 0,15,16
 681 645 681 645 667 631.5 c 128,-1,17
 653 618 653 618 629 618 c 2,18,-1
 417 618 l 1,19,-1
 383 405 l 1,20,21
 415 422 415 422 459.5 430 c 128,-1,22
 504 438 504 438 549 438 c 0,23,24
 637 438 637 438 694.5 403.5 c 128,-1,25
 752 369 752 369 776.5 303.5 c 128,-1,26
 801 238 801 238 785 142 c 2,27,-1
 769 43 l 2,28,29
 765 17 765 17 750 5 c 128,-1,30
 735 -7 735 -7 711 -7 c 0,31,32
 685 -7 685 -7 674.5 9 c 128,-1,33
 664 25 664 25 668 54 c 2,34,-1
 682 141 l 2,35,36
 701 250 701 250 662.5 299 c 128,-1,37
 624 348 624 348 532 348 c 0,38,39
 491 348 491 348 448 340.5 c 128,-1,40
 405 333 405 333 368 313 c 1,41,-1
 325 44 l 2,42,43
 321 19 321 19 306.5 6 c 128,-1,44
 292 -7 292 -7 267 -7 c 256,0,1
EndSplineSet
EndChar

StartChar: uni042E
Encoding: 1070 1070 581
Width: 1029
GlyphClass: 1
Flags: W
AnchorPoint: "Anchor-0" 563 676 basechar 0
LayerCount: 2
Fore
SplineSet
627 -9 m 0,0,1
 529 -9 529 -9 461 30 c 128,-1,2
 393 69 393 69 358.5 142 c 128,-1,3
 324 215 324 215 327 314 c 1,4,-1
 197 314 l 1,5,-1
 154 45 l 2,6,7
 150 20 150 20 136 6.5 c 128,-1,8
 122 -7 122 -7 96 -7 c 256,9,10
 70 -7 70 -7 59 9 c 128,-1,11
 48 25 48 25 53 54 c 2,12,-1
 149 661 l 2,13,14
 153 686 153 686 167.5 699 c 128,-1,15
 182 712 182 712 207 712 c 0,16,17
 233 712 233 712 244 696 c 128,-1,18
 255 680 255 680 250 651 c 2,19,-1
 210 401 l 1,20,-1
 336 401 l 1,21,22
 353 494 353 494 399 564.5 c 128,-1,23
 445 635 445 635 518.5 674.5 c 128,-1,24
 592 714 592 714 689 714 c 0,25,26
 781 714 781 714 848 679 c 128,-1,27
 915 644 915 644 952.5 575.5 c 128,-1,28
 990 507 990 507 990 410 c 0,29,30
 990 319 990 319 965.5 243 c 128,-1,31
 941 167 941 167 894 110 c 128,-1,32
 847 53 847 53 780 22 c 128,-1,33
 713 -9 713 -9 627 -9 c 0,0,1
629 81 m 0,34,35
 711 81 711 81 767 123.5 c 128,-1,36
 823 166 823 166 852 240 c 128,-1,37
 881 314 881 314 881 408 c 0,38,39
 881 518 881 518 829.5 571 c 128,-1,40
 778 624 778 624 686 624 c 0,41,42
 605 624 605 624 549 582 c 128,-1,43
 493 540 493 540 464 466 c 128,-1,44
 435 392 435 392 435 298 c 0,45,46
 435 187 435 187 486.5 134 c 128,-1,47
 538 81 538 81 629 81 c 0,34,35
EndSplineSet
EndChar

StartChar: uni042F
Encoding: 1071 1071 582
Width: 678
GlyphClass: 1
Flags: W
AnchorPoint: "Anchor-0" 408 691 basechar 0
LayerCount: 2
Fore
SplineSet
503 -7 m 0,0,1
 479 -7 479 -7 468 9 c 128,-1,2
 457 25 457 25 462 54 c 2,3,-1
 500 291 l 1,4,-1
 396 291 l 2,5,6
 368 291 368 291 346 285.5 c 128,-1,7
 324 280 324 280 305.5 266 c 128,-1,8
 287 252 287 252 269 225 c 2,9,-1
 125 17 l 2,10,11
 114 0 114 0 99 -5 c 128,-1,12
 84 -10 84 -10 69.5 -5.5 c 128,-1,13
 55 -1 55 -1 45 10.5 c 128,-1,14
 35 22 35 22 34 37 c 128,-1,15
 33 52 33 52 45 70 c 2,16,-1
 152 224 l 2,17,18
 182 269 182 269 211.5 288.5 c 128,-1,19
 241 308 241 308 281 308 c 2,20,-1
 313 308 l 1,21,-1
 324 294 l 1,22,23
 216 297 216 297 160 348 c 128,-1,24
 104 399 104 399 104 486 c 0,25,26
 104 560 104 560 138.5 609 c 128,-1,27
 173 658 173 658 232 681.5 c 128,-1,28
 291 705 291 705 366 705 c 2,29,-1
 608 705 l 2,30,31
 637 705 637 705 650 689.5 c 128,-1,32
 663 674 663 674 659 645 c 2,33,-1
 564 43 l 2,34,35
 560 18 560 18 544.5 5.5 c 128,-1,36
 529 -7 529 -7 503 -7 c 0,0,1
350 369 m 2,37,-1
 512 369 l 1,38,-1
 552 622 l 1,39,-1
 363 622 l 2,40,41
 288 622 288 622 246.5 587 c 128,-1,42
 205 552 205 552 205 486 c 0,43,44
 205 428 205 428 240 398.5 c 128,-1,45
 275 369 275 369 350 369 c 2,37,-1
EndSplineSet
EndChar

StartChar: uni0402
Encoding: 1026 1026 583
Width: 855
GlyphClass: 1
Flags: W
LayerCount: 2
Fore
SplineSet
530 -189 m 0,0,1
 506 -189 506 -189 481 -186 c 128,-1,2
 456 -183 456 -183 439 -178 c 0,3,4
 423 -173 423 -173 416 -163 c 128,-1,5
 409 -153 409 -153 408.5 -140.5 c 128,-1,6
 408 -128 408 -128 413.5 -117 c 128,-1,7
 419 -106 419 -106 430 -100.5 c 128,-1,8
 441 -95 441 -95 456 -98 c 256,9,10
 471 -101 471 -101 485.5 -103.5 c 128,-1,11
 500 -106 500 -106 517 -106 c 0,12,13
 576 -106 576 -106 614.5 -66 c 128,-1,14
 653 -26 653 -26 665 51 c 2,15,-1
 679 136 l 2,16,17
 697 245 697 245 656 296.5 c 128,-1,18
 615 348 615 348 525 348 c 0,19,20
 484 348 484 348 444 340.5 c 128,-1,21
 404 333 404 333 368 313 c 1,22,-1
 325 44 l 2,23,24
 321 19 321 19 306.5 6 c 128,-1,25
 292 -7 292 -7 267 -7 c 256,26,27
 242 -7 242 -7 231 9 c 128,-1,28
 220 25 220 25 224 53 c 2,29,-1
 313 618 l 1,30,-1
 110 618 l 2,31,32
 88 618 88 618 75.5 627.5 c 128,-1,33
 63 637 63 637 63 654 c 0,34,35
 63 678 63 678 77.5 691.5 c 128,-1,36
 92 705 92 705 115 705 c 2,37,-1
 634 705 l 2,38,39
 657 705 657 705 669 696 c 128,-1,40
 681 687 681 687 681 670 c 0,41,42
 681 645 681 645 667 631.5 c 128,-1,43
 653 618 653 618 629 618 c 2,44,-1
 417 618 l 1,45,-1
 383 405 l 1,46,47
 415 422 415 422 455.5 430 c 128,-1,48
 496 438 496 438 542 438 c 0,49,50
 606 438 606 438 656 419 c 128,-1,51
 706 400 706 400 738 362.5 c 128,-1,52
 770 325 770 325 782 269.5 c 128,-1,53
 794 214 794 214 783 142 c 2,54,-1
 769 55 l 2,55,56
 756 -24 756 -24 724.5 -78.5 c 128,-1,57
 693 -133 693 -133 644 -161 c 128,-1,58
 595 -189 595 -189 530 -189 c 0,0,1
EndSplineSet
EndChar

StartChar: uni0462
Encoding: 1122 1122 584
Width: 733
GlyphClass: 1
Flags: W
LayerCount: 2
Fore
SplineSet
170 0 m 2,0,1
 142 0 142 0 128.5 15 c 128,-1,2
 115 30 115 30 119 58 c 2,3,-1
 194 530 l 1,4,-1
 67 530 l 2,5,6
 45 530 45 530 33 540.5 c 128,-1,7
 21 551 21 551 25 569 c 0,8,9
 30 608 30 608 72 608 c 2,10,-1
 232 608 l 1,11,-1
 201 568 l 1,12,-1
 216 663 l 2,13,14
 220 688 220 688 235 700 c 128,-1,15
 250 712 250 712 275 712 c 0,16,17
 299 712 299 712 310 697 c 128,-1,18
 321 682 321 682 317 654 c 2,19,-1
 304 568 l 1,20,-1
 289 608 l 1,21,-1
 507 608 l 2,22,23
 529 608 529 608 541 598 c 128,-1,24
 553 588 553 588 549 569 c 0,25,26
 542 530 542 530 502 530 c 2,27,-1
 298 530 l 1,28,-1
 277 402 l 1,29,-1
 456 402 l 2,30,31
 570 402 570 402 626.5 351.5 c 128,-1,32
 683 301 683 301 683 220 c 0,33,34
 683 112 683 112 617 56 c 128,-1,35
 551 0 551 0 422 0 c 2,36,-1
 170 0 l 2,0,1
227 84 m 1,37,-1
 425 84 l 2,38,39
 503 84 503 84 543 117 c 128,-1,40
 583 150 583 150 583 215 c 0,41,42
 583 267 583 267 549 292.5 c 128,-1,43
 515 318 515 318 444 318 c 2,44,-1
 264 318 l 1,45,-1
 227 84 l 1,37,-1
EndSplineSet
EndChar

StartChar: uni046A
Encoding: 1130 1130 585
Width: 980
GlyphClass: 1
Flags: W
LayerCount: 2
Fore
SplineSet
453 -7 m 0,0,1
 427 -7 427 -7 415.5 8 c 128,-1,2
 404 23 404 23 408 50 c 2,3,-1
 449 311 l 1,4,-1
 379 311 l 2,5,6
 325 311 325 311 286 286 c 128,-1,7
 247 261 247 261 211 205 c 2,8,-1
 95 21 l 2,9,10
 84 4 84 4 68.5 -2.5 c 128,-1,11
 53 -9 53 -9 38 -6 c 128,-1,12
 23 -3 23 -3 13 7.5 c 128,-1,13
 3 18 3 18 2 34.5 c 128,-1,14
 1 51 1 51 14 71 c 2,15,-1
 127 250 l 2,16,17
 159 301 159 301 197 333 c 128,-1,18
 235 365 235 365 280 380.5 c 128,-1,19
 325 396 325 396 375 396 c 2,20,-1
 439 396 l 1,21,-1
 430 372 l 1,22,-1
 241 643 l 2,23,24
 229 660 229 660 229 674 c 128,-1,25
 229 688 229 688 240.5 696.5 c 128,-1,26
 252 705 252 705 274 705 c 2,27,-1
 837 705 l 2,28,29
 861 705 861 705 872.5 696 c 128,-1,30
 884 687 884 687 882 672.5 c 128,-1,31
 880 658 880 658 864 642 c 2,32,-1
 590 372 l 1,33,-1
 581 396 l 1,34,-1
 641 396 l 2,35,36
 692 396 692 396 733 377.5 c 128,-1,37
 774 359 774 359 803.5 325 c 128,-1,38
 833 291 833 291 848 248 c 2,39,-1
 912 62 l 2,40,41
 919 41 919 41 914 25.5 c 128,-1,42
 909 10 909 10 896 1.5 c 128,-1,43
 883 -7 883 -7 867.5 -7 c 128,-1,44
 852 -7 852 -7 838 2.5 c 128,-1,45
 824 12 824 12 817 32 c 2,46,-1
 760 205 l 2,47,48
 741 262 741 262 708.5 286.5 c 128,-1,49
 676 311 676 311 624 311 c 2,50,-1
 553 311 l 1,51,-1
 510 41 l 2,52,53
 507 17 507 17 492.5 5 c 128,-1,54
 478 -7 478 -7 453 -7 c 0,0,1
510 398 m 1,55,-1
 602 488 l 1,56,-1
 775 655 l 1,57,-1
 618 630 l 1,58,-1
 320 639 l 1,59,-1
 387 572 l 1,60,-1
 510 398 l 1,55,-1
EndSplineSet
EndChar

StartChar: uni0474
Encoding: 1140 1140 587
Width: 755
GlyphClass: 1
Flags: W
LayerCount: 2
Fore
SplineSet
312 -7 m 0,0,1
 289 -7 289 -7 275 5 c 128,-1,2
 261 17 261 17 255 40 c 2,3,-1
 84 645 l 2,4,5
 80 664 80 664 84 678.5 c 128,-1,6
 88 693 88 693 100 701 c 128,-1,7
 112 709 112 709 129 709 c 0,8,9
 149 709 149 709 162.5 699 c 128,-1,10
 176 689 176 689 182 663 c 2,11,-1
 339 88 l 1,12,-1
 300 88 l 1,13,-1
 547 519 l 2,14,15
 584 585 584 585 619 626 c 128,-1,16
 654 667 654 667 695.5 688 c 128,-1,17
 737 709 737 709 795 713 c 0,18,19
 814 714 814 714 825.5 706.5 c 128,-1,20
 837 699 837 699 841.5 686.5 c 128,-1,21
 846 674 846 674 843.5 661 c 128,-1,22
 841 648 841 648 831.5 638.5 c 128,-1,23
 822 629 822 629 805 627 c 0,24,25
 769 624 769 624 742 608.5 c 128,-1,26
 715 593 715 593 690.5 562.5 c 128,-1,27
 666 532 666 532 637 484 c 2,28,-1
 373 31 l 2,29,30
 361 11 361 11 347.5 2 c 128,-1,31
 334 -7 334 -7 312 -7 c 0,0,1
EndSplineSet
EndChar

StartChar: uni0496
Encoding: 1174 1174 588
Width: 1028
GlyphClass: 1
Flags: W
LayerCount: 2
Fore
SplineSet
925 -168 m 0,0,1
 905 -168 905 -168 894 -154 c 128,-1,2
 883 -140 883 -140 886 -114 c 2,3,-1
 909 33 l 1,4,-1
 935 0 l 1,5,-1
 877 0 l 2,6,7
 862 0 862 0 847.5 6.5 c 128,-1,8
 833 13 833 13 826 33 c 2,9,-1
 769 206 l 2,10,11
 751 262 751 262 718.5 286.5 c 128,-1,12
 686 311 686 311 633 311 c 2,13,-1
 555 311 l 1,14,-1
 512 40 l 2,15,16
 509 17 509 17 495 5 c 128,-1,17
 481 -7 481 -7 457 -7 c 0,18,19
 432 -7 432 -7 421 7.5 c 128,-1,20
 410 22 410 22 414 48 c 2,21,-1
 456 311 l 1,22,-1
 379 311 l 2,23,24
 326 311 326 311 286.5 286.5 c 128,-1,25
 247 262 247 262 211 205 c 2,26,-1
 95 21 l 2,27,28
 84 4 84 4 68.5 -2.5 c 128,-1,29
 53 -9 53 -9 38 -6 c 128,-1,30
 23 -3 23 -3 13 7.5 c 128,-1,31
 3 18 3 18 2 34.5 c 128,-1,32
 1 51 1 51 14 71 c 2,33,-1
 126 248 l 2,34,35
 168 314 168 314 218 350 c 128,-1,36
 268 386 268 386 331 394 c 1,37,-1
 295 363 l 1,38,-1
 154 642 l 2,39,40
 144 661 144 661 148 676.5 c 128,-1,41
 152 692 152 692 163.5 701 c 128,-1,42
 175 710 175 710 190 711.5 c 128,-1,43
 205 713 205 713 219.5 705.5 c 128,-1,44
 234 698 234 698 243 680 c 2,45,-1
 389 381 l 1,46,-1
 367 398 l 1,47,-1
 469 398 l 1,48,-1
 512 666 l 2,49,50
 516 690 516 690 529.5 701 c 128,-1,51
 543 712 543 712 566 712 c 0,52,53
 591 712 591 712 602.5 697.5 c 128,-1,54
 614 683 614 683 610 657 c 2,55,-1
 569 398 l 1,56,-1
 661 398 l 1,57,-1
 640 381 l 1,58,-1
 888 689 l 2,59,60
 901 705 901 705 916.5 709 c 128,-1,61
 932 713 932 713 946 709 c 128,-1,62
 960 705 960 705 968.5 694 c 128,-1,63
 977 683 977 683 976 667.5 c 128,-1,64
 975 652 975 652 961 634 c 2,65,-1
 737 363 l 1,66,-1
 695 394 l 1,67,68
 735 389 735 389 766.5 370.5 c 128,-1,69
 798 352 798 352 820.5 321.5 c 128,-1,70
 843 291 843 291 857 248 c 2,71,-1
 924 53 l 1,72,-1
 882 84 l 1,73,-1
 954 84 l 2,74,75
 980 84 980 84 993 70 c 128,-1,76
 1006 56 1006 56 1002 29 c 2,77,-1
 977 -123 l 2,78,79
 974 -146 974 -146 961 -157 c 128,-1,80
 948 -168 948 -168 925 -168 c 0,0,1
EndSplineSet
EndChar

StartChar: uni0498
Encoding: 1176 1176 589
Width: 638
GlyphClass: 2
Flags: W
AnchorPoint: "Anchor-2" 288 0 basechar 0
AnchorPoint: "Anchor-0" 384 705 basechar 0
LayerCount: 2
Fore
SplineSet
261 -168 m 0,0,1
 241 -168 241 -168 230.5 -154 c 128,-1,2
 220 -140 220 -140 223 -115 c 2,3,-1
 249 47 l 1,4,-1
 342 47 l 1,5,-1
 314 -124 l 2,6,7
 311 -147 311 -147 297 -157.5 c 128,-1,8
 283 -168 283 -168 261 -168 c 0,0,1
299 -9 m 0,9,10
 226 -9 226 -9 162 8 c 128,-1,11
 98 25 98 25 46 62 c 0,12,13
 33 71 33 71 28.5 84.5 c 128,-1,14
 24 98 24 98 27 111.5 c 128,-1,15
 30 125 30 125 39 134 c 128,-1,16
 48 143 48 143 61.5 144.5 c 128,-1,17
 75 146 75 146 92 135 c 0,18,19
 123 115 123 115 156 102.5 c 128,-1,20
 189 90 189 90 225 85 c 128,-1,21
 261 80 261 80 299 80 c 0,22,23
 344 80 344 80 382.5 92.5 c 128,-1,24
 421 105 421 105 445.5 134 c 128,-1,25
 470 163 470 163 470 212 c 0,26,27
 470 264 470 264 437 290 c 128,-1,28
 404 316 404 316 340 316 c 2,29,-1
 214 316 l 2,30,31
 191 316 191 316 179 325.5 c 128,-1,32
 167 335 167 335 168 352 c 0,33,34
 170 374 170 374 183.5 386.5 c 128,-1,35
 197 399 197 399 219 399 c 2,36,-1
 349 399 l 2,37,38
 421 399 421 399 463 431 c 128,-1,39
 505 463 505 463 505 525 c 0,40,41
 505 561 505 561 487 583 c 128,-1,42
 469 605 469 605 437 615.5 c 128,-1,43
 405 626 405 626 363 626 c 0,44,45
 314 626 314 626 265.5 613.5 c 128,-1,46
 217 601 217 601 175 576 c 0,47,48
 156 565 156 565 141 567 c 128,-1,49
 126 569 126 569 116.5 578 c 128,-1,50
 107 587 107 587 105.5 601 c 128,-1,51
 104 615 104 615 111 628.5 c 128,-1,52
 118 642 118 642 135 651 c 0,53,54
 186 682 186 682 248.5 698 c 128,-1,55
 311 714 311 714 374 714 c 0,56,57
 443 714 443 714 495.5 693.5 c 128,-1,58
 548 673 548 673 577.5 634 c 128,-1,59
 607 595 607 595 607 541 c 0,60,61
 607 462 607 462 558.5 412.5 c 128,-1,62
 510 363 510 363 430 351 c 1,63,-1
 430 367 l 1,64,65
 497 355 497 355 534.5 312.5 c 128,-1,66
 572 270 572 270 572 207 c 0,67,68
 572 133 572 133 537 85.5 c 128,-1,69
 502 38 502 38 440 14.5 c 128,-1,70
 378 -9 378 -9 299 -9 c 0,9,10
EndSplineSet
Substitution2: "'locl' Localized Forms in Cyrillic lookup 17 subtable" uni0498.loclCHU
Substitution2: "'locl' Localized Forms in Cyrillic lookup 16 subtable" uni0498.loclBSH
AlternateSubs2: "'aalt' Access All Alternates lookup 1 subtable" uni0498.loclBSH uni0498.loclCHU
EndChar

StartChar: uni049A
Encoding: 1178 1178 590
Width: 695
GlyphClass: 1
Flags: W
LayerCount: 2
Fore
SplineSet
593 -168 m 0,0,1
 573 -168 573 -168 561.5 -154 c 128,-1,2
 550 -140 550 -140 554 -114 c 2,3,-1
 577 33 l 1,4,-1
 586 0 l 1,5,-1
 545 0 l 2,6,7
 529 0 529 0 514.5 6.5 c 128,-1,8
 500 13 500 13 493 34 c 2,9,-1
 436 205 l 2,10,11
 418 262 418 262 385.5 286.5 c 128,-1,12
 353 311 353 311 301 311 c 2,13,-1
 197 311 l 1,14,-1
 154 43 l 2,15,16
 150 18 150 18 136 5.5 c 128,-1,17
 122 -7 122 -7 96 -7 c 0,18,19
 72 -7 72 -7 60 8 c 128,-1,20
 48 23 48 23 52 50 c 2,21,-1
 150 666 l 2,22,23
 154 691 154 691 167.5 701.5 c 128,-1,24
 181 712 181 712 206 712 c 0,25,26
 232 712 232 712 243.5 697 c 128,-1,27
 255 682 255 682 251 655 c 2,28,-1
 210 398 l 1,29,-1
 329 398 l 1,30,-1
 307 381 l 1,31,-1
 556 689 l 2,32,33
 569 705 569 705 584 709.5 c 128,-1,34
 599 714 599 714 613 709.5 c 128,-1,35
 627 705 627 705 636 694 c 128,-1,36
 645 683 645 683 644 667.5 c 128,-1,37
 643 652 643 652 629 634 c 2,38,-1
 407 363 l 1,39,-1
 362 394 l 1,40,41
 423 386 423 386 462.5 349.5 c 128,-1,42
 502 313 502 313 525 248 c 2,43,-1
 592 53 l 1,44,-1
 556 84 l 1,45,-1
 622 84 l 2,46,47
 648 84 648 84 661 70 c 128,-1,48
 674 56 674 56 670 29 c 2,49,-1
 645 -123 l 2,50,51
 642 -146 642 -146 629 -157 c 128,-1,52
 616 -168 616 -168 593 -168 c 0,0,1
EndSplineSet
EndChar

StartChar: uni049C
Encoding: 1180 1180 591
Width: 697
GlyphClass: 1
Flags: W
LayerCount: 2
Fore
SplineSet
96 -7 m 0,0,1
 72 -7 72 -7 60 8 c 128,-1,2
 48 23 48 23 52 50 c 2,3,-1
 150 664 l 2,4,5
 154 688 154 688 167.5 700 c 128,-1,6
 181 712 181 712 206 712 c 0,7,8
 232 712 232 712 243.5 697 c 128,-1,9
 255 682 255 682 251 655 c 2,10,-1
 210 397 l 1,11,-1
 274 397 l 1,12,-1
 295 533 l 2,13,14
 301 570 301 570 337 570 c 0,15,16
 356 570 356 570 365 559 c 128,-1,17
 374 548 374 548 370 528 c 2,18,-1
 350 397 l 1,19,-1
 363 397 l 1,20,-1
 352 388 l 1,21,-1
 596 689 l 2,22,23
 609 706 609 706 624 710.5 c 128,-1,24
 639 715 639 715 653.5 710.5 c 128,-1,25
 668 706 668 706 676.5 695 c 128,-1,26
 685 684 685 684 684 668.5 c 128,-1,27
 683 653 683 653 669 636 c 2,28,-1
 447 363 l 1,29,-1
 402 394 l 1,30,31
 443 389 443 389 474 371 c 128,-1,32
 505 353 505 353 527.5 322.5 c 128,-1,33
 550 292 550 292 565 248 c 2,34,-1
 629 62 l 2,35,36
 637 41 637 41 631.5 25.5 c 128,-1,37
 626 10 626 10 613.5 1.5 c 128,-1,38
 601 -7 601 -7 585 -7.5 c 128,-1,39
 569 -8 569 -8 555.5 1.5 c 128,-1,40
 542 11 542 11 535 31 c 2,41,-1
 477 206 l 2,42,43
 459 263 459 263 426.5 287.5 c 128,-1,44
 394 312 394 312 341 312 c 2,45,-1
 315 312 l 1,46,-1
 337 323 l 1,47,-1
 315 178 l 2,48,49
 309 142 309 142 272 142 c 0,50,51
 233 142 233 142 240 184 c 2,52,-1
 261 312 l 1,53,-1
 196 312 l 1,54,-1
 153 41 l 2,55,56
 149 16 149 16 135.5 4.5 c 128,-1,57
 122 -7 122 -7 96 -7 c 0,0,1
EndSplineSet
EndChar

StartChar: uni049E
Encoding: 1182 1182 592
Width: 702
GlyphClass: 1
Flags: W
LayerCount: 2
Fore
SplineSet
142 -7 m 256,0,1
 117 -7 117 -7 105.5 8 c 128,-1,2
 94 23 94 23 98 50 c 2,3,-1
 175 533 l 1,4,-1
 71 533 l 2,5,6
 51 533 51 533 40 543 c 128,-1,7
 29 553 29 553 32 570 c 0,8,9
 35 588 35 588 46 597.5 c 128,-1,10
 57 607 57 607 76 607 c 2,11,-1
 206 607 l 1,12,-1
 179 565 l 1,13,-1
 195 664 l 2,14,15
 199 688 199 688 213 700 c 128,-1,16
 227 712 227 712 251 712 c 0,17,18
 277 712 277 712 289 697.5 c 128,-1,19
 301 683 301 683 297 655 c 2,20,-1
 282 564 l 1,21,-1
 271 607 l 1,22,-1
 377 607 l 2,23,24
 399 607 399 607 409.5 597.5 c 128,-1,25
 420 588 420 588 416 570 c 0,26,27
 413 553 413 553 402 543 c 128,-1,28
 391 533 391 533 372 533 c 2,29,-1
 278 533 l 1,30,-1
 256 398 l 1,31,-1
 368 398 l 1,32,-1
 347 381 l 1,33,-1
 594 689 l 2,34,35
 608 705 608 705 623 709.5 c 128,-1,36
 638 714 638 714 652 710 c 128,-1,37
 666 706 666 706 674.5 695 c 128,-1,38
 683 684 683 684 682.5 668.5 c 128,-1,39
 682 653 682 653 668 635 c 2,40,-1
 447 363 l 1,41,-1
 401 394 l 1,42,43
 442 389 442 389 473 371 c 128,-1,44
 504 353 504 353 526.5 322.5 c 128,-1,45
 549 292 549 292 564 248 c 2,46,-1
 628 62 l 2,47,48
 636 41 636 41 630.5 25.5 c 128,-1,49
 625 10 625 10 612.5 1.5 c 128,-1,50
 600 -7 600 -7 584 -6.5 c 128,-1,51
 568 -6 568 -6 554 3 c 128,-1,52
 540 12 540 12 534 33 c 2,53,-1
 476 205 l 2,54,55
 458 262 458 262 425.5 286.5 c 128,-1,56
 393 311 393 311 340 311 c 2,57,-1
 242 311 l 1,58,-1
 199 41 l 2,59,60
 195 16 195 16 181 4.5 c 128,-1,61
 167 -7 167 -7 142 -7 c 256,0,1
EndSplineSet
EndChar

StartChar: uni04A0
Encoding: 1184 1184 593
Width: 788
GlyphClass: 1
Flags: W
LayerCount: 2
Fore
SplineSet
228 -7 m 0,0,1
 204 -7 204 -7 192 8 c 128,-1,2
 180 23 180 23 184 50 c 2,3,-1
 274 619 l 1,4,-1
 110 619 l 2,5,6
 87 619 87 619 75 628.5 c 128,-1,7
 63 638 63 638 63 655 c 0,8,9
 63 678 63 678 77 691.5 c 128,-1,10
 91 705 91 705 116 705 c 2,11,-1
 337 705 l 2,12,13
 363 705 363 705 374.5 690 c 128,-1,14
 386 675 386 675 382 647 c 2,15,-1
 342 398 l 1,16,-1
 461 398 l 1,17,-1
 439 381 l 1,18,-1
 688 689 l 2,19,20
 701 705 701 705 716 709.5 c 128,-1,21
 731 714 731 714 745 709.5 c 128,-1,22
 759 705 759 705 768 694 c 128,-1,23
 777 683 777 683 776 667.5 c 128,-1,24
 775 652 775 652 761 634 c 2,25,-1
 539 363 l 1,26,-1
 494 394 l 1,27,28
 555 386 555 386 594.5 349.5 c 128,-1,29
 634 313 634 313 657 248 c 2,30,-1
 721 62 l 2,31,32
 728 41 728 41 722.5 25.5 c 128,-1,33
 717 10 717 10 704.5 1.5 c 128,-1,34
 692 -7 692 -7 676.5 -7 c 128,-1,35
 661 -7 661 -7 647 2.5 c 128,-1,36
 633 12 633 12 626 32 c 2,37,-1
 568 205 l 2,38,39
 550 262 550 262 517.5 286.5 c 128,-1,40
 485 311 485 311 432 311 c 2,41,-1
 329 311 l 1,42,-1
 286 43 l 2,43,44
 282 18 282 18 268 5.5 c 128,-1,45
 254 -7 254 -7 228 -7 c 0,0,1
EndSplineSet
EndChar

StartChar: uni04A2
Encoding: 1186 1186 594
Width: 811
GlyphClass: 1
Flags: W
LayerCount: 2
Fore
SplineSet
674 -168 m 0,0,1
 654 -168 654 -168 643.5 -154 c 128,-1,2
 633 -140 633 -140 637 -114 c 2,3,-1
 656 0 l 1,4,-1
 596 0 l 2,5,6
 569 0 569 0 558 16 c 128,-1,7
 547 32 547 32 552 62 c 2,8,-1
 592 314 l 1,9,-1
 196 314 l 1,10,-1
 154 45 l 2,11,12
 150 20 150 20 136 6.5 c 128,-1,13
 122 -7 122 -7 96 -7 c 256,14,15
 70 -7 70 -7 59 9 c 128,-1,16
 48 25 48 25 52 54 c 2,17,-1
 149 661 l 2,18,19
 153 686 153 686 167 699 c 128,-1,20
 181 712 181 712 207 712 c 256,21,22
 233 712 233 712 244 696 c 128,-1,23
 255 680 255 680 250 651 c 2,24,-1
 210 401 l 1,25,-1
 606 401 l 1,26,-1
 647 661 l 2,27,28
 651 686 651 686 665 699 c 128,-1,29
 679 712 679 712 705 712 c 256,30,31
 731 712 731 712 742 696.5 c 128,-1,32
 753 681 753 681 748 651 c 2,33,-1
 654 52 l 1,34,-1
 625 84 l 1,35,-1
 703 84 l 2,36,37
 730 84 730 84 742.5 70.5 c 128,-1,38
 755 57 755 57 751 30 c 2,39,-1
 727 -122 l 2,40,41
 724 -145 724 -145 711 -156.5 c 128,-1,42
 698 -168 698 -168 674 -168 c 0,0,1
EndSplineSet
EndChar

StartChar: uni04A4
Encoding: 1188 1188 595
Width: 938
GlyphClass: 1
Flags: W
LayerCount: 2
Fore
SplineSet
96 -7 m 256,0,1
 70 -7 70 -7 59 9 c 128,-1,2
 48 25 48 25 53 54 c 2,3,-1
 149 661 l 2,4,5
 153 686 153 686 167.5 699 c 128,-1,6
 182 712 182 712 207 712 c 0,7,8
 233 712 233 712 244 696 c 128,-1,9
 255 680 255 680 250 651 c 2,10,-1
 210 401 l 1,11,-1
 606 401 l 1,12,-1
 646 654 l 2,13,14
 650 680 650 680 665 692.5 c 128,-1,15
 680 705 680 705 705 705 c 2,16,-1
 960 705 l 2,17,18
 983 705 983 705 995 696 c 128,-1,19
 1007 687 1007 687 1007 670 c 0,20,21
 1007 645 1007 645 993 631.5 c 128,-1,22
 979 618 979 618 955 618 c 2,23,-1
 743 618 l 1,24,-1
 652 45 l 2,25,26
 648 20 648 20 634 6.5 c 128,-1,27
 620 -7 620 -7 594 -7 c 256,28,29
 568 -7 568 -7 557 9 c 128,-1,30
 546 25 546 25 551 54 c 2,31,-1
 592 314 l 1,32,-1
 197 314 l 1,33,-1
 154 45 l 2,34,35
 150 20 150 20 136 6.5 c 128,-1,36
 122 -7 122 -7 96 -7 c 256,0,1
EndSplineSet
EndChar

StartChar: uni0524
Encoding: 1316 1316 596
Width: 805
GlyphClass: 1
Flags: W
LayerCount: 2
Fore
SplineSet
668 -168 m 0,0,1
 648 -168 648 -168 637.5 -154 c 128,-1,2
 627 -140 627 -140 631 -114 c 2,3,-1
 649 0 l 1,4,-1
 590 0 l 2,5,6
 563 0 563 0 552 16 c 128,-1,7
 541 32 541 32 546 62 c 2,8,-1
 634 618 l 1,9,-1
 245 618 l 1,10,-1
 154 42 l 2,11,12
 151 18 151 18 136.5 5.5 c 128,-1,13
 122 -7 122 -7 96 -7 c 0,14,15
 71 -7 71 -7 59.5 7.5 c 128,-1,16
 48 22 48 22 52 51 c 2,17,-1
 148 654 l 2,18,19
 152 680 152 680 167 692.5 c 128,-1,20
 182 705 182 705 207 705 c 2,21,-1
 691 705 l 2,22,23
 720 705 720 705 733 689.5 c 128,-1,24
 746 674 746 674 742 645 c 2,25,-1
 648 52 l 1,26,-1
 619 84 l 1,27,-1
 697 84 l 2,28,29
 723 84 723 84 735.5 70.5 c 128,-1,30
 748 57 748 57 744 30 c 2,31,-1
 720 -122 l 2,32,33
 717 -145 717 -145 704 -156.5 c 128,-1,34
 691 -168 691 -168 668 -168 c 0,0,1
EndSplineSet
EndChar

StartChar: uni04A8
Encoding: 1192 1192 597
Width: 818
GlyphClass: 1
Flags: W
LayerCount: 2
Fore
SplineSet
365 -9 m 0,0,1
 278 -9 278 -9 212 25 c 128,-1,2
 146 59 146 59 109 125.5 c 128,-1,3
 72 192 72 192 72 287 c 0,4,5
 72 383 72 383 99 461.5 c 128,-1,6
 126 540 126 540 176 596.5 c 128,-1,7
 226 653 226 653 296 683.5 c 128,-1,8
 366 714 366 714 451 714 c 0,9,10
 461 714 461 714 471.5 713.5 c 128,-1,11
 482 713 482 713 491 711 c 0,12,13
 515 708 515 708 524 694 c 128,-1,14
 533 680 533 680 531 661 c 0,15,16
 530 649 530 649 523 640 c 128,-1,17
 516 631 516 631 505.5 627 c 128,-1,18
 495 623 495 623 484 624 c 0,19,20
 472 626 472 626 459 626.5 c 128,-1,21
 446 627 446 627 434 627 c 0,22,23
 357 623 357 623 299.5 581 c 128,-1,24
 242 539 242 539 211 465 c 128,-1,25
 180 391 180 391 180 290 c 0,26,27
 180 217 180 217 204.5 169 c 128,-1,28
 229 121 229 121 274 97.5 c 128,-1,29
 319 74 319 74 380 74 c 0,30,31
 446 74 446 74 498.5 95.5 c 128,-1,32
 551 117 551 117 587 155.5 c 128,-1,33
 623 194 623 194 642 247 c 128,-1,34
 661 300 661 300 661 364 c 0,35,36
 661 415 661 415 639.5 443 c 128,-1,37
 618 471 618 471 578 471 c 0,38,39
 537 471 537 471 508 444 c 128,-1,40
 479 417 479 417 464 370.5 c 128,-1,41
 449 324 449 324 449 267 c 0,42,43
 449 204 449 204 473 161 c 128,-1,44
 497 118 497 118 543.5 96 c 128,-1,45
 590 74 590 74 656 74 c 0,46,47
 681 74 681 74 708 78.5 c 128,-1,48
 735 83 735 83 758 92 c 0,49,50
 776 98 776 98 788 94.5 c 128,-1,51
 800 91 800 91 806.5 81 c 128,-1,52
 813 71 813 71 813.5 58.5 c 128,-1,53
 814 46 814 46 807.5 34 c 128,-1,54
 801 22 801 22 785 16 c 0,55,56
 759 3 759 3 722 -3 c 128,-1,57
 685 -9 685 -9 647 -9 c 0,58,59
 583 -9 583 -9 529 12 c 128,-1,60
 475 33 475 33 434.5 71 c 128,-1,61
 394 109 394 109 372 160 c 128,-1,62
 350 211 350 211 350 271 c 0,63,64
 350 352 350 352 379.5 416.5 c 128,-1,65
 409 481 409 481 461.5 518.5 c 128,-1,66
 514 556 514 556 585 556 c 0,67,68
 639 556 639 556 678 534 c 128,-1,69
 717 512 717 512 738.5 471 c 128,-1,70
 760 430 760 430 760 373 c 0,71,72
 760 295 760 295 730 225.5 c 128,-1,73
 700 156 700 156 645.5 103 c 128,-1,74
 591 50 591 50 519.5 20.5 c 128,-1,75
 448 -9 448 -9 365 -9 c 0,0,1
EndSplineSet
EndChar

StartChar: uni04AA
Encoding: 1194 1194 598
Width: 676
GlyphClass: 2
Flags: W
AnchorPoint: "Anchor-2" 369 0 basechar 0
AnchorPoint: "Anchor-0" 439 705 basechar 0
LayerCount: 2
Fore
SplineSet
342 -168 m 0,0,1
 322 -168 322 -168 311 -154 c 128,-1,2
 300 -140 300 -140 304 -115 c 2,3,-1
 330 47 l 1,4,-1
 422 47 l 1,5,-1
 395 -124 l 2,6,7
 392 -147 392 -147 378 -157.5 c 128,-1,8
 364 -168 364 -168 342 -168 c 0,0,1
387 -9 m 0,9,10
 295 -9 295 -9 224.5 25.5 c 128,-1,11
 154 60 154 60 114 130.5 c 128,-1,12
 74 201 74 201 74 309 c 0,13,14
 74 395 74 395 99.5 468.5 c 128,-1,15
 125 542 125 542 172.5 597 c 128,-1,16
 220 652 220 652 289.5 683 c 128,-1,17
 359 714 359 714 446 714 c 0,18,19
 506 714 506 714 560 697 c 128,-1,20
 614 680 614 680 654 648 c 0,21,22
 669 637 669 637 672.5 622.5 c 128,-1,23
 676 608 676 608 671.5 594 c 128,-1,24
 667 580 667 580 657.5 570.5 c 128,-1,25
 648 561 648 561 634.5 559.5 c 128,-1,26
 621 558 621 558 607 567 c 0,27,28
 568 597 568 597 528 609.5 c 128,-1,29
 488 622 488 622 442 622 c 0,30,31
 361 622 361 622 303 581.5 c 128,-1,32
 245 541 245 541 214.5 470.5 c 128,-1,33
 184 400 184 400 184 311 c 0,34,35
 184 230 184 230 209 180 c 128,-1,36
 234 130 234 130 281.5 106.5 c 128,-1,37
 329 83 329 83 397 83 c 0,38,39
 439 83 439 83 476 94.5 c 128,-1,40
 513 106 513 106 551 133 c 0,41,42
 567 143 567 143 581 141.5 c 128,-1,43
 595 140 595 140 604.5 130.5 c 128,-1,44
 614 121 614 121 617 107.5 c 128,-1,45
 620 94 620 94 615 80 c 128,-1,46
 610 66 610 66 595 56 c 0,47,48
 550 23 550 23 496 7 c 128,-1,49
 442 -9 442 -9 387 -9 c 0,9,10
EndSplineSet
Substitution2: "'locl' Localized Forms in Cyrillic lookup 17 subtable" uni04AA.loclCHU
Substitution2: "'locl' Localized Forms in Cyrillic lookup 16 subtable" uni04AA.loclBSH
AlternateSubs2: "'aalt' Access All Alternates lookup 1 subtable" uni04AA.loclBSH uni04AA.loclCHU
EndChar

StartChar: uni04AC
Encoding: 1196 1196 599
Width: 589
GlyphClass: 1
Flags: W
LayerCount: 2
Fore
SplineSet
335 -168 m 0,0,1
 313 -168 313 -168 302.5 -153.5 c 128,-1,2
 292 -139 292 -139 296 -114 c 2,3,-1
 314 0 l 1,4,-1
 265 0 l 2,5,6
 237 0 237 0 223.5 16 c 128,-1,7
 210 32 210 32 214 60 c 2,8,-1
 302 618 l 1,9,-1
 105 618 l 2,10,11
 83 618 83 618 70.5 627.5 c 128,-1,12
 58 637 58 637 58 654 c 0,13,14
 58 678 58 678 72.5 691.5 c 128,-1,15
 87 705 87 705 111 705 c 2,16,-1
 617 705 l 2,17,18
 639 705 639 705 651.5 696 c 128,-1,19
 664 687 664 687 664 670 c 0,20,21
 664 645 664 645 650 631.5 c 128,-1,22
 636 618 636 618 611 618 c 2,23,-1
 405 618 l 1,24,-1
 317 60 l 1,25,-1
 277 84 l 1,26,-1
 365 84 l 2,27,28
 391 84 391 84 403 70 c 128,-1,29
 415 56 415 56 411 29 c 2,30,-1
 387 -122 l 2,31,32
 380 -168 380 -168 335 -168 c 0,0,1
EndSplineSet
EndChar

StartChar: uni04B2
Encoding: 1202 1202 602
Width: 699
GlyphClass: 1
Flags: W
LayerCount: 2
Fore
SplineSet
577 -168 m 0,0,1
 557 -168 557 -168 546 -154 c 128,-1,2
 535 -140 535 -140 539 -114 c 2,3,-1
 562 33 l 1,4,-1
 590 0 l 1,5,-1
 540 0 l 2,6,7
 521 0 521 0 509 7.5 c 128,-1,8
 497 15 497 15 486 33 c 2,9,-1
 327 308 l 1,10,-1
 358 308 l 1,11,-1
 112 24 l 2,12,13
 97 7 97 7 84.5 0 c 128,-1,14
 72 -7 72 -7 54 -7 c 0,15,16
 34 -7 34 -7 22 4.5 c 128,-1,17
 10 16 10 16 10 33.5 c 128,-1,18
 10 51 10 51 25 68 c 2,19,-1
 303 381 l 1,20,-1
 303 339 l 1,21,-1
 127 639 l 2,22,23
 116 658 116 658 118 674.5 c 128,-1,24
 120 691 120 691 133 701.5 c 128,-1,25
 146 712 146 712 166 712 c 0,26,27
 185 712 185 712 195.5 703.5 c 128,-1,28
 206 695 206 695 219 674 c 2,29,-1
 367 413 l 1,30,-1
 343 413 l 1,31,-1
 573 681 l 2,32,33
 588 698 588 698 601 705 c 128,-1,34
 614 712 614 712 631 712 c 0,35,36
 651 712 651 712 663.5 701 c 128,-1,37
 676 690 676 690 676.5 673 c 128,-1,38
 677 656 677 656 662 638 c 2,39,-1
 394 336 l 1,40,-1
 394 383 l 1,41,-1
 586 56 l 1,42,-1
 536 84 l 1,43,-1
 606 84 l 2,44,45
 633 84 633 84 645.5 70 c 128,-1,46
 658 56 658 56 654 29 c 2,47,-1
 629 -123 l 2,48,49
 626 -146 626 -146 613 -157 c 128,-1,50
 600 -168 600 -168 577 -168 c 0,0,1
EndSplineSet
EndChar

StartChar: uni04B4
Encoding: 1204 1204 603
Width: 933
GlyphClass: 1
Flags: W
LayerCount: 2
Fore
SplineSet
800 -168 m 0,0,1
 778 -168 778 -168 767.5 -153.5 c 128,-1,2
 757 -139 757 -139 761 -114 c 2,3,-1
 779 0 l 1,4,-1
 236 0 l 2,5,6
 208 0 208 0 194 16 c 128,-1,7
 180 32 180 32 184 60 c 2,8,-1
 274 618 l 1,9,-1
 110 618 l 2,10,11
 88 618 88 618 75.5 627.5 c 128,-1,12
 63 637 63 637 63 654 c 0,13,14
 63 678 63 678 77.5 691.5 c 128,-1,15
 92 705 92 705 116 705 c 2,16,-1
 540 705 l 2,17,18
 562 705 562 705 574.5 696 c 128,-1,19
 587 687 587 687 587 670 c 0,20,21
 587 645 587 645 573 631.5 c 128,-1,22
 559 618 559 618 534 618 c 2,23,-1
 377 618 l 1,24,-1
 293 87 l 1,25,-1
 682 87 l 1,26,-1
 774 663 l 2,27,28
 778 687 778 687 791.5 699.5 c 128,-1,29
 805 712 805 712 829 712 c 0,30,31
 856 712 856 712 868 697 c 128,-1,32
 880 682 880 682 875 654 c 2,33,-1
 781 59 l 1,34,-1
 744 87 l 1,35,-1
 829 87 l 2,36,37
 855 87 855 87 868 72.5 c 128,-1,38
 881 58 881 58 877 31 c 2,39,-1
 853 -122 l 2,40,41
 845 -168 845 -168 800 -168 c 0,0,1
EndSplineSet
EndChar

StartChar: uni04B6
Encoding: 1206 1206 604
Width: 729
GlyphClass: 1
Flags: W
LayerCount: 2
Fore
SplineSet
506 287 m 1,0,1
 474 272 474 272 430 263.5 c 128,-1,2
 386 255 386 255 341 255 c 0,3,4
 254 255 254 255 196 289.5 c 128,-1,5
 138 324 138 324 114.5 389.5 c 128,-1,6
 91 455 91 455 106 550 c 2,7,-1
 123 661 l 2,8,9
 127 687 127 687 142.5 699.5 c 128,-1,10
 158 712 158 712 181 712 c 0,11,12
 207 712 207 712 218 696 c 128,-1,13
 229 680 229 680 224 652 c 2,14,-1
 209 553 l 2,15,16
 191 445 191 445 228 395 c 128,-1,17
 265 345 265 345 357 345 c 0,18,19
 398 345 398 345 441 353 c 128,-1,20
 484 361 484 361 521 380 c 1,21,-1
 566 661 l 2,22,23
 570 687 570 687 585 699.5 c 128,-1,24
 600 712 600 712 624 712 c 0,25,26
 650 712 650 712 660.5 696 c 128,-1,27
 671 680 671 680 667 652 c 2,28,-1
 572 52 l 1,29,-1
 544 84 l 1,30,-1
 622 84 l 2,31,32
 648 84 648 84 660.5 70.5 c 128,-1,33
 673 57 673 57 669 30 c 2,34,-1
 645 -122 l 2,35,36
 642 -145 642 -145 629 -156.5 c 128,-1,37
 616 -168 616 -168 593 -168 c 0,38,39
 572 -168 572 -168 561.5 -154 c 128,-1,40
 551 -140 551 -140 556 -114 c 2,41,-1
 574 0 l 1,42,-1
 514 0 l 2,43,44
 487 0 487 0 476.5 16 c 128,-1,45
 466 32 466 32 470 62 c 2,46,-1
 506 287 l 1,0,1
EndSplineSet
EndChar

StartChar: uni04B8
Encoding: 1208 1208 605
Width: 685
GlyphClass: 1
Flags: W
LayerCount: 2
Fore
SplineSet
513 -7 m 0,0,1
 486 -7 486 -7 475 8 c 128,-1,2
 464 23 464 23 469 52 c 2,3,-1
 506 287 l 1,4,5
 478 275 478 275 441 266.5 c 128,-1,6
 404 258 404 258 364 255 c 1,7,-1
 377 266 l 1,8,-1
 357 138 l 2,9,10
 351 101 351 101 314 101 c 0,11,12
 296 101 296 101 287 112.5 c 128,-1,13
 278 124 278 124 282 144 c 2,14,-1
 301 265 l 1,15,-1
 310 256 l 1,16,17
 233 262 233 262 182.5 298.5 c 128,-1,18
 132 335 132 335 112 398.5 c 128,-1,19
 92 462 92 462 106 550 c 2,20,-1
 123 661 l 2,21,22
 127 687 127 687 142.5 699.5 c 128,-1,23
 158 712 158 712 181 712 c 0,24,25
 207 712 207 712 218 696 c 128,-1,26
 229 680 229 680 224 652 c 2,27,-1
 209 553 l 2,28,29
 194 456 194 456 222 406 c 128,-1,30
 250 356 250 356 323 348 c 1,31,-1
 313 341 l 1,32,-1
 336 486 l 2,33,34
 342 522 342 522 378 522 c 0,35,36
 397 522 397 522 405.5 511 c 128,-1,37
 414 500 414 500 411 480 c 2,38,-1
 389 338 l 1,39,-1
 380 345 l 1,40,41
 416 347 416 347 452.5 355.5 c 128,-1,42
 489 364 489 364 521 380 c 1,43,-1
 566 661 l 2,44,45
 570 687 570 687 585 699.5 c 128,-1,46
 600 712 600 712 623 712 c 0,47,48
 650 712 650 712 660.5 696 c 128,-1,49
 671 680 671 680 667 652 c 2,50,-1
 571 44 l 2,51,52
 567 19 567 19 552 6 c 128,-1,53
 537 -7 537 -7 513 -7 c 0,0,1
EndSplineSet
EndChar

StartChar: uni04BA
Encoding: 1210 1210 606
Width: 685
GlyphClass: 2
Flags: W
LayerCount: 2
Fore
SplineSet
96 -7 m 0,0,1
 70 -7 70 -7 59 9 c 128,-1,2
 48 25 48 25 52 54 c 2,3,-1
 149 661 l 2,4,5
 153 687 153 687 168 699.5 c 128,-1,6
 183 712 183 712 207 712 c 0,7,8
 233 712 233 712 244 696.5 c 128,-1,9
 255 681 255 681 250 652 c 2,10,-1
 213 418 l 1,11,12
 245 434 245 434 290.5 442 c 128,-1,13
 336 450 336 450 380 450 c 0,14,15
 468 450 468 450 525.5 416 c 128,-1,16
 583 382 583 382 607 316.5 c 128,-1,17
 631 251 631 251 616 155 c 2,18,-1
 598 44 l 2,19,20
 594 19 594 19 579 6 c 128,-1,21
 564 -7 564 -7 540 -7 c 0,22,23
 514 -7 514 -7 503.5 9.5 c 128,-1,24
 493 26 493 26 497 54 c 2,25,-1
 512 152 l 2,26,27
 530 261 530 261 492.5 310.5 c 128,-1,28
 455 360 455 360 363 360 c 0,29,30
 322 360 322 360 279 352.5 c 128,-1,31
 236 345 236 345 199 325 c 1,32,-1
 154 44 l 2,33,34
 150 19 150 19 135 6 c 128,-1,35
 120 -7 120 -7 96 -7 c 0,0,1
EndSplineSet
EndChar

StartChar: uni0526
Encoding: 1318 1318 607
Width: 729
GlyphClass: 1
Flags: W
LayerCount: 2
Fore
SplineSet
512 152 m 2,0,1
 530 261 530 261 492.5 310.5 c 128,-1,2
 455 360 455 360 363 360 c 0,3,4
 322 360 322 360 279 352.5 c 128,-1,5
 236 345 236 345 199 325 c 1,6,-1
 154 44 l 2,7,8
 150 19 150 19 135 6 c 128,-1,9
 120 -7 120 -7 96 -7 c 0,10,11
 70 -7 70 -7 59 9 c 128,-1,12
 48 25 48 25 52 54 c 2,13,-1
 149 661 l 2,14,15
 153 687 153 687 168 699.5 c 128,-1,16
 183 712 183 712 207 712 c 0,17,18
 233 712 233 712 244 696.5 c 128,-1,19
 255 681 255 681 250 652 c 2,20,-1
 213 418 l 1,21,22
 245 434 245 434 290.5 442 c 128,-1,23
 336 450 336 450 380 450 c 0,24,25
 468 450 468 450 526 416 c 128,-1,26
 584 382 584 382 608 316.5 c 128,-1,27
 632 251 632 251 616 155 c 2,28,-1
 599 52 l 1,29,-1
 571 84 l 1,30,-1
 649 84 l 2,31,32
 676 84 676 84 688.5 70.5 c 128,-1,33
 701 57 701 57 697 30 c 2,34,-1
 673 -122 l 2,35,36
 669 -145 669 -145 656 -156.5 c 128,-1,37
 643 -168 643 -168 620 -168 c 0,38,39
 600 -168 600 -168 589.5 -154 c 128,-1,40
 579 -140 579 -140 583 -114 c 2,41,-1
 601 0 l 1,42,-1
 541 0 l 2,43,44
 515 0 515 0 504 16 c 128,-1,45
 493 32 493 32 498 62 c 2,46,-1
 512 152 l 2,0,1
EndSplineSet
EndChar

StartChar: uni04BC
Encoding: 1212 1212 608
Width: 941
GlyphClass: 2
Flags: W
AnchorPoint: "Anchor-3" 600 0 basechar 0
LayerCount: 2
Fore
SplineSet
562 -9 m 0,0,1
 460 -9 460 -9 385.5 34 c 128,-1,2
 311 77 311 77 273 154 c 128,-1,3
 235 231 235 231 241 332 c 1,4,-1
 257 308 l 1,5,-1
 227 308 l 2,6,7
 164 308 164 308 123 329.5 c 128,-1,8
 82 351 82 351 65 390 c 128,-1,9
 48 429 48 429 56 481 c 2,10,-1
 62 513 l 2,11,12
 70 552 70 552 117 552 c 0,13,14
 140 552 140 552 153 541 c 128,-1,15
 166 530 166 530 162 506 c 0,16,17
 161 499 161 499 160 491 c 128,-1,18
 159 483 159 483 158 475 c 0,19,20
 153 433 153 433 171.5 413 c 128,-1,21
 190 393 190 393 234 393 c 2,22,-1
 264 393 l 1,23,-1
 244 370 l 1,24,25
 253 444 253 444 280 506.5 c 128,-1,26
 307 569 307 569 353 616 c 128,-1,27
 399 663 399 663 462.5 688.5 c 128,-1,28
 526 714 526 714 606 714 c 0,29,30
 680 714 680 714 734.5 692 c 128,-1,31
 789 670 789 670 824.5 632 c 128,-1,32
 860 594 860 594 879 546.5 c 128,-1,33
 898 499 898 499 903 449 c 128,-1,34
 908 399 908 399 900 352 c 0,35,36
 897 333 897 333 889 323.5 c 128,-1,37
 881 314 881 314 869.5 311 c 128,-1,38
 858 308 858 308 846 308 c 2,39,-1
 329 308 l 1,40,-1
 350 332 l 1,41,42
 343 257 343 257 368 200.5 c 128,-1,43
 393 144 393 144 445.5 112.5 c 128,-1,44
 498 81 498 81 574 81 c 0,45,46
 636 81 636 81 686.5 95 c 128,-1,47
 737 109 737 109 781 135 c 0,48,49
 798 145 798 145 812 142.5 c 128,-1,50
 826 140 826 140 835 130 c 128,-1,51
 844 120 844 120 846 106.5 c 128,-1,52
 848 93 848 93 842.5 79 c 128,-1,53
 837 65 837 65 821 56 c 0,54,55
 768 24 768 24 701 7.5 c 128,-1,56
 634 -9 634 -9 562 -9 c 0,0,1
603 628 m 0,57,58
 528 628 528 628 476 594.5 c 128,-1,59
 424 561 424 561 393 502 c 128,-1,60
 362 443 362 443 353 368 c 1,61,-1
 337 393 l 1,62,-1
 829 393 l 1,63,-1
 799 352 l 1,64,65
 811 432 811 432 793.5 494.5 c 128,-1,66
 776 557 776 557 728.5 592.5 c 128,-1,67
 681 628 681 628 603 628 c 0,57,58
EndSplineSet
EndChar

StartChar: uni04C3
Encoding: 1219 1219 612
Width: 683
GlyphClass: 1
Flags: W
LayerCount: 2
Fore
SplineSet
361 -189 m 0,0,1
 338 -189 338 -189 312.5 -186 c 128,-1,2
 287 -183 287 -183 269 -178 c 0,3,4
 253 -174 253 -174 245.5 -163.5 c 128,-1,5
 238 -153 238 -153 237.5 -140.5 c 128,-1,6
 237 -128 237 -128 242.5 -116.5 c 128,-1,7
 248 -105 248 -105 259 -99.5 c 128,-1,8
 270 -94 270 -94 284 -98 c 256,9,10
 298 -102 298 -102 313 -104 c 128,-1,11
 328 -106 328 -106 346 -106 c 0,12,13
 404 -106 404 -106 443 -66.5 c 128,-1,14
 482 -27 482 -27 495 50 c 2,15,-1
 503 104 l 2,16,17
 516 180 516 180 499 226.5 c 128,-1,18
 482 273 482 273 439.5 294 c 128,-1,19
 397 315 397 315 333 315 c 2,20,-1
 196 315 l 1,21,-1
 153 41 l 2,22,23
 150 16 150 16 136 4.5 c 128,-1,24
 122 -7 122 -7 96 -7 c 0,25,26
 72 -7 72 -7 60 8 c 128,-1,27
 48 23 48 23 52 50 c 2,28,-1
 149 664 l 2,29,30
 153 689 153 689 167 700.5 c 128,-1,31
 181 712 181 712 206 712 c 0,32,33
 232 712 232 712 243.5 697 c 128,-1,34
 255 682 255 682 251 655 c 2,35,-1
 210 402 l 1,36,-1
 342 402 l 1,37,-1
 314 381 l 1,38,-1
 562 689 l 2,39,40
 574 706 574 706 589.5 710 c 128,-1,41
 605 714 605 714 618.5 709.5 c 128,-1,42
 632 705 632 705 640.5 693.5 c 128,-1,43
 649 682 649 682 648 666.5 c 128,-1,44
 647 651 647 651 633 634 c 2,45,-1
 413 363 l 1,46,-1
 384 398 l 1,47,48
 465 393 465 393 520.5 360.5 c 128,-1,49
 576 328 576 328 599.5 266 c 128,-1,50
 623 204 623 204 607 110 c 2,51,-1
 598 55 l 2,52,53
 585 -25 585 -25 553.5 -79 c 128,-1,54
 522 -133 522 -133 474 -161 c 128,-1,55
 426 -189 426 -189 361 -189 c 0,0,1
EndSplineSet
EndChar

StartChar: uni04C5
Encoding: 1221 1221 613
Width: 785
GlyphClass: 1
Flags: W
LayerCount: 2
Fore
SplineSet
643 -141 m 2,0,1
 635 -157 635 -157 622.5 -163.5 c 128,-1,2
 610 -170 610 -170 597.5 -168.5 c 128,-1,3
 585 -167 585 -167 575.5 -159.5 c 128,-1,4
 566 -152 566 -152 564 -139 c 128,-1,5
 562 -126 562 -126 570 -110 c 2,6,-1
 639 30 l 1,7,-1
 639 0 l 1,8,-1
 575 0 l 2,9,10
 548 0 548 0 537 13.5 c 128,-1,11
 526 27 526 27 531 56 c 2,12,-1
 619 618 l 1,13,-1
 337 618 l 1,14,-1
 310 449 l 2,15,16
 294 348 294 348 271 274 c 128,-1,17
 248 200 248 200 217.5 147 c 128,-1,18
 187 94 187 94 147.5 58.5 c 128,-1,19
 108 23 108 23 59 -2 c 0,20,21
 39 -12 39 -12 21.5 -8.5 c 128,-1,22
 4 -5 4 -5 -7 15 c 0,23,24
 -17 34 -17 34 -11.5 50.5 c 128,-1,25
 -6 67 -6 67 15 78 c 0,26,27
 50 96 50 96 80 124.5 c 128,-1,28
 110 153 110 153 135.5 197.5 c 128,-1,29
 161 242 161 242 182 310 c 128,-1,30
 203 378 203 378 218 476 c 2,31,-1
 247 653 l 2,32,33
 251 679 251 679 266 692 c 128,-1,34
 281 705 281 705 307 705 c 2,35,-1
 676 705 l 2,36,37
 704 705 704 705 717.5 689.5 c 128,-1,38
 731 674 731 674 727 645 c 2,39,-1
 633 53 l 1,40,-1
 624 84 l 1,41,-1
 685 84 l 2,42,43
 715 84 715 84 726.5 67.5 c 128,-1,44
 738 51 738 51 724 22 c 2,45,-1
 643 -141 l 2,0,1
EndSplineSet
EndChar

StartChar: uni04C7
Encoding: 1223 1223 614
Width: 767
GlyphClass: 1
Flags: W
LayerCount: 2
Fore
SplineSet
428 -191 m 0,0,1
 408 -192 408 -192 397.5 -181 c 128,-1,2
 387 -170 387 -170 387 -154.5 c 128,-1,3
 387 -139 387 -139 396.5 -127 c 128,-1,4
 406 -115 406 -115 424 -114 c 0,5,6
 475 -112 475 -112 503.5 -88 c 128,-1,7
 532 -64 532 -64 540 -11 c 2,8,-1
 592 314 l 1,9,-1
 197 314 l 1,10,-1
 154 45 l 2,11,12
 150 20 150 20 136 6.5 c 128,-1,13
 122 -7 122 -7 96 -7 c 256,14,15
 70 -7 70 -7 59 9 c 128,-1,16
 48 25 48 25 53 54 c 2,17,-1
 149 661 l 2,18,19
 153 686 153 686 167.5 699 c 128,-1,20
 182 712 182 712 207 712 c 0,21,22
 233 712 233 712 244 696 c 128,-1,23
 255 680 255 680 250 651 c 2,24,-1
 210 401 l 1,25,-1
 605 401 l 1,26,-1
 646 661 l 2,27,28
 650 686 650 686 664.5 699 c 128,-1,29
 679 712 679 712 705 712 c 0,30,31
 730 712 730 712 741 696.5 c 128,-1,32
 752 681 752 681 747 651 c 2,33,-1
 644 -3 l 2,34,35
 634 -66 634 -66 609 -106.5 c 128,-1,36
 584 -147 584 -147 540 -167.5 c 128,-1,37
 496 -188 496 -188 428 -191 c 0,0,1
EndSplineSet
EndChar

StartChar: uni04C9
Encoding: 1225 1225 615
Width: 806
GlyphClass: 1
Flags: W
LayerCount: 2
Fore
SplineSet
663 -141 m 2,0,1
 655 -157 655 -157 643 -163.5 c 128,-1,2
 631 -170 631 -170 618 -168.5 c 128,-1,3
 605 -167 605 -167 596 -159.5 c 128,-1,4
 587 -152 587 -152 584.5 -139 c 128,-1,5
 582 -126 582 -126 590 -110 c 2,6,-1
 659 30 l 1,7,-1
 659 0 l 1,8,-1
 595 0 l 2,9,10
 569 0 569 0 557.5 13.5 c 128,-1,11
 546 27 546 27 551 56 c 2,12,-1
 592 314 l 1,13,-1
 196 314 l 1,14,-1
 154 45 l 2,15,16
 150 20 150 20 136 6.5 c 128,-1,17
 122 -7 122 -7 96 -7 c 256,18,19
 70 -7 70 -7 59 9 c 128,-1,20
 48 25 48 25 52 54 c 2,21,-1
 149 661 l 2,22,23
 153 686 153 686 167 699 c 128,-1,24
 181 712 181 712 207 712 c 256,25,26
 233 712 233 712 244 696 c 128,-1,27
 255 680 255 680 250 651 c 2,28,-1
 210 401 l 1,29,-1
 606 401 l 1,30,-1
 647 661 l 2,31,32
 651 686 651 686 665 699 c 128,-1,33
 679 712 679 712 705 712 c 256,34,35
 731 712 731 712 742 696.5 c 128,-1,36
 753 681 753 681 748 651 c 2,37,-1
 653 53 l 1,38,-1
 645 84 l 1,39,-1
 705 84 l 2,40,41
 735 84 735 84 747 67.5 c 128,-1,42
 759 51 759 51 744 22 c 2,43,-1
 663 -141 l 2,0,1
EndSplineSet
EndChar

StartChar: uni04CB
Encoding: 1227 1227 616
Width: 723
GlyphClass: 1
Flags: W
LayerCount: 2
Fore
SplineSet
380 -168 m 0,0,1
 357 -168 357 -168 348 -155.5 c 128,-1,2
 339 -143 339 -143 342 -120 c 2,3,-1
 366 35 l 2,4,5
 370 59 370 59 385 71.5 c 128,-1,6
 400 84 400 84 424 84 c 2,7,-1
 521 84 l 1,8,-1
 467 38 l 1,9,-1
 506 287 l 1,10,11
 474 272 474 272 430 263.5 c 128,-1,12
 386 255 386 255 341 255 c 0,13,14
 254 255 254 255 196 289.5 c 128,-1,15
 138 324 138 324 114.5 389.5 c 128,-1,16
 91 455 91 455 106 550 c 2,17,-1
 123 661 l 2,18,19
 127 687 127 687 142.5 699.5 c 128,-1,20
 158 712 158 712 181 712 c 0,21,22
 207 712 207 712 218 696 c 128,-1,23
 229 680 229 680 224 652 c 2,24,-1
 209 553 l 2,25,26
 191 445 191 445 228 395 c 128,-1,27
 265 345 265 345 357 345 c 0,28,29
 398 345 398 345 441 353 c 128,-1,30
 484 361 484 361 521 380 c 1,31,-1
 566 661 l 2,32,33
 570 687 570 687 585 699.5 c 128,-1,34
 600 712 600 712 624 712 c 0,35,36
 650 712 650 712 660.5 696 c 128,-1,37
 671 680 671 680 667 652 c 2,38,-1
 572 53 l 2,39,40
 568 27 568 27 552.5 13.5 c 128,-1,41
 537 0 537 0 512 0 c 2,42,-1
 453 0 l 1,43,-1
 435 -120 l 2,44,45
 431 -143 431 -143 416.5 -155.5 c 128,-1,46
 402 -168 402 -168 380 -168 c 0,0,1
EndSplineSet
EndChar

StartChar: uni04CD
Encoding: 1229 1229 617
Width: 901
GlyphClass: 1
Flags: W
LayerCount: 2
Fore
SplineSet
755 -141 m 2,0,1
 747 -157 747 -157 735 -163.5 c 128,-1,2
 723 -170 723 -170 710.5 -168.5 c 128,-1,3
 698 -167 698 -167 688.5 -159.5 c 128,-1,4
 679 -152 679 -152 676.5 -139 c 128,-1,5
 674 -126 674 -126 682 -110 c 2,6,-1
 751 30 l 1,7,-1
 751 0 l 1,8,-1
 697 0 l 2,9,10
 671 0 671 0 659.5 13.5 c 128,-1,11
 648 27 648 27 653 56 c 2,12,-1
 733 561 l 1,13,-1
 756 561 l 1,14,-1
 454 125 l 2,15,16
 445 111 445 111 435.5 105.5 c 128,-1,17
 426 100 426 100 412 100 c 0,18,19
 395 100 395 100 385.5 108 c 128,-1,20
 376 116 376 116 370 132 c 2,21,-1
 207 559 l 1,22,-1
 228 559 l 1,23,-1
 146 41 l 2,24,25
 143 19 143 19 130.5 7.5 c 128,-1,26
 118 -4 118 -4 96 -4 c 0,27,28
 72 -4 72 -4 61.5 10 c 128,-1,29
 51 24 51 24 54 49 c 2,30,-1
 152 668 l 2,31,32
 156 691 156 691 168.5 701.5 c 128,-1,33
 181 712 181 712 203 712 c 0,34,35
 223 712 223 712 234 703.5 c 128,-1,36
 245 695 245 695 253 674 c 2,37,-1
 432 189 l 1,38,-1
 404 189 l 1,39,-1
 745 682 l 2,40,41
 757 698 757 698 769.5 705 c 128,-1,42
 782 712 782 712 802 712 c 0,43,44
 825 712 825 712 836 698 c 128,-1,45
 847 684 847 684 843 660 c 2,46,-1
 746 53 l 1,47,-1
 737 84 l 1,48,-1
 797 84 l 2,49,50
 828 84 828 84 839.5 67.5 c 128,-1,51
 851 51 851 51 837 22 c 2,52,-1
 755 -141 l 2,0,1
EndSplineSet
EndChar

StartChar: uni04E0
Encoding: 1248 1248 626
Width: 638
GlyphClass: 1
Flags: W
LayerCount: 2
Fore
SplineSet
300 -9 m 0,0,1
 227 -9 227 -9 163.5 8 c 128,-1,2
 100 25 100 25 47 61 c 0,3,4
 33 70 33 70 28.5 84 c 128,-1,5
 24 98 24 98 26.5 111.5 c 128,-1,6
 29 125 29 125 38 134 c 128,-1,7
 47 143 47 143 61 145 c 128,-1,8
 75 147 75 147 91 136 c 0,9,10
 138 103 138 103 190.5 91 c 128,-1,11
 243 79 243 79 300 79 c 0,12,13
 345 79 345 79 384 91.5 c 128,-1,14
 423 104 423 104 447.5 133.5 c 128,-1,15
 472 163 472 163 472 213 c 0,16,17
 472 250 472 250 455 272.5 c 128,-1,18
 438 295 438 295 407 305.5 c 128,-1,19
 376 316 376 316 333 316 c 2,20,-1
 237 316 l 2,21,22
 221 316 221 316 211.5 323 c 128,-1,23
 202 330 202 330 198.5 340.5 c 128,-1,24
 195 351 195 351 198.5 363 c 128,-1,25
 202 375 202 375 213 385 c 2,26,-1
 506 646 l 1,27,-1
 509 618 l 1,28,-1
 149 618 l 2,29,30
 125 618 125 618 113.5 628 c 128,-1,31
 102 638 102 638 102 656 c 0,32,33
 102 680 102 680 118 692.5 c 128,-1,34
 134 705 134 705 155 705 c 2,35,-1
 580 705 l 2,36,37
 598 705 598 705 608.5 697 c 128,-1,38
 619 689 619 689 621.5 676 c 128,-1,39
 624 663 624 663 618 648 c 128,-1,40
 612 633 612 633 596 619 c 2,41,-1
 316 370 l 1,42,-1
 297 397 l 1,43,-1
 360 397 l 2,44,45
 433 397 433 397 480.5 374 c 128,-1,46
 528 351 528 351 551 310 c 128,-1,47
 574 269 574 269 574 217 c 0,48,49
 574 144 574 144 539 93.5 c 128,-1,50
 504 43 504 43 442 17 c 128,-1,51
 380 -9 380 -9 300 -9 c 0,0,1
EndSplineSet
EndChar

StartChar: uni04E8
Encoding: 1256 1256 630
Width: 776
GlyphClass: 2
Flags: W
AnchorPoint: "Anchor-5" 405 353 basechar 0
AnchorPoint: "Anchor-3" 420 0 basechar 0
AnchorPoint: "Anchor-2" 359 0 basechar 0
AnchorPoint: "Anchor-1" 503 705 basechar 0
AnchorPoint: "Anchor-0" 449 705 basechar 0
LayerCount: 2
Fore
SplineSet
130 318 m 1,0,-1
 142 398 l 1,1,-1
 686 398 l 1,2,-1
 673 318 l 1,3,-1
 130 318 l 1,0,-1
374 -9 m 0,4,5
 283 -9 283 -9 215.5 26 c 128,-1,6
 148 61 148 61 110.5 130 c 128,-1,7
 73 199 73 199 73 296 c 0,8,9
 73 386 73 386 97.5 462 c 128,-1,10
 122 538 122 538 169 595 c 128,-1,11
 216 652 216 652 283 683 c 128,-1,12
 350 714 350 714 436 714 c 0,13,14
 528 714 528 714 595.5 679 c 128,-1,15
 663 644 663 644 700 575.5 c 128,-1,16
 737 507 737 507 737 410 c 0,17,18
 737 319 737 319 712.5 243 c 128,-1,19
 688 167 688 167 641 110 c 128,-1,20
 594 53 594 53 527 22 c 128,-1,21
 460 -9 460 -9 374 -9 c 0,4,5
376 81 m 0,22,23
 458 81 458 81 514 123.5 c 128,-1,24
 570 166 570 166 599 240 c 128,-1,25
 628 314 628 314 628 408 c 0,26,27
 628 518 628 518 576.5 571 c 128,-1,28
 525 624 525 624 433 624 c 0,29,30
 352 624 352 624 296 582 c 128,-1,31
 240 540 240 540 211 466 c 128,-1,32
 182 392 182 392 182 298 c 0,33,34
 182 187 182 187 234 134 c 128,-1,35
 286 81 286 81 376 81 c 0,22,23
EndSplineSet
EndChar

StartChar: uni04FA
Encoding: 1274 1274 638
Width: 589
GlyphClass: 1
Flags: W
LayerCount: 2
Fore
SplineSet
64 -181 m 2,0,1
 46 -182 46 -182 34 -173.5 c 128,-1,2
 22 -165 22 -165 21 -147 c 0,3,4
 19 -130 19 -130 30.5 -119.5 c 128,-1,5
 42 -109 42 -109 59 -108 c 2,6,-1
 76 -107 l 2,7,8
 126 -103 126 -103 155.5 -76.5 c 128,-1,9
 185 -50 185 -50 192 0 c 1,10,-1
 135 0 l 2,11,12
 111 0 111 0 99 14 c 128,-1,13
 87 28 87 28 91 52 c 2,14,-1
 132 312 l 1,15,-1
 79 312 l 2,16,17
 59 312 59 312 48 320.5 c 128,-1,18
 37 329 37 329 37 344 c 0,19,20
 37 366 37 366 49.5 377.5 c 128,-1,21
 62 389 62 389 84 389 c 2,22,-1
 144 389 l 1,23,-1
 186 655 l 2,24,25
 190 680 190 680 205.5 692.5 c 128,-1,26
 221 705 221 705 246 705 c 2,27,-1
 604 705 l 2,28,29
 626 705 626 705 638.5 696 c 128,-1,30
 651 687 651 687 651 670 c 0,31,32
 651 645 651 645 637 631.5 c 128,-1,33
 623 618 623 618 598 618 c 2,34,-1
 284 618 l 1,35,-1
 247 389 l 1,36,-1
 388 389 l 2,37,38
 408 389 408 389 419 380.5 c 128,-1,39
 430 372 430 372 430 357 c 0,40,41
 430 336 430 336 417.5 324 c 128,-1,42
 405 312 405 312 383 312 c 2,43,-1
 235 312 l 1,44,-1
 195 57 l 1,45,-1
 174 84 l 1,46,-1
 248 84 l 2,47,48
 272 84 272 84 284.5 70.5 c 128,-1,49
 297 57 297 57 293 33 c 2,50,-1
 290 15 l 2,51,52
 280 -48 280 -48 256.5 -89.5 c 128,-1,53
 233 -131 233 -131 192.5 -153 c 128,-1,54
 152 -175 152 -175 93 -179 c 2,55,-1
 64 -181 l 2,0,1
EndSplineSet
EndChar

StartChar: uni04FC
Encoding: 1276 1276 639
Width: 660
GlyphClass: 1
Flags: W
LayerCount: 2
Fore
SplineSet
398 -181 m 0,0,1
 379 -185 379 -185 365 -176.5 c 128,-1,2
 351 -168 351 -168 346 -148 c 0,3,4
 341 -127 341 -127 351 -114.5 c 128,-1,5
 361 -102 361 -102 379 -98 c 0,6,7
 429 -88 429 -88 452 -62.5 c 128,-1,8
 475 -37 475 -37 475 6 c 0,9,10
 475 26 475 26 467 53.5 c 128,-1,11
 459 81 459 81 439 115 c 2,12,-1
 327 308 l 1,13,-1
 358 308 l 1,14,-1
 112 24 l 2,15,16
 97 7 97 7 84.5 0 c 128,-1,17
 72 -7 72 -7 54 -7 c 0,18,19
 35 -7 35 -7 22.5 4.5 c 128,-1,20
 10 16 10 16 9.5 33.5 c 128,-1,21
 9 51 9 51 24 68 c 2,22,-1
 303 381 l 1,23,-1
 303 339 l 1,24,-1
 127 639 l 2,25,26
 116 658 116 658 118 674.5 c 128,-1,27
 120 691 120 691 133 701.5 c 128,-1,28
 146 712 146 712 166 712 c 0,29,30
 185 712 185 712 196 703.5 c 128,-1,31
 207 695 207 695 219 674 c 2,32,-1
 367 413 l 1,33,-1
 343 413 l 1,34,-1
 573 681 l 2,35,36
 588 698 588 698 601 705 c 128,-1,37
 614 712 614 712 631 712 c 0,38,39
 651 712 651 712 663.5 701.5 c 128,-1,40
 676 691 676 691 677 674 c 128,-1,41
 678 657 678 657 663 640 c 2,42,-1
 394 336 l 1,43,-1
 394 383 l 1,44,-1
 529 153 l 2,45,46
 555 110 555 110 565 71.5 c 128,-1,47
 575 33 575 33 575 4 c 0,48,49
 575 -76 575 -76 531.5 -121 c 128,-1,50
 488 -166 488 -166 398 -181 c 0,0,1
EndSplineSet
EndChar

